<svg width="42" height="34" viewBox="0 0 42 34" fill="none" xmlns="http://www.w3.org/2000/svg">
<path d="M9.6 30.8C8.6 32.1 7.55 32.85 6.45 33.05C5.35 33.15 4.4 32.95 3.6 32.45C2.8 31.85 2.35 31 2.25 29.9C2.25 28.8 2.75 27.6 3.75 26.3C5.35 24.2 6.45 22.1 7.05 20C7.65 17.8 7.95 15.85 7.95 14.15L8.55 17.15C5.95 17.15 3.85 16.4 2.25 14.9C0.75 13.3 3.57628e-07 11.3 3.57628e-07 8.89999C3.57628e-07 6.4 0.7 4.4 2.1 2.9C3.6 1.39999 5.55 0.649992 7.95 0.649992C10.55 0.649992 12.6 1.54999 14.1 3.34999C15.6 5.05 16.35 7.55 16.35 10.85C16.35 12.95 16.15 15.15 15.75 17.45C15.35 19.65 14.65 21.9 13.65 24.2C12.65 26.5 11.3 28.7 9.6 30.8ZM34.5 30.8C33.5 32.1 32.45 32.85 31.35 33.05C30.25 33.15 29.3 32.95 28.5 32.45C27.7 31.85 27.25 31 27.15 29.9C27.15 28.8 27.65 27.6 28.65 26.3C30.25 24.2 31.35 22.1 31.95 20C32.55 17.8 32.85 15.85 32.85 14.15L33.45 17.15C30.85 17.15 28.75 16.4 27.15 14.9C25.65 13.3 24.9 11.3 24.9 8.89999C24.9 6.4 25.6 4.4 27 2.9C28.5 1.39999 30.45 0.649992 32.85 0.649992C35.45 0.649992 37.5 1.54999 39 3.34999C40.5 5.05 41.25 7.55 41.25 10.85C41.25 12.95 41.05 15.15 40.65 17.45C40.25 19.65 39.55 21.9 38.55 24.2C37.55 26.5 36.2 28.7 34.5 30.8Z" fill="#F7775E"/>
</svg>
