<svg width="391" height="366" viewBox="0 0 391 366" fill="none" xmlns="http://www.w3.org/2000/svg">
<g clip-path="url(#clip0_230_15)">
<path fill-rule="evenodd" clip-rule="evenodd" d="M16.7398 364.929C17.8963 363.061 19.6039 357.748 21.3719 350.518C23.4115 342.178 24.7412 338.233 27.1805 333.285C29.5972 328.383 37.271 315.738 44.5519 304.659C55.2712 288.349 57.8246 282.226 57.8602 272.743C57.8867 265.662 56.2264 258.131 52.2816 247.439C49.089 238.785 46.766 235.584 37.0609 226.465C29.7218 219.569 28.0888 217.372 26.7782 212.631C25.7692 208.98 25.9415 202.581 27.2182 196.29C30.0642 182.272 30.5103 179.183 30.5276 173.39C30.5467 166.997 29.9739 163.742 27.6127 156.828C24.5186 147.768 24.3037 145.218 26.3507 141.863C28.2294 138.786 32.7717 136.359 40.0006 134.571C50.6057 131.947 60.7986 132.56 64.1731 136.024C66.7413 138.661 67.1119 142.69 65.8252 153.965C63.9991 169.963 68.7262 179.158 80.2258 181.981C81.9104 182.394 84.5346 182.569 88.3699 182.521L94.0288 182.452L87.5194 182.178C82.36 181.961 80.5057 181.72 78.5776 181.013C73.6816 179.221 70.7971 176.779 68.4745 172.459C65.859 167.596 65.3869 162.003 66.6098 150.37C67.5879 141.063 67.0693 137.775 64.2291 135.276C60.5664 132.053 50.0085 131.576 39.5666 134.161C32.1845 135.988 27.8275 138.356 25.7666 141.659C24.7355 143.312 24.6023 143.93 24.6579 146.809C24.7091 149.464 25.0918 151.166 26.6875 155.842C29.5109 164.116 30.1041 167.173 30.0902 173.39C30.078 178.729 29.5842 182.09 26.7843 195.882C25.4945 202.236 25.3131 209.309 26.3442 213.04C27.6505 217.765 29.2952 219.977 36.6938 226.955C46.4462 236.154 48.6585 239.204 51.8477 247.848C55.706 258.306 57.3837 265.788 57.3876 272.558C57.3933 281.805 54.8377 287.889 43.9912 304.455C32.1962 322.469 26.3113 332.713 24.0182 339.223C23.2674 341.355 21.8601 346.32 20.8915 350.256C19.9225 354.192 18.5281 359.068 17.7921 361.093C16.0281 365.946 15.9626 366.186 16.7398 364.929ZM25.9992 365.658C26.8724 365.149 29.2123 358.253 31.3634 349.847C34.1161 339.093 35.1645 336.1 38.454 329.604C42.9424 320.742 47.0546 314.662 56.7085 302.615C67.3037 289.393 69.7382 284.258 69.7009 275.216C69.6727 268.36 68.3248 263.91 61.4079 247.841C54.7804 232.444 53.344 230.42 43.1525 222.12C38.1454 218.042 35.3186 214.758 33.8531 211.316C32.9622 209.224 32.8567 208.321 32.8866 203.038C32.9205 197.117 32.9244 197.093 35.7938 186.476C39.5567 172.553 39.7415 171.316 39.4052 162.326C39.0758 153.516 39.4894 151.488 42.0155 149.526C44.2017 147.827 46.0998 147.571 48.4741 148.654C51.0093 149.811 52.4127 152.461 53.0189 157.237C54.1373 166.05 54.4146 167.659 55.2573 170.233C57.658 177.564 62.7102 184.04 68.642 187.389C69.4774 187.861 71.4302 188.669 72.9816 189.184C75.4743 190.013 76.5844 190.119 82.5288 190.097C87.2607 190.08 91.0566 189.802 95.3307 189.162C112.159 186.641 115.866 186.839 129.422 190.982C133.725 192.297 137.522 193.22 138.61 193.214C142.564 193.195 145.859 190.7 148.11 186.021C148.779 184.633 150.591 179.551 152.139 174.727C153.687 169.904 155.563 164.501 156.309 162.722C158.053 158.558 161.949 151.58 165.393 146.449C171.401 137.501 173.569 132.095 174.964 122.582C176.602 111.409 177.309 108.95 179.795 105.764C181.766 103.238 186.448 100.321 192.021 98.1473C194.692 97.1053 197.268 96.0924 197.746 95.8961C198.223 95.6998 200.845 94.6684 203.573 93.604C209.519 91.2832 214.606 88.1688 216.384 85.7605C218.874 82.386 217.894 78.2643 213.729 74.5924C209.252 70.647 203.696 68.5442 196.878 68.2162C191.424 67.9537 187.311 68.725 182.557 70.9026C178.056 72.9641 176.212 74.2567 169.621 79.9704C166.623 82.5696 163.215 85.1855 162.048 85.7842C157.339 88.1994 151.397 88.7262 144.368 87.3517C131.56 84.8478 120.839 77.5057 118.116 69.3744C115.901 62.7602 117.739 56.6989 125.839 43.9065C133.027 32.5527 136.663 25.1301 139.363 16.2958C140.811 11.5598 142.444 3.41379 142.372 1.28854C142.348 0.579865 141.966 2.14856 141.524 4.77475C140.567 10.4574 139.847 13.2447 137.818 19.1273C135.056 27.1339 132.152 32.8324 125.368 43.5519C118.915 53.7505 116.831 58.8479 116.818 64.4736C116.803 71.132 120.51 76.7581 128.04 81.5047C134.734 85.7241 141.999 88.0322 149.793 88.4149C158.505 88.8427 161.798 87.5243 170.272 80.2166C176.903 74.4971 178.872 73.1272 183.332 71.1316C189.266 68.4759 195.564 67.8535 201.691 69.3175C206.32 70.4237 210.033 72.2042 212.948 74.7143C217.261 78.4283 218.311 82.0069 216.038 85.2432C213.73 88.5307 208.808 91.1589 195.429 96.249C186.765 99.545 183.853 101.055 180.925 103.767C177.317 107.11 176.267 110.107 174.557 121.948C173.124 131.87 171.13 136.775 164.427 146.868C158.25 156.17 155.485 162.163 151.529 174.822C148.696 183.889 147.156 187.363 144.902 189.777C142.915 191.903 141.064 192.815 138.732 192.815C137.884 192.815 133.883 191.804 129.841 190.568C119.964 187.55 116.004 186.929 108.567 187.232C105.344 187.363 101.144 187.741 99.2316 188.072C92.3806 189.256 83.2752 190.052 79.5722 189.79C70.0428 189.115 62.7458 184.126 57.977 175.026C55.6158 170.519 54.5435 166.636 53.9021 160.268C53.2928 154.215 52.5025 151.508 50.8162 149.698C47.2091 145.827 40.9827 147.329 39.3336 152.47C38.7786 154.201 38.7078 155.862 38.9404 161.735C39.2963 170.715 39.0055 172.697 35.3654 186.102L32.4874 196.699L32.4471 203.038C32.4102 208.771 32.5022 209.601 33.4126 211.725C34.7805 214.917 37.5726 218.305 41.3797 221.393C49.3394 227.85 53.2424 232.078 55.9603 237.19C57.9761 240.981 65.3118 258.323 67.0285 263.356C70.2768 272.88 70.2056 278.893 66.7504 286.831C65.097 290.631 62.3522 294.593 54.9106 303.925C44.8678 316.519 38.7868 326.232 35.0591 335.634C34.1898 337.825 32.424 343.714 31.1347 348.72C29.1515 356.42 27.7169 360.898 25.8721 365.147C25.646 365.668 25.6885 365.838 25.9992 365.658ZM42.1839 205.191C43.1941 208.989 44.9242 210.986 51.5899 216.045C58.7794 221.502 60.4688 223.821 66.6688 236.745C68.7062 240.992 72.4153 248.072 74.911 252.48C82.8144 266.437 83.6037 268.598 83.2921 275.42C83.1359 278.838 82.8139 280.499 81.7134 283.56C78.6904 291.968 74.5769 297.896 65.4172 307.045C59.0258 313.43 56.9784 315.759 53.679 320.403C49.2096 326.694 46.0625 333.873 44.7155 340.85C44.0121 344.494 44.009 362.837 44.7116 364.773C45.0549 365.719 45.0896 365.344 44.8639 363.137C44.3458 358.078 44.525 344.534 45.1529 341.259C46.4848 334.316 49.6505 327.083 54.0726 320.881C57.4046 316.207 59.5852 313.722 65.8556 307.454C72.631 300.681 76.0958 296.36 78.9161 291.164C82.2806 284.966 83.4744 281.053 83.7231 275.409C84.0446 268.112 83.2822 266.003 75.1506 251.702C72.7851 247.541 69.0868 240.472 66.9322 235.993C60.7799 223.202 59.2585 221.127 51.9922 215.612C46.3698 211.345 44.9229 209.891 43.5638 207.146C41.4335 202.843 42.5224 196.19 45.8746 193.032C48.6811 190.387 50.6851 190.714 58.2326 195.049C65.3196 199.119 66.8281 199.556 73.6326 199.512C78.299 199.481 80.6619 199.213 87.3024 197.96C106.044 194.424 111.866 194.438 119.154 198.035C121.403 199.145 123.175 200.488 125.708 203.002C134.099 211.33 134.753 211.88 137.173 212.637C142.093 214.177 147.962 212.486 152.187 208.312C156.713 203.84 158.132 199.363 159.141 186.375C160.528 168.499 162.518 162.355 170.56 151.113C173.059 147.621 175.88 143.676 176.83 142.346C179.588 138.485 182.129 132.977 184.299 126.158C187.123 117.288 188.692 114.349 192.491 110.813C194.782 108.681 196.526 107.505 199.265 106.247C206.897 102.74 214.457 101.056 221.566 101.279C229.338 101.523 232.653 103.651 241.021 113.768C243.774 117.096 248.204 122.296 250.865 125.322C260.449 136.221 267.395 147.711 269.799 156.641C271.349 162.399 271.733 168.289 271.735 186.33C271.737 209.406 271.14 213.976 266.457 226.756C262.732 236.924 261.17 241.74 258.461 251.417C251.345 276.836 244.55 291.418 232.984 306.09C227.897 312.543 207.125 331.645 199.062 337.284C186.637 345.975 176.977 345.846 156.115 336.713C144.895 331.801 140.84 331.203 135.91 333.731C131.491 335.998 129.804 338.912 125.753 351.278C124.206 356.001 122.364 361.2 121.659 362.831C120.954 364.462 120.535 365.796 120.727 365.796C121.184 365.796 123.349 360.421 125.306 354.426C130.045 339.912 131.549 336.973 135.422 334.658C140.652 331.533 143.828 331.94 156.14 337.317C176.746 346.316 187.04 346.406 199.496 337.693C208.003 331.743 228.762 312.537 233.991 305.781C245.277 291.195 251.952 276.733 258.93 251.755C261.601 242.195 263.156 237.392 266.89 227.165C271.642 214.155 272.17 210.042 272.17 186.067C272.17 168.028 271.844 162.623 270.405 156.852C268.172 147.903 261.101 136.038 251.508 125.147C248.987 122.284 244.77 117.338 242.137 114.155C234.75 105.225 232.079 102.966 227.083 101.422C222.535 100.016 213.562 100.725 205.9 103.097C199.641 105.034 195.432 107.261 192.087 110.404C188.186 114.072 186.854 116.518 184.073 125.135C181.674 132.568 179.178 138.036 176.402 141.937C175.456 143.267 172.757 147.024 170.406 150.285C162.127 161.765 160.112 167.912 158.708 185.966C157.698 198.956 156.279 203.432 151.753 207.903C147.605 212.001 142.179 213.659 137.604 212.227C135.187 211.471 134.53 210.918 126.142 202.593C123.609 200.079 121.837 198.736 119.588 197.626C112.236 193.998 105.808 193.982 86.8684 197.548C80.4454 198.757 77.7991 199.066 73.6326 199.093C67.3436 199.133 65.3461 198.52 58.0382 194.312C50.9121 190.208 48.3309 189.873 45.4376 192.681C42.7645 195.274 41.1736 201.392 42.1839 205.191ZM69.2956 333.285C69.6449 334.185 69.9339 334.96 69.9374 335.009C69.9409 335.058 71.2618 336.036 72.8732 337.183C76.1765 339.535 77.7496 341.627 77.7531 343.672C77.7544 344.437 77.077 347.933 76.2481 351.442C74.5153 358.778 73.8409 362.535 73.8921 364.569C73.9121 365.356 74.2796 363.884 74.7088 361.297C75.138 358.711 76.0966 354.086 76.8391 351.021C77.5816 347.956 78.1892 344.682 78.1892 343.746C78.1892 341.175 76.8986 339.258 73.6643 337.028C67.6764 332.897 67.8474 330.144 74.6836 320.625C83.316 308.603 93.7268 287.611 97.3699 274.88C98.1428 272.179 98.3268 270.434 98.325 265.81C98.3233 260.538 98.227 259.842 97.1043 257.018C95.1775 252.17 92.2504 247.125 87.3857 240.268C80.4297 230.463 78.6231 226.583 78.6231 221.446C78.6231 216.328 81.6765 212.619 88.4212 209.542C96.1652 206.01 104.192 205.31 108.948 207.752C112.781 209.72 113.949 211.551 117.453 221.09C119.68 227.151 122.642 229.035 129.831 228.965C138.243 228.884 150.745 224.401 158.038 218.851C161.286 216.38 164.97 211.772 166.224 208.615C168.234 203.552 168.506 200.824 168.37 187.107C168.236 173.601 168.357 172.31 170.278 166.642C172.231 160.881 174.674 157.257 182.529 148.466C189.18 141.024 190.505 139.021 195.979 128.136C198.214 123.691 199.319 122.015 201.384 119.935C207.974 113.296 217.604 112.45 225.601 117.808C229.024 120.102 247.288 137.539 250.614 141.689C256.113 148.551 260.567 156.685 262.433 163.27C263.681 167.679 264.342 174.125 264.35 181.978C264.368 198.894 262.775 206.25 255.902 221C250.981 231.56 249.982 235.127 247.65 250.475C243.822 275.663 238.644 289.691 228.338 302.789C220.492 312.761 204.117 325.376 193.98 329.257C189.615 330.929 186.678 331.479 182.123 331.478C175.321 331.477 168.876 329.577 162.983 325.837C161.576 324.944 157.977 322.648 154.985 320.735C148.47 316.568 145.626 315.452 140.857 315.187C135.179 314.871 130.259 316.633 122.689 321.691C117.746 324.995 110.781 331.466 109.522 333.925C108.089 336.726 108.242 339.807 110.088 345.358C112.66 353.085 112.987 357.628 111.385 363.351C111.046 364.562 110.854 365.634 110.959 365.733C111.411 366.159 112.421 362.019 112.738 358.435C113.081 354.565 112.456 350.759 110.522 344.949C107.859 336.944 108.54 334.564 115.265 328.378C121.819 322.349 129.378 317.702 135.247 316.094C138.492 315.205 142.98 315.459 146.516 316.731C147.935 317.242 151.701 319.336 154.884 321.383C166.964 329.154 171.23 331.038 178.498 331.812C189.584 332.993 199.127 329.117 214.328 317.256C229.481 305.434 238.652 291.515 243.719 272.652C245.33 266.655 246.805 259.296 248.084 250.884C250.416 235.536 251.415 231.969 256.336 221.409C263.2 206.679 264.793 199.294 264.793 182.203C264.793 165.993 262.87 158.853 255.38 147.261C250.894 140.317 248.647 137.886 235.467 125.711C227.388 118.248 225.967 117.111 222.979 115.719C220.076 114.367 219.1 114.124 215.955 113.968C209.631 113.655 205.118 115.327 200.95 119.526C198.885 121.606 197.781 123.282 195.545 127.727C190.071 138.612 188.746 140.615 182.095 148.057C174.006 157.11 171.751 160.51 169.622 166.872C167.933 171.921 167.542 176.753 167.863 188.634C168.108 197.687 168.044 199.634 167.403 202.604C165.905 209.543 162.798 214.5 157.422 218.525C150.091 224.015 137.96 228.419 129.831 228.541C123.135 228.642 120.072 226.626 117.887 220.681C114.384 211.146 113.217 209.315 109.382 207.338C107.361 206.297 106.488 206.113 102.883 205.973C97.7535 205.773 93.0632 206.769 87.9299 209.148C80.9869 212.366 78.1892 215.899 78.1892 221.446C78.1892 227.022 79.8491 230.665 86.9518 240.677C101.748 261.534 101.767 268.012 87.1158 298.116C82.5336 307.531 79.4928 312.779 74.642 319.643C69.0426 327.565 68.0536 330.088 69.2956 333.285ZM75.7043 162.553C75.825 162.666 76.0393 163.555 76.1808 164.529C76.7103 168.18 79.7966 171.919 83.467 173.355C85.9094 174.311 91.6025 174.928 95.3307 174.641C97.2401 174.494 101.829 173.926 105.529 173.378C109.228 172.831 114.696 172.097 117.68 171.747C132.97 169.954 136.611 167.341 146.095 151.363C150.851 143.35 153.561 137.838 154.566 134.133C157.972 121.584 150.801 110.563 135.243 104.438C127.514 101.395 123.693 100.657 115.51 100.631C109.85 100.612 107.759 100.764 105.529 101.352C98.8987 103.102 93.9281 106.391 91.8416 110.41C90.8717 112.278 90.6061 113.61 90.1127 119.081C89.368 127.334 88.6121 129.616 83.8376 138.017C79.2645 146.063 77.9818 148.729 76.8535 152.534C76.0363 155.288 75.2517 162.131 75.7043 162.553ZM77.3981 152.556C77.9466 150.639 79.6134 146.956 81.3888 143.742C89.5 129.054 90.0055 127.683 90.6964 118.493C91.0388 113.934 91.287 112.723 92.2626 110.844C94.3274 106.867 99.4091 103.506 106 101.758C108.162 101.184 110.286 101.025 115.51 101.042C121.447 101.062 122.743 101.196 126.556 102.181C142.05 106.186 151.658 113.552 154.342 123.483C156.199 130.354 154.211 136.625 145.606 151.037C139.183 161.796 135.527 165.979 130.55 168.264C127.16 169.821 124.045 170.54 117.246 171.338C114.262 171.688 108.794 172.42 105.095 172.966C95.8024 174.336 92.3528 174.559 89.0382 174.005C87.4868 173.745 85.8022 173.473 85.2949 173.401C83.0062 173.073 79.8031 170.766 78.3142 168.372C75.8909 164.475 75.5707 158.948 77.3981 152.556ZM92.3216 160.014C94.5422 163.002 99.9967 163.326 111.318 161.142C120.009 159.466 123.214 158.512 126.63 156.583C132.564 153.233 138.503 145.89 141.811 137.812C143.462 133.781 143.504 128.978 141.917 125.73C140.475 122.779 138.47 120.661 135.276 118.712C130.714 115.929 124.957 115.085 120.359 116.524C116.285 117.799 114.544 119.751 110.517 127.559C106.536 135.276 104.492 138.198 98.6158 144.56C93.696 149.887 91.642 153.489 91.642 156.792C91.642 158.224 91.8998 159.446 92.3216 160.014ZM92.5794 153.924C93.3783 151.719 95.5581 148.738 99.4303 144.555C104.898 138.649 107.056 135.554 110.751 128.318C115.908 118.22 118.807 116.015 126.385 116.429C134.104 116.85 141.115 122.406 142.438 129.153C143.94 136.808 135.001 151.411 125.715 156.471C122.86 158.027 118.081 159.381 110.085 160.901C100.057 162.805 94.8538 162.428 92.7846 159.644C91.9571 158.53 91.8629 155.903 92.5794 153.924ZM94.8967 182.143C95.3741 182.157 98.401 181.791 101.623 181.33C105.833 180.727 111.023 180.403 120.067 180.179C131.342 179.899 132.891 179.777 134.954 179.01C140.203 177.059 142.926 173.715 149.108 161.629C151.334 157.278 154.62 151.243 156.411 148.219C160.922 140.599 162.199 138.126 163.483 134.524C164.581 131.44 165.555 124.522 164.891 124.522C164.702 124.522 164.548 125.499 164.548 126.694C164.548 131.53 162.132 137.544 156.274 147.293C154.542 150.175 151.21 156.273 148.87 160.842C142.466 173.344 139.819 176.621 134.52 178.608C132.445 179.387 130.996 179.5 119.85 179.755C110.773 179.963 105.807 180.272 101.189 180.914C94.8382 181.798 93.3089 182.096 94.8967 182.143ZM100.375 308.135C101.511 310.82 104.265 312.366 107.916 312.367C111.276 312.369 113.819 311.542 121.792 307.857C130.63 303.772 134.185 302.718 139.161 302.71C145.88 302.699 149.797 304.408 160.366 311.96C166.828 316.577 171.762 319.165 176.265 320.298C180.365 321.33 188.799 321.21 193.343 320.055C206.965 316.592 222.131 304.57 228.979 291.805C230.954 288.125 233.074 282.591 234.206 278.167C236.349 269.786 236.661 266.409 237.023 247.612C237.387 228.719 237.529 227.392 239.771 221.778C241.237 218.109 242.32 216.186 245.787 211.095C253.38 199.948 255.524 194.083 255.999 183.162C256.266 177.029 255.711 172.574 254.072 167.675C251.262 159.279 244.705 150.186 238.022 145.415C232.147 141.221 223.526 138.017 218.118 138.017C214.834 138.017 210.694 139.364 207.006 141.633C202.696 144.284 191.271 152.959 187.624 156.349C179.37 164.021 176.762 171.524 177.97 184.123C178.964 194.491 179.073 204.087 178.241 207.958C176.226 217.33 171.611 223.776 163.246 228.905C161.217 230.149 153.992 233.783 147.189 236.98C140.387 240.178 133.161 243.733 131.133 244.881C126.859 247.298 122.039 251.68 119.909 255.084C118.26 257.717 105.65 284.211 103.218 290.15C100.877 295.868 99.883 299.976 99.9146 303.805C99.9298 305.624 100.137 307.573 100.375 308.135ZM101.193 297.67C101.673 295.891 102.779 292.691 103.652 290.559C106.099 284.582 118.702 258.113 120.343 255.503C122.238 252.488 126.705 248.224 130.265 246.033C131.816 245.078 139.139 241.433 146.538 237.934C153.937 234.435 161.651 230.556 163.68 229.313C172.231 224.073 177.262 216.807 178.858 207.392C179.547 203.331 179.444 195.393 178.587 186.327C177.709 177.049 178.064 172.643 180.086 167.737C182.614 161.601 186.573 157.373 197.608 149.025C208.376 140.879 213.123 138.426 218.118 138.426C223.021 138.426 232.018 141.834 237.537 145.784C243.982 150.394 250.428 159.136 253.369 167.256C257.214 177.87 256.1 192.077 250.617 202.351C249.799 203.884 247.602 207.381 245.736 210.12C237.426 222.322 236.592 225.664 236.588 246.794C236.584 261.795 236.066 268.013 234.137 276.238C231.316 288.261 226.323 296.991 217.515 305.3C209.978 312.411 201.159 317.549 192.878 319.652C188.458 320.775 180.771 320.881 176.699 319.875C172.225 318.77 167.284 316.183 160.8 311.551C150.175 303.959 146.37 302.31 139.378 302.265C134.035 302.23 131.046 303.091 121.151 307.515C112.321 311.464 111.084 311.876 107.997 311.902C104.676 311.931 101.907 310.322 100.809 307.726C100.08 306.004 100.267 301.106 101.193 297.67ZM104.687 73.2392C106.384 82.5123 113.199 86.9853 139.812 96.2907C149.967 99.8415 154.301 101.939 157.281 104.748C161.263 108.501 163.804 114.279 164.538 121.25L164.86 124.317L164.918 121.864C164.995 118.594 163.561 113.129 161.69 109.555C158.519 103.5 154.251 100.779 140.246 95.8818C115.844 87.3492 108.719 83.1421 105.908 75.6037C104.789 72.6054 104.702 68.0355 105.693 64.4078C107.177 58.9796 110.324 53.9202 120.062 41.3036C130.317 28.0172 135.211 16.4491 136.497 2.45358C136.844 -1.3291 136.088 1.42267 135.539 5.93735C134.136 17.4792 129.005 28.7476 119.622 40.8938C113.443 48.8931 109.548 54.4019 107.93 57.4284C105.123 62.6808 103.872 68.7826 104.687 73.2392ZM128.04 66.529C129.298 69.4766 130.525 71.1275 133.105 73.3501C139.646 78.984 149.287 80.2758 157.924 76.6756C158.965 76.2413 162.785 74.0583 166.413 71.8243C187.587 58.7857 197.616 58.14 223.273 68.1635C232.309 71.6938 235.917 72.4692 240.203 71.8018C246.899 70.7603 254.242 65.8841 261.819 57.4509C267.555 51.0653 274.32 39.7795 276.645 32.7151C279.71 23.3986 279.331 16.4315 275.001 2.5256C274.594 1.21576 274.169 0.229401 274.058 0.334106C273.947 0.438782 274.641 3.25882 275.602 6.60065C278.29 15.958 278.822 20.727 277.787 26.199C274.716 42.4372 258.964 63.6648 245.494 69.7175C239.097 72.5919 235.147 72.2288 223.601 67.7047C204.887 60.3716 195.314 59.1967 183.48 62.7798C178.246 64.3644 174.1 66.4104 165.952 71.4301C158.115 76.258 154.097 77.8987 149.365 78.2033C141.153 78.7317 132.741 74.3507 129.296 67.7505C127.951 65.1737 127.879 64.8028 127.892 60.5294C127.909 55.1147 128.329 53.8286 133.378 43.7564C138.329 33.8777 142.447 24.5563 144.544 18.4783C147.335 10.3882 149.74 0.204437 148.86 0.204437C148.657 0.204437 148.491 0.688232 148.491 1.27997C148.491 3.39786 146.208 11.9761 143.912 18.4877C141.555 25.1726 138.128 32.8958 132.518 44.1653C128.087 53.0667 127.534 54.7765 127.364 60.114C127.247 63.7919 127.371 64.9619 128.04 66.529ZM129.687 365.781C129.885 365.773 131.116 364.196 132.421 362.276C136.957 355.604 140.995 352.228 146.09 350.848C150.012 349.785 154.483 350.231 164.765 352.707C175.248 355.232 180.085 355.663 185.82 354.581C193.767 353.082 200.017 349.024 209.349 339.304C212.514 336.007 217.448 330.947 220.312 328.061C232.393 315.885 234.723 313.393 238.785 308.308C246.573 298.558 255.341 284.918 261.336 273.222C265.533 265.037 266.847 261.696 271.328 247.817C279.897 221.277 280.133 220.254 280.121 209.581C280.116 205.645 279.879 199.592 279.593 196.131C279.289 192.453 279.099 183.016 279.137 173.435C279.209 154.933 279.01 153.258 275.862 145.742C272.529 137.787 268.249 130.944 260.055 120.47C254.25 113.05 252.308 110.156 249.856 105.267C246.266 98.1101 245.326 92.6519 246.931 88.2767C248.118 85.0383 250.223 82.0474 256.053 75.3093C265.891 63.9412 268.846 60.015 273.899 51.5941C279.603 42.0892 283.194 33.5485 284.49 26.4068C285.361 21.6066 285.368 19.2712 284.527 14.7238C283.821 10.91 280.629 1.09225 279.873 0.408905C279.565 0.130829 279.492 0.195862 279.644 0.613403C283.017 9.84723 284.757 16.5853 284.754 20.3982C284.746 27.9391 280.552 39.3754 273.465 51.1852C268.398 59.6289 265.678 63.2317 255.252 75.3068C247.536 84.2433 245.739 87.5464 245.713 92.8372C245.676 100.21 249.965 108.625 260.787 122.408C270.159 134.347 275.823 144.711 277.893 153.717C278.672 157.104 278.745 158.925 278.695 173.853C278.664 183.212 278.861 192.966 279.154 196.549C279.831 204.847 279.838 215.125 279.167 219.191C278.494 223.271 276.702 229.743 274.183 237.184C273.116 240.333 271.154 246.369 269.82 250.597C268.486 254.825 266.695 260.069 265.839 262.251C262.347 271.156 253.437 286.929 245.395 298.444C238.225 308.71 234.817 312.611 219.878 327.656C217.014 330.54 212.08 335.598 208.915 338.895C199.585 348.614 193.333 352.674 185.389 354.172C179.928 355.202 175.637 354.801 165.199 352.287C149.349 348.469 143.39 349.148 137.126 355.487C134.217 358.431 128.882 365.813 129.687 365.781ZM131.753 281.801C132.526 283.476 134.054 284.433 138.51 286.034C146.928 289.058 151.237 291.678 160.425 299.359C170.42 307.714 176.14 310.608 183.852 311.213C197.41 312.278 211.174 305.489 219.215 293.773C224.175 286.545 226.436 279.209 226.89 268.877C227.22 261.363 226.666 256.513 224.113 244.545C222.21 235.629 222.106 234.789 222.107 228.392C222.108 222.209 222.207 221.339 223.293 217.99C224.952 212.873 227.584 208.343 233.168 200.993C239.123 193.155 240.199 191.418 241.652 187.294C242.597 184.614 242.809 183.246 242.827 179.728C242.862 172.811 240.568 167.499 235.453 162.651C228.284 155.857 218.444 154.962 207.583 160.117C199.183 164.103 194.669 168.974 192.918 175.942C192.358 178.169 192.277 179.978 192.503 185.249C192.873 193.911 193.394 200.914 193.689 201.192C193.976 201.462 193.735 196.661 193.168 190.801C192.577 184.694 192.669 179.102 193.41 176.143C195.097 169.398 199.707 164.469 208.017 160.526C218.698 155.456 227.907 156.321 235.019 163.06C240.012 167.792 242.42 173.242 242.383 179.728C242.345 186.599 240.419 190.604 231.669 202.016C227.141 207.921 224.451 212.672 222.857 217.581C221.756 220.969 221.669 221.758 221.668 228.392C221.668 235.274 221.745 235.91 223.674 244.954C224.777 250.127 225.887 256.147 226.142 258.331C228.396 277.687 222.243 293.95 209.147 303.249C196.574 312.177 181.986 313.354 170.726 306.349C167.595 304.401 166.066 303.234 158.399 296.943C150.982 290.856 147.058 288.56 139.161 285.687C134.435 283.968 132.931 283.023 132.162 281.289C131.314 279.374 131.678 277.301 133.534 273.487C136.771 266.837 143.002 260.068 150.107 255.482C152.262 254.091 157.573 251.196 161.909 249.05C171.313 244.394 172.564 243.677 176.378 240.76C185.481 233.797 192.871 218.659 193.396 205.901L193.573 201.607L193.184 205.642C192.201 215.855 187.631 227.396 181.641 234.796C177.424 240.005 173.57 242.653 161.532 248.613C157.165 250.775 151.843 253.672 149.704 255.053C141.255 260.506 134.118 268.955 131.832 276.21C130.992 278.877 130.975 280.116 131.753 281.801ZM137.802 61.2516C139.289 64.9889 142.063 67.3947 145.992 68.3553C150.966 69.5706 154.553 68.7299 165.471 63.7895C181.397 56.5827 185.772 55.3285 195.142 55.2827C201.908 55.2496 203.087 55.421 215.755 58.2774C230.87 61.6855 235.636 62.1779 241.314 60.9167C253.087 58.3015 266.115 44.6839 270.682 30.2206C272.061 25.8514 272.579 17.9552 271.782 13.4512C270.891 8.42001 268.969 0.0531311 268.808 0.507874C268.722 0.751587 269.289 3.77328 270.068 7.22308C271.325 12.7867 271.484 14.2106 271.476 19.8335C271.468 25.5578 271.352 26.5287 270.28 29.8525C266.311 42.1517 256.331 53.9565 245.916 58.6729C238.32 62.112 234.558 62.0102 216.189 57.8685C203.435 54.9924 202.356 54.8383 195.142 54.8611C185.341 54.8926 181.213 56.061 165.034 63.3818C155.694 67.6082 151.743 68.7483 148.107 68.2641C143.902 67.7047 140.781 65.6718 138.818 62.2134C138.002 60.7748 137.865 59.9136 137.897 56.4335C137.946 51.047 138.771 48.5361 146.158 31.2838C155.719 8.9545 159.079 0.204437 158.094 0.204437C157.917 0.204437 157.429 1.44681 157.011 2.96478C156.078 6.3569 153.811 11.9639 146.212 29.6812C138.693 47.2127 137.642 50.3015 137.384 55.6156C137.243 58.5412 137.362 60.145 137.802 61.2516ZM141.474 365.796C141.736 365.796 142.886 365.236 144.028 364.552C148.531 361.856 154.314 361.366 163.362 362.916C173.374 364.63 180.958 364.702 187.331 363.141C190.43 362.381 196.29 359.812 199.16 357.955C202.943 355.507 208.874 349.712 215.623 341.873C219.302 337.599 225.572 330.72 229.557 326.585C238.907 316.882 241.175 314.183 252.77 298.955C275.569 269.012 275.685 268.809 283.006 245.83C289.492 225.476 289.3 226.366 289.285 216.737C289.273 209.528 289.107 207.614 287.891 200.584C285.89 189.024 285.482 182.79 286.155 174.04C286.459 170.084 286.695 163.719 286.68 159.895C286.646 151.582 285.956 148.392 282.405 140.147C279.471 133.334 276.55 128.488 270.273 120.023C261.783 108.574 258.718 101.957 258.718 95.0782C258.718 88.9993 260.846 83.6255 266.978 74.2223C275.106 61.7595 279.293 54.417 284.01 44.3563C290.222 31.1055 292.29 21.8488 290.816 13.8769C290.308 11.1264 286.482 0.204437 286.026 0.204437C285.863 0.204437 286.692 2.86087 287.871 6.10785C291.398 15.8283 291.634 21.6402 288.867 30.6855C285.887 40.4293 278.229 55.5576 268.917 70.0994C265.399 75.5915 261.941 81.2962 261.232 82.7765C259.288 86.834 258.284 91.0252 258.284 95.0782C258.284 102.471 260.886 108.236 269.548 120.034C276.426 129.403 278.857 133.379 281.725 139.953C286.341 150.532 286.983 155.359 285.85 170.975C284.974 183.051 285.251 188.23 287.456 200.993C288.652 207.914 288.836 209.994 288.848 216.737C288.864 225.898 289.016 225.2 282.576 245.411C275.355 268.071 275.254 268.253 254.794 295.254C239.675 315.206 239.279 315.678 227.533 327.792C224.822 330.588 219.842 336.096 216.467 340.032C204.511 353.977 198.295 359.04 189.517 361.982C183.483 364.005 175.104 364.35 166.501 362.928C155.316 361.082 150.205 361.128 145.587 363.121C143.136 364.178 140.649 365.796 141.474 365.796ZM149.82 53.2822C151.269 55.9587 153.314 56.7766 158.009 56.557C161.145 56.4102 162.847 56.0131 168.887 54.0154C188.8 47.4311 191.869 47.2066 210.982 50.939C220.071 52.7142 222.565 53.0487 228.174 53.2442C233.372 53.4253 235.404 53.3325 237.957 52.7972C243.719 51.5892 248.325 49.1266 253.609 44.4291C258.941 39.6899 262.933 33.3432 264.838 26.581C266.048 22.2818 266.149 14.2813 265.082 7.1564C264.201 1.27667 263.953 0.0412903 263.703 0.276825C263.605 0.370087 263.928 3.01385 264.422 6.15247C265.658 14.0012 265.651 21.7641 264.406 26.172C263.381 29.803 260.788 35.1953 258.679 38.0836C255.04 43.0677 248.924 48.0678 243.521 50.4757C236.603 53.5587 227.759 53.7586 214.67 51.1279C203.397 48.862 200.73 48.4461 195.793 48.1844C187.794 47.7595 183.42 48.6383 167.802 53.8073C157.107 57.3466 152.44 57.0612 150.216 52.731C148.027 48.4706 150.016 39.6772 155.42 29.7249C158.935 23.2514 162.48 18.9698 169.464 12.763C175.644 7.27133 177.358 4.98001 177.814 1.60178C178.004 0.194214 177.93 0.280914 177.206 2.31622C175.93 5.90259 174.905 7.15231 168.814 12.5532C162.052 18.5482 158.483 22.8752 154.986 29.3159C151.046 36.5722 149.264 41.9481 149.046 47.2324C148.889 51.0408 148.976 51.725 149.82 53.2822ZM166.317 285.03C168.119 289.862 172.665 295.099 177.261 297.637C187.857 303.488 202.382 300.471 209.972 290.842C214.116 285.585 215.878 280.306 215.87 273.171C215.859 263.517 211.903 254.507 206.316 251.412C204.641 250.484 203.759 250.276 201.605 250.299C198.242 250.336 194.667 251.893 187.114 256.609C175.398 263.925 169.241 269.108 166.877 273.646C165.198 276.867 164.974 281.428 166.317 285.03ZM167.296 274.091C169.661 269.538 175.126 264.87 186.463 257.718C197.605 250.69 201.634 249.478 205.945 251.859C212.914 255.708 217.289 269.739 214.723 280.012C212.755 287.892 207.161 294.642 199.916 297.879C196.262 299.512 193.128 300.14 188.85 300.097C181.049 300.019 174.219 296.37 169.595 289.811C165.605 284.15 164.828 278.84 167.296 274.091ZM185.052 35.0579C188.335 37.0629 209.96 43.837 217.405 45.1918C222.908 46.1937 230.178 46.264 234.547 45.3578C238.468 44.5444 244.718 41.7154 247.962 39.2863C252.879 35.6026 256.985 29.5032 258.804 23.1765C259.566 20.5291 259.702 18.9179 259.674 12.8816C259.656 8.94553 259.449 4.43698 259.214 2.86255C258.862 0.503784 258.838 0.900055 259.078 5.11172C259.779 17.449 259.044 22.9758 255.922 28.8375C252.594 35.0873 247.854 39.4769 241.142 42.5263C231.346 46.9772 222.108 46.6983 204.924 41.4332C195.803 38.6385 186.935 35.5457 185.486 34.6534C184.949 34.323 184.51 33.6528 184.51 33.1641C184.51 32.6758 185.973 30.2733 187.762 27.8258C193.076 20.5524 194.925 14.7978 194.925 5.53781C194.925 2.60452 194.779 0.20401 194.6 0.203613C194.42 0.203217 194.335 2.43848 194.409 5.17059C194.647 13.926 192.799 19.746 187.371 27.3293C183.754 32.3838 183.277 33.973 185.052 35.0579ZM198.706 365.796C199.698 365.796 206.112 360.898 209.511 357.546C211.447 355.636 215.724 350.868 219.017 346.951C225.285 339.493 227.189 337.401 236.275 327.99C239.326 324.829 243.817 319.692 246.256 316.574C258.155 301.355 261.308 297.53 268.045 290.142C279.272 277.829 282.837 273.166 286.315 266.247C288.289 262.32 297.887 235.905 299.715 229.367C301.996 221.207 301.642 216.188 297.936 204.124C296.631 199.875 295.163 194.627 294.672 192.46C293.357 186.646 293.145 177.928 294.091 168.484C295.266 156.756 294.533 150.433 290.824 140.297C287.236 130.491 285.088 126.583 277.436 115.934C272.334 108.834 269.816 104.157 268.899 100.081C267.104 92.0999 268.999 85.1099 276.739 71.1553C281.902 61.8462 290.019 44.3846 293.253 35.6304C297.876 23.1144 298.235 15.3613 294.662 5.21393C293.692 2.4585 292.744 0.204437 292.554 0.204437C292.366 0.204437 292.887 1.98825 293.714 4.1683C294.541 6.34836 295.516 9.43051 295.881 11.018C296.753 14.8101 296.731 21.2717 295.834 25.3542C293.838 34.4363 285.16 54.5021 275.727 71.8456C269.197 83.852 267.512 89.1551 267.959 96.2899C268.387 103.104 270.063 106.675 278.116 117.936C281.096 122.103 284.472 127.359 285.619 129.617C290.966 140.143 294.292 151.521 294.3 159.311C294.301 160.789 293.99 164.93 293.607 168.513C292.698 177.016 292.963 187.299 294.232 192.869C294.726 195.035 296.212 200.332 297.535 204.64C302.262 220.026 302.126 221.469 293.689 245.37C290.471 254.487 286.969 263.674 285.908 265.786C282.407 272.75 278.892 277.352 267.616 289.733C260.896 297.112 257.928 300.71 245.809 316.165C243.364 319.283 239.497 323.767 237.216 326.128C228.39 335.267 224.366 339.673 218.542 346.575C211.312 355.144 206.797 359.672 202.351 362.812C198.112 365.807 198.126 365.796 198.706 365.796ZM204.65 1.05624C204.826 1.22556 205.359 7.02106 206.208 17.9933C206.452 21.1421 206.925 24.6872 207.26 25.8711C209.344 33.2418 216.55 37.5504 226.821 37.5671C234.752 37.5802 240.505 35.4333 245.748 30.5047C249.479 26.9977 251.338 23.9499 252.718 19.0745C253.435 16.5436 253.628 14.431 253.732 7.97427L253.86 0L253.51 7.76981C252.965 19.8846 251.272 24.495 245.314 30.0958C240.184 34.9188 234.304 37.161 226.821 37.1479C216.985 37.1304 209.641 32.6349 207.721 25.4564C206.96 22.6094 206.721 20.5369 206.202 12.2681C205.628 3.11893 205.3 0.204437 204.846 0.204437C204.461 0.204437 204.335 0.753632 204.65 1.05624ZM208.679 365.796C209.398 365.796 214.989 360.079 222.267 351.903C225.965 347.749 232.409 341.032 236.588 336.977C245.295 328.527 248.12 325.232 254.479 316.109C261.989 305.338 264.683 302.294 278.905 288.506C291.312 276.477 295.443 270.284 301.68 254.36C303.177 250.536 306.215 243.451 308.429 238.616C314.026 226.397 314.482 224.887 314.482 218.578C314.482 212.337 314.251 211.609 309.049 201.402C302.955 189.445 301.549 183.326 302.483 172.826C303.833 157.63 303 152.193 296.449 133.452C293.232 124.249 291.455 120.766 286.069 113.108C278.374 102.167 277.138 99.0322 277.513 91.3978C277.793 85.7008 278.583 83.1597 283.522 72.0762C287.747 62.597 297.034 39.7819 299.213 33.5329C301.973 25.6163 302.332 23.6039 302.317 16.153C302.309 11.9095 302.097 8.72266 301.745 7.56537C299.922 1.56744 299.439 0.204437 299.134 0.204437C298.947 0.204437 299.245 1.50653 299.795 3.09772C301.64 8.43066 302.242 12.601 301.974 18.1978C301.711 23.6673 300.794 27.6491 298.064 35.1687C295.745 41.5567 286.977 62.9086 282.825 72.2778C278.217 82.6743 276.944 87.1002 276.944 92.7202C276.944 99.727 278.44 103.365 285.29 113.009C290.531 120.388 292.945 125.077 295.987 133.786C302.57 152.636 303.321 157.435 302.045 172.458C301.095 183.637 302.447 189.692 308.602 201.811C313.778 212.005 314.048 212.835 314.048 218.578C314.048 224.406 313.501 226.188 308.105 237.959C305.951 242.659 302.828 249.928 301.166 254.112C297.366 263.681 295.064 268.284 291.575 273.299C287.863 278.633 285.212 281.542 274.893 291.603C264.51 301.725 261.213 305.521 254.49 315.087C247.308 325.308 245.219 327.765 236.638 336.089C232.432 340.169 225.778 347.097 221.852 351.483C217.927 355.869 213.256 360.883 211.472 362.626C209.687 364.37 208.431 365.796 208.679 365.796ZM215.116 6.74747C217.489 18.5724 219.786 22.8973 225.058 25.4658C228.251 27.0218 233.179 27.0316 236.67 25.4891C242.266 23.0175 245.799 17.6702 246.939 9.94781C247.561 5.73944 247.998 -0.0494995 247.671 0.255554C247.521 0.39624 247.209 2.6965 246.979 5.36728C246.492 11.0049 245.73 14.1304 243.981 17.6665C240.471 24.7624 231.926 28.1828 225.519 25.0577C220.243 22.4838 217.797 17.8534 215.536 6.159C214.93 3.02365 214.341 0.37088 214.226 0.263336C213.85 -0.092041 214.078 1.57684 215.116 6.74747ZM218.693 363.531C220.061 362.173 223.621 358.596 226.604 355.583C229.588 352.569 235.78 347.011 240.364 343.231C251.553 334.005 252.877 332.476 259.594 321.017C266.39 309.422 269.472 305.807 283.422 293.072C289.17 287.823 295.034 282.19 296.451 280.556C301.991 274.167 306.142 267.395 311.005 256.813C314.349 249.536 317.975 242.971 322.822 235.417C330.862 222.888 332.714 218.242 332.406 211.366C332.257 208.04 332.062 207.3 330.632 204.619C329.721 202.912 327.223 199.568 324.869 196.904C319.842 191.216 317.213 187.151 315.742 182.796C314.802 180.009 314.583 178.341 314.266 171.55C313.8 161.554 313.034 157.936 308.792 145.674C306.99 140.467 304.744 133.163 303.801 129.444C300.847 117.8 299.449 114.658 293.375 106.028C289.379 100.351 288.052 97.7952 287.077 93.9013C286.279 90.7165 286.495 85.2027 287.565 81.3788C288.617 77.6223 296.507 54.8256 300.798 43.143C302.904 37.4077 305.282 30.3228 306.081 27.3989C307.465 22.3333 307.534 21.7359 307.536 14.7217C307.538 9.00888 307.359 6.62845 306.736 4.08936C306.295 2.29001 305.736 0.63382 305.494 0.408905C305.198 0.133698 305.137 0.267456 305.307 0.817871C306.812 5.67239 307.076 7.69781 307.09 14.5173C307.103 21.3302 307.034 21.9289 305.648 26.9899C304.848 29.9138 302.471 36.9987 300.367 42.7341C296.113 54.3283 288.218 77.1696 287.15 80.9698C286.149 84.5349 285.829 90.4363 286.471 93.5177C287.305 97.522 288.752 100.428 292.777 106.181C299.058 115.158 300.398 118.152 303.365 129.838C304.307 133.549 306.563 140.901 308.379 146.175C312.631 158.527 313.345 161.904 313.819 171.917C314.436 184.915 315.346 186.873 327.041 200.377C330.267 204.102 331.751 207.425 331.964 211.403C332.304 217.736 330.287 222.705 322.383 235.008C317.552 242.53 313.369 250.111 310.356 256.813C307.604 262.933 304.029 269.479 301.326 273.348C297.4 278.967 293.298 283.279 282.626 293.004C268.883 305.529 266.168 308.75 258.572 321.549C252.224 332.244 250.584 334.151 241.142 341.814C237.801 344.526 233.626 348.041 231.866 349.625C227.984 353.117 216.186 365.195 216.197 365.664C216.202 365.849 217.325 364.889 218.693 363.531ZM223.298 365.779C223.509 365.788 225.662 363.997 228.083 361.8C233.014 357.324 237.293 354.096 245.265 348.836C248.248 346.867 251.947 344.219 253.483 342.951C256.758 340.25 260.538 335.585 262.483 331.846C263.241 330.388 265.511 325.975 267.527 322.039C273.152 311.059 276.634 306.891 288.661 296.75C306.187 281.971 311.391 275.699 320.139 258.802C322.834 253.598 326.151 247.617 327.512 245.512C333.28 236.584 343.704 225.161 348.644 222.355C353.893 219.375 359.881 218.405 369.115 219.04C375.084 219.45 383.572 220.71 387.789 221.812C389.358 222.222 390.642 222.413 390.642 222.237C390.642 221.392 377.764 219.216 369.141 218.603C356.29 217.69 349.74 219.6 342.579 226.347C333.998 234.433 327.723 243.15 320.335 257.249C310.723 275.593 305.99 281.355 288.224 296.341C276.083 306.582 272.714 310.642 266.894 322.039C262.174 331.282 260.691 333.972 259.003 336.352C256.932 339.272 251.933 343.69 246.997 346.961C237.755 353.087 232.444 357.056 227.739 361.355C225.086 363.779 223.088 365.77 223.298 365.779ZM226.987 2.87155C228.385 5.71735 230.456 7.56537 232.246 7.56537C233.644 7.56537 235.882 5.97336 236.77 4.34741C237.56 2.9014 238.326 0.204437 237.947 0.204437C237.78 0.204437 237.373 1.07874 237.042 2.14688C236.339 4.4202 233.71 7.1564 232.23 7.1564C230.913 7.1564 228.246 4.46558 227.209 2.09085C226.757 1.05502 226.241 0.206909 226.062 0.206116C225.647 0.204071 225.579 0.00692749 226.987 2.87155ZM231.488 365.778C231.667 365.788 233.359 364.645 235.247 363.24C237.134 361.834 240.758 359.488 243.298 358.026C255.713 350.882 259.59 348.082 263.548 343.401C266.843 339.503 268.523 336.608 272.397 328.152C279.104 313.512 282.392 309.44 296.906 297.803C306.107 290.427 313.995 282.936 318.54 277.26C321.542 273.51 323.152 270.824 328.22 261.107C335.715 246.738 338.393 242.847 345.277 236.326C349.978 231.873 350.913 231.187 354.623 229.473C360.275 226.863 364.076 226.179 371.331 226.464C377.476 226.707 383.178 227.857 387.78 229.784C389.189 230.374 390.439 230.764 390.558 230.652C390.958 230.275 385.696 228.313 381.529 227.284C378.398 226.511 375.892 226.218 371.114 226.063C363.271 225.809 359.924 226.4 354.189 229.055C350.483 230.77 349.538 231.462 344.839 235.914C337.964 242.425 335.304 246.29 327.783 260.698C322.777 270.287 321.064 273.15 318.123 276.851C313.704 282.409 305.877 289.829 296.472 297.376C282.019 308.973 278.387 313.476 271.965 327.764C265.534 342.073 261.086 347.033 247.868 354.638C244.885 356.354 240.784 358.826 238.755 360.129C235.033 362.521 230.884 365.746 231.488 365.778ZM241.276 365.793C241.589 365.795 245.139 363.957 249.165 361.709C266.337 352.124 270.544 347.506 279.533 328.378C285.604 315.457 289.64 310.8 304.501 299.567C316.45 290.535 322.401 285.206 327.04 279.384C330.423 275.138 332.398 271.655 336.375 262.92C341.568 251.517 344.553 246.947 350.335 241.551C353.665 238.443 358.173 235.723 361.979 234.525C370.625 231.804 382.215 234.037 388.307 239.598C389.591 240.77 390.642 241.506 390.642 241.232C390.642 240.3 386.183 236.957 383.094 235.573C376.566 232.648 367.998 232.09 361.382 234.158C355.936 235.86 350.009 240.191 345.432 245.813C342.294 249.667 339.73 254.198 335.772 262.876C328.37 279.111 323.942 284.12 302.982 299.978C289.292 310.335 285.044 315.318 279.073 328.024C273.705 339.447 270.458 344.672 265.737 349.488C262.016 353.284 257.811 356.199 248.642 361.342C244.278 363.789 240.964 365.793 241.276 365.793ZM253.51 365.796C254.374 365.796 262.006 360.867 265.528 358.036C272.463 352.459 277.145 346.137 284.005 333.084C292.496 316.929 295.269 313.884 312.559 301.73C325.395 292.708 330.23 288.961 334.48 284.745C339.96 279.308 341.662 276.386 345.508 265.815C346.954 261.841 348.794 257.363 349.597 255.862C352.632 250.192 357.295 245.655 362.427 243.378C366.273 241.672 371.449 241.388 375.095 242.684C381.402 244.924 384.478 251.1 382.646 257.842C381.714 261.276 380.472 263.803 376.518 270.32C372.136 277.543 371.407 279.588 371.643 284.008C371.791 286.791 372.071 287.932 373.049 289.733C374.674 292.724 377.519 296.091 380.41 298.443C385.344 302.457 390.294 306.145 390.495 305.956C390.61 305.848 389.469 304.802 387.96 303.631C378.379 296.195 375.825 293.671 373.484 289.324C372.57 287.627 372.23 286.322 372.095 284.008C371.864 280.042 372.709 277.734 376.962 270.717C378.734 267.793 380.674 264.389 381.272 263.152C386.982 251.344 381.887 241.491 370.04 241.433C364.961 241.408 361.131 242.726 357.052 245.902C351.85 249.953 349.018 254.557 345.099 265.335C341.228 275.98 339.535 278.891 334.046 284.336C329.796 288.552 324.961 292.299 312.125 301.321C295.088 313.297 291.641 317.033 284.074 331.724C275.448 348.471 269.512 355.44 257.457 362.974C254.974 364.526 253.198 365.796 253.51 365.796ZM263.75 365.787C264.527 365.8 270.484 360.819 273.579 357.568C279.434 351.416 282.6 347.009 289.038 336.042C299.197 318.735 302.52 315.597 323.336 303.649C344.273 291.631 349.465 290.548 358.406 296.335C362.935 299.265 377.555 310.613 379.971 313.073C384.507 317.692 385.854 321.743 385.871 330.831C385.877 333.702 386.148 336.804 386.524 338.305C387.195 340.988 390.283 347.794 390.522 347.118C390.598 346.903 389.959 345.297 389.102 343.549C387.042 339.347 386.321 335.916 386.301 330.218C386.27 321.193 384.966 317.311 380.405 312.661C378.166 310.378 368.432 302.743 360.482 297.033C351.241 290.396 345.72 290.787 330.193 299.177C306.324 312.074 299.273 317.78 291.827 330.218C290.413 332.579 287.644 337.195 285.673 340.475C283.703 343.755 280.535 348.414 278.634 350.827C275.202 355.182 268.974 361.437 265.227 364.292C264.153 365.11 263.488 365.783 263.75 365.787ZM272.108 365.796C272.666 365.796 278.24 360.02 281.974 355.572C283.579 353.66 286.944 349.152 289.451 345.553C291.958 341.954 295.425 336.986 297.155 334.512C304.726 323.684 311.732 318.173 324.476 313.02C332.916 309.607 336.242 308.806 342.038 308.788C346.455 308.775 347.333 308.895 349.67 309.83C353.245 311.259 356.471 313.364 359.728 316.39C364.653 320.968 366.145 324.082 367.651 332.926C369.275 342.472 370.748 345.205 378.375 352.834C383.322 357.784 384.985 360.146 386.086 363.794L386.752 366L386.561 364.214C386.216 360.971 384.057 357.676 378.9 352.517C376.258 349.874 373.415 346.744 372.581 345.561C370.495 342.6 369.13 338.658 368.104 332.631C367.044 326.404 365.899 322.825 364.202 320.431C361.051 315.987 354.198 310.721 349.538 309.163C346.324 308.088 340.203 307.894 336.128 308.737C329.361 310.138 319.424 314.134 313.18 317.965C306.328 322.169 301.773 326.694 296.115 334.921C284.242 352.182 282.166 354.891 275.513 361.808C273.404 364.002 271.872 365.796 272.108 365.796ZM279.047 365.796C279.834 365.796 285.156 359.686 294.186 348.416C309.341 329.502 315.903 324.772 327.067 324.718C331.071 324.699 331.632 324.798 334.332 326.003C339.222 328.186 341.843 331.119 348.315 341.649C354.266 351.332 356.213 353.828 362.601 359.968C365.936 363.173 368.86 365.796 369.099 365.796C369.338 365.796 366.707 363.081 363.252 359.764C356.627 353.402 354.751 351.006 348.749 341.24C342.277 330.71 339.656 327.777 334.765 325.594C332.015 324.366 331.554 324.289 327.067 324.306C323.251 324.32 321.727 324.51 319.472 325.254C311.706 327.815 305.857 332.838 295.596 345.758C288.565 354.611 283.064 361.175 280.26 364.058C279.33 365.014 278.784 365.796 279.047 365.796ZM286.36 365.75C286.607 365.663 289.408 362.647 292.585 359.048C295.762 355.449 301.013 350.004 304.252 346.948C309.316 342.17 310.626 341.166 313.591 339.792C316.736 338.333 317.349 338.192 320.535 338.192C323.556 338.192 324.377 338.358 326.603 339.419C329.637 340.865 333.439 344.277 337.082 348.825C339.189 351.454 348.692 363.826 349.935 365.556C350.1 365.787 350.34 365.879 350.467 365.76C350.742 365.499 338.645 349.631 335.04 345.523C330.272 340.09 326.364 337.862 321.226 337.645C315.328 337.396 310.852 339.676 303.55 346.647C297.577 352.349 285.122 366.19 286.36 365.75ZM294.223 365.796C294.463 365.796 295.858 364.554 297.323 363.035C300.628 359.61 305.871 355.198 308.852 353.333C310.092 352.558 312.402 351.522 313.985 351.033C316.536 350.244 317.144 350.195 319.323 350.608C323.941 351.481 327.753 354.306 332.598 360.445C334.329 362.639 335.967 364.786 336.237 365.217C336.508 365.647 336.836 365.906 336.966 365.79C337.449 365.364 332.17 358.57 329.019 355.561C320.693 347.611 313.696 348.023 302.863 357.1C299.043 360.302 293.584 365.796 294.223 365.796ZM295.879 86.286C296.625 90.8338 298.196 94.055 302.714 100.298C308.462 108.239 309.905 111.791 311.007 120.703C312.746 134.778 314.05 139.369 318.824 148.215C324.17 158.122 330.849 166.685 335.044 169.009C336.867 170.018 337.439 170.118 341.387 170.109C345.079 170.101 346.959 169.812 353.972 168.177C358.507 167.119 364.17 165.95 366.557 165.579C371.187 164.859 382.058 164.603 387.604 165.084C390.121 165.303 390.514 165.273 389.34 164.955C388.505 164.729 383.818 164.529 378.925 164.511C368.808 164.473 364.953 164.978 352.469 167.969C346.706 169.35 344.524 169.691 341.387 169.699C337.91 169.708 337.262 169.588 335.478 168.6C331.283 166.276 324.604 157.713 319.258 147.806C314.484 138.96 313.18 134.369 311.44 120.294C310.339 111.382 308.896 107.83 303.148 99.8889C299.411 94.7257 298.14 92.4745 297.074 89.131C296.077 86.0071 296.087 79.7107 297.096 75.2447C299.177 66.0268 304.207 47.9525 307.111 39.2581C312.271 23.8092 313.579 16.0116 312.546 6.86322C312.261 4.34006 311.848 1.76373 311.628 1.13806C311.282 0.152924 311.256 0.219971 311.431 1.63571C312.436 9.72208 312.581 11.9279 312.333 15.3351C311.896 21.322 310.26 28.121 306.677 38.8492C303.714 47.7198 298.473 66.6022 296.714 74.7401C295.987 78.1072 295.543 84.2385 295.879 86.286ZM305.815 81.9922C306.886 85.601 308.703 88.8263 312.496 93.8514C319.487 103.112 320.702 106.728 321.023 119.206C321.278 129.117 321.748 132.632 323.382 136.861C326.476 144.864 334.109 152.502 341.604 155.091C346.285 156.708 348.772 156.93 363.519 157.046C373.041 157.121 379.876 157.377 383.916 157.811C390.689 158.537 390.878 158.55 390.563 158.253C389.792 157.527 376.807 156.736 363.519 156.606C350.42 156.479 348.385 156.37 345.38 155.634C336.583 153.482 329.252 147.449 324.922 138.798C322.373 133.705 322.032 131.847 321.623 120.807C321.379 114.212 321.007 109.711 320.54 107.721C319.56 103.547 317.148 98.9954 312.988 93.4698C306.569 84.9447 305.327 81.4773 305.732 73.2C305.983 68.06 307.439 57.8586 308.884 51.1173C309.27 49.318 310.814 43.6133 312.316 38.4402C315.663 26.9106 316.666 22.5754 317.332 16.7665C317.921 11.631 317.574 1.09064 316.794 0.419159C316.444 0.118591 316.382 0.200775 316.571 0.709076C317.186 2.35547 317.388 12.0681 316.897 16.3575C316.233 22.1636 315.23 26.4967 311.882 38.0313C310.38 43.2043 308.836 48.909 308.45 50.7084C305.684 63.6116 304.507 77.5826 305.815 81.9922ZM307.143 365.796C307.39 365.796 308.459 365.395 309.518 364.905C310.577 364.415 312.566 363.933 313.937 363.834C316.014 363.683 316.834 363.839 318.846 364.767C320.175 365.379 321.358 365.791 321.475 365.681C321.591 365.571 320.662 364.999 319.409 364.411C316.687 363.133 313.093 362.981 310.259 364.024C308.233 364.771 306.43 365.796 307.143 365.796ZM314.473 74.4268C315.583 79.1811 316.914 81.6732 322.552 89.5575C329.734 99.6006 330.717 102.762 331.196 117.365C331.569 128.745 331.903 130.764 334.122 135.079C335.662 138.073 340.205 142.382 343.557 144.026C347.528 145.974 351.408 146.902 361.133 148.228C366.025 148.896 374.597 150.188 380.18 151.101C385.762 152.013 390.424 152.672 390.537 152.564C390.651 152.457 390.282 152.281 389.717 152.172C386.092 151.476 364.15 148.085 358.809 147.396C348.061 146.009 342.735 143.92 338.113 139.277C336.789 137.948 335.179 135.847 334.536 134.608C332.343 130.388 332.003 128.322 331.63 116.956C331.147 102.24 330.21 99.2731 322.713 88.7397C317.998 82.1148 317.105 80.601 315.692 76.8354L314.482 73.6089L314.49 62.5676C314.499 50.0941 314.645 49.0068 318.185 34.9642C321.639 21.2615 322.564 14.8207 322.44 5.31619C322.373 0.153351 322.362 0.223663 322.048 7.76981C321.677 16.6757 320.965 21.6054 318.801 30.2614C316.104 41.048 315.087 45.6972 314.46 50.0949C313.667 55.6585 313.675 71.0113 314.473 74.4268ZM352.002 197.177C353.83 204.41 363.794 209.296 381.529 211.653C384.751 212.082 388.134 212.531 389.047 212.652C390.121 212.794 390.609 212.724 390.431 212.453C390.28 212.223 389.534 212.034 388.772 212.033C388.01 212.032 384.849 211.678 381.746 211.248C364.14 208.805 354.859 204.263 352.616 196.993C352.009 195.024 351.98 194.291 352.425 192.018C354.288 182.49 364.293 175.1 376.681 174.102C380.408 173.802 386.411 174.025 389.34 174.573C390.477 174.785 390.678 174.75 390.139 174.431C388.958 173.731 380.93 173.275 376.523 173.657C366.24 174.547 357.941 179.169 354.081 186.156C351.863 190.171 351.165 193.868 352.002 197.177ZM386.735 284.685C386.942 285.62 387.508 287.092 387.994 287.957C389.08 289.89 390.619 291.734 390.632 291.117C390.638 290.867 390.279 290.222 389.835 289.686C388.462 288.026 387.704 286.336 387.217 283.853C386.652 280.976 387.326 277.347 389.336 272.429C390.752 268.966 391.071 267.227 389.795 269.927C387.161 275.502 385.972 281.237 386.735 284.685Z" fill="#DCD8D5" fill-opacity="0.7"/>
</g>
<defs>
<clipPath id="clip0_230_15">
<rect width="366" height="391" fill="white" transform="translate(0 366) rotate(-90)"/>
</clipPath>
</defs>
</svg>
