<svg width="159" height="56" viewBox="0 0 159 56" fill="none" xmlns="http://www.w3.org/2000/svg">
<path fill-rule="evenodd" clip-rule="evenodd" d="M103.404 38.4058C103.091 38.3688 102.829 38.3488 102.573 38.3028C102.135 38.2258 101.705 38.1078 101.259 38.0668C101.126 38.0538 100.949 38.2258 100.796 38.3348C100.41 38.6088 100.197 38.2098 99.9051 38.1268C99.4981 38.0098 99.0961 37.8768 98.6901 37.7618C98.6211 37.7408 98.5371 37.7788 98.3961 37.7988C98.4971 37.8998 98.5481 37.9528 98.6341 38.0348C98.3611 38.1068 98.0511 38.4618 98.0201 37.8368C98.0201 37.8128 97.9871 37.8068 97.9691 37.7948C97.7951 37.6848 97.6201 37.6358 97.4851 37.9808C96.8711 37.7258 96.2851 37.5668 95.5701 37.8948C95.2531 38.0408 94.9281 37.7848 94.6041 37.7218C94.4451 37.6898 94.2651 37.7268 94.1231 37.6538C93.5881 37.3838 93.0001 37.4548 92.4001 37.5068C91.8831 37.5518 91.3551 37.5528 90.9151 37.1808C90.7171 37.0148 90.4051 37.1088 90.1521 37.0558C90.0091 37.0238 89.8801 36.9308 89.6991 36.8448C89.7291 37.0218 89.7471 37.1298 89.7851 37.3508C89.6241 37.2338 89.5221 37.1618 89.3941 37.0698C89.3391 37.1568 89.2661 37.2758 89.2661 37.2748C88.8801 37.2588 88.5621 37.2418 88.2421 37.2358C87.8451 37.2298 87.4451 37.2358 87.0171 37.2328C86.9061 37.4938 86.9061 37.4938 87.1491 37.6038C87.1321 37.6458 87.1161 37.6878 87.1001 37.7268C86.9111 37.5988 86.7211 37.4708 86.4511 37.2878C86.5311 37.4598 86.5611 37.5268 86.6021 37.6148C86.4821 37.6378 86.3771 37.6578 86.2711 37.6798C86.2941 37.6408 86.3161 37.6038 86.3411 37.5678C86.2271 37.3468 86.1361 37.0878 85.9921 36.9248C85.9331 36.8598 85.7601 37.0248 85.6421 37.0458C85.4501 37.0868 85.2611 37.0978 84.9801 37.1298C84.8281 37.3298 84.5771 37.3108 84.2941 36.9218C84.0131 37.2318 83.7731 37.3058 83.6161 36.8938C83.5871 36.8198 83.5101 36.7798 83.4461 36.7728C83.2031 36.7508 82.9561 36.7458 82.6951 36.7338C82.7001 36.8258 82.7081 36.9318 82.7201 37.1258C82.4921 37.0958 82.2861 36.9598 82.0951 37.0678C81.7171 37.2848 81.5371 37.0388 81.3871 36.7458C81.2791 36.7058 81.0551 37.4078 81.0991 36.7138C81.1011 36.6688 80.9381 36.6628 80.8491 36.6498C80.8001 36.6408 80.7451 36.6428 80.6921 36.6608C80.4941 36.7328 80.2761 36.8938 80.1021 36.8678C79.8521 36.8338 79.6331 36.6678 79.4051 36.5428C79.3581 36.5168 79.3311 36.4348 79.2531 36.3138C79.2171 36.5608 79.1971 36.7038 79.1741 36.8728C78.7391 36.8748 78.3021 36.8758 77.8651 36.8778C77.8551 36.9198 77.8481 36.9628 77.8391 37.0038C77.9051 37.0528 77.9701 37.0988 78.0471 37.1548C77.7621 37.1388 77.4041 37.4018 77.2721 36.9168C77.1071 36.8388 76.9291 36.7768 76.7711 36.6688C76.6251 36.5698 76.5211 36.5188 76.3131 36.7198C76.1701 36.8578 75.9511 36.7648 75.7781 36.7228C75.6781 36.7008 75.6051 36.5818 75.4831 36.4728C75.4481 36.7018 75.4241 36.8748 75.3921 37.0818C75.2561 36.9118 75.2271 36.3658 74.9411 36.8738C74.7961 36.8348 74.6551 36.7968 74.5131 36.7598C74.5001 36.8018 74.4891 36.8448 74.4761 36.8898C74.5081 36.9168 74.5401 36.9448 74.5741 36.9728C74.5581 37.0098 74.5431 37.0428 74.5271 37.0788C74.3561 36.9298 74.1831 36.7828 74.0121 36.6338C73.9641 36.5908 73.9091 36.4798 73.8761 36.5028C73.6591 36.6598 73.4701 36.7278 73.3281 36.4868C73.3191 36.4658 73.2821 36.4568 73.2681 36.4728C72.7761 37.0268 72.4191 36.5858 71.9991 36.6208C71.8041 36.6388 71.6501 36.6508 71.4831 36.5478C71.3571 36.4748 71.1431 36.5168 71.1131 36.9308C70.6781 36.8128 70.2491 36.6978 69.8201 36.5818C69.8071 36.6188 69.7931 36.6528 69.7801 36.6918C69.8131 36.7478 69.8481 36.8068 69.9041 36.9018C69.8231 36.8998 69.7521 36.9298 69.7281 36.8888C69.6211 36.7108 69.5271 36.5118 69.4281 36.3198C69.2551 36.3058 69.0271 36.2878 68.7741 36.2668C68.7661 36.3378 68.7541 36.4608 68.7341 36.6458C68.4191 36.4758 68.1261 35.9258 67.7551 36.8638C67.5281 36.6398 67.3711 36.2778 66.9831 36.7568C66.9011 36.8588 66.6731 36.6208 66.5021 36.5338C66.4821 36.6518 66.4651 36.7428 66.4501 36.8358C66.3881 36.8068 66.2971 36.8118 66.2721 36.7438C66.0931 36.2538 65.9541 36.2298 65.5751 36.4608C65.3921 36.5718 65.1961 36.4818 65.0041 36.5358C64.7961 36.5938 64.5861 36.7028 64.3781 36.8108C64.1681 36.9198 64.0241 36.9058 64.0411 36.4628C63.7061 36.5448 63.3701 36.6298 63.0321 36.6978C62.9711 36.7078 62.9061 36.6558 62.8621 36.5968C62.6721 36.3338 62.4731 36.4468 62.2641 36.7978C62.0701 36.2748 61.2981 36.2738 61.0241 36.6858C60.8521 36.6938 60.7361 36.6938 60.6211 36.7048C60.1611 36.7538 59.6991 36.8088 59.2401 36.8578C58.9451 36.8888 58.6491 36.9238 58.3561 36.9368C58.0671 36.9478 57.7441 37.0368 57.5011 36.9078C56.8251 36.5458 56.0221 37.0328 55.3111 36.9198C54.8731 36.8518 54.4101 36.8838 53.9551 36.9008C53.3911 36.9218 52.8211 36.9928 52.2591 37.0088C51.9331 37.0198 51.6201 36.9468 51.2951 36.9498C51.0111 36.9518 50.7161 37.0298 50.4321 37.0398C49.6331 37.0688 48.8381 37.0918 48.0441 37.0908C47.6691 37.0898 47.3071 37.0078 46.9311 37.0048C46.6911 37.0018 46.4401 37.0698 46.1921 37.1168C46.0191 37.1478 45.8181 37.3058 45.7441 36.9718C45.7321 36.9238 45.5911 36.9208 45.5611 36.9678C45.3621 37.2998 45.1441 36.8288 44.9521 37.2568C44.9441 37.2748 44.8641 37.2588 44.8321 37.2248C44.5281 36.9148 44.1331 36.9738 43.7491 37.0028C43.5461 37.0178 43.3641 36.9308 43.1101 37.2798C42.9381 37.5188 42.5961 37.5478 42.4711 37.0878C42.3931 37.2098 42.3221 37.3218 42.2011 37.5098C42.2281 37.3368 42.2431 37.2498 42.2581 37.1488C41.7361 37.0998 41.2181 37.0018 40.6831 37.0208C40.2261 37.0338 39.7291 37.2788 39.2861 37.2448C38.5571 37.1898 37.7821 37.4278 37.0791 37.1678C36.6621 37.0148 36.1411 37.2048 35.6691 37.2358C34.8271 37.2938 33.9821 37.3708 33.1471 37.3998C32.6241 37.4198 32.1171 37.3338 31.5951 37.3398C30.8751 37.3498 30.1551 37.3608 29.4241 37.4458C28.7931 37.5168 28.1411 37.7448 27.5131 37.7978C26.8341 37.8538 26.1781 37.7538 25.5021 37.7808C24.7441 37.8158 23.9731 37.9308 23.2121 37.9878C22.4201 38.0448 21.6301 38.0818 20.8411 38.1208C20.2521 38.1498 19.6651 38.1578 19.0751 38.1948C18.0761 38.2568 17.0751 38.3338 16.0751 38.4088C15.4441 38.4528 14.8141 38.5078 14.1841 38.5528C14.1311 38.5548 14.0591 38.5548 14.0341 38.5038C13.7581 37.9238 13.3201 38.1598 12.8611 38.2838C12.3821 38.4128 11.8191 38.5178 11.4711 38.2358C10.9121 37.7768 10.2301 38.0748 9.64508 37.8948C9.04208 37.7088 8.34408 37.8078 7.87308 37.1808C7.63708 36.8678 7.57808 36.4278 7.69908 35.8418C7.82408 35.2348 7.88708 34.6218 8.00608 34.0118C8.12908 33.3838 8.26308 32.7478 8.43508 32.1248C8.58308 31.5878 8.81708 31.0738 8.95608 30.5358C9.05408 30.1568 9.27408 29.8828 9.33708 29.4498C9.38408 29.1058 9.65508 28.7458 9.85708 28.3338C9.74708 28.3038 9.64908 28.2498 9.54008 28.2518C8.80208 28.2728 8.06508 28.3008 7.32408 28.3378C6.39308 28.3828 5.45808 28.4558 4.53008 28.4858C4.16908 28.4948 3.82808 28.3108 3.46708 28.4158C2.92408 28.5748 2.64208 28.1278 2.25608 27.8698C1.90808 27.6368 1.74808 27.4618 1.87108 26.7238C1.92108 26.4218 1.86408 26.0698 1.98508 25.7078C2.09508 25.3788 2.20108 25.0478 2.30608 24.7228C2.32108 24.7218 2.27508 24.7228 2.24508 24.7218C2.53608 23.8118 2.82308 22.9058 3.15508 21.8628C2.71508 21.7998 2.36208 21.7498 2.00808 21.7018C1.39008 21.6198 1.12608 21.4548 1.25008 20.4898C1.34608 19.7428 1.49908 18.9928 1.62908 18.2428C1.67008 18.0188 1.70908 17.7958 1.76308 17.5718C1.80908 17.3798 1.86708 17.1868 1.93708 17.0028C2.15208 16.4348 2.38108 15.8738 2.59608 15.3048C2.70608 15.0158 2.79508 14.7158 2.89408 14.4198C2.88208 14.4218 2.81308 14.4368 2.78708 14.4418C2.90008 14.1068 3.01208 13.7588 3.13908 13.4188C3.19908 13.2608 3.36708 13.0458 3.35108 12.9818C3.26108 12.6238 3.42608 12.3848 3.59208 12.1358C3.78408 11.8468 3.98308 11.5668 4.17708 11.2828C4.19708 11.3158 4.21608 11.3498 4.23608 11.3838C4.24408 11.2208 4.25208 11.0588 4.25808 10.9288C4.38208 10.8908 4.53208 10.9078 4.57008 10.8228C4.91408 10.0958 5.36208 10.2158 5.68008 10.2368C5.93308 10.2558 6.21408 10.0108 6.44708 10.1828C6.63108 10.3208 6.85508 10.3998 7.08108 10.3978C7.61508 10.3998 8.15908 10.3468 8.70108 10.2998C9.42908 10.2388 10.1571 10.1828 10.8881 10.0958C11.3781 10.0378 11.8791 9.90085 12.3681 9.85785C13.2211 9.78485 14.0631 9.78485 14.9161 9.70285C15.6161 9.63685 16.3291 9.46685 17.0291 9.39885C17.6881 9.33485 18.3371 9.34785 18.9901 9.32085C19.2391 9.31185 19.4891 9.30285 19.7381 9.28085C21.0551 9.17685 22.3781 9.04885 23.6911 8.97185C24.6011 8.91685 25.4961 8.94885 26.4031 8.91285C26.7451 8.89885 27.1051 8.77185 27.4491 8.74585C27.7311 8.72485 27.9981 8.79785 28.2781 8.79085C28.6381 8.78185 29.0071 8.72685 29.3681 8.70685C30.0391 8.67385 30.7101 8.64885 31.3811 8.61985C32.3441 8.57785 33.3071 8.53085 34.2691 8.49885C34.8551 8.47885 35.4321 8.51485 36.0191 8.48285C37.1811 8.42085 38.3521 8.29485 39.5091 8.26185C40.3201 8.24085 41.1091 8.35985 41.9161 8.36685C42.3811 8.36885 42.8691 8.24585 43.3391 8.23185C43.8761 8.21585 44.4031 8.26485 44.9371 8.27285C45.3951 8.27585 45.8561 8.26785 46.3161 8.25185C47.1321 8.22485 47.9521 8.16985 48.7631 8.16285C49.2691 8.15785 49.7591 8.25485 50.2681 8.24185C51.0651 8.21985 51.8771 8.12685 52.6761 8.09985C53.1621 8.08385 53.6341 8.15185 54.1181 8.15185C54.5251 8.14985 54.9461 8.06885 55.3491 8.07785C56.4181 8.10685 57.4801 8.18185 58.5481 8.20885C59.0051 8.21985 59.4771 8.14585 59.9401 8.13185C60.2931 8.12485 60.6381 8.15485 60.9891 8.15485C61.3891 8.15485 61.7911 8.13585 62.1931 8.13085C62.6851 8.12785 63.1791 8.11985 63.6701 8.12785C63.9631 8.13185 64.2511 8.17285 64.5451 8.18685C65.3921 8.22885 66.2321 8.31485 67.0931 8.27485C67.3681 8.26385 67.5921 8.37585 67.8451 8.40885C68.0041 8.42985 68.1791 8.38685 68.3491 8.36685C68.6211 8.32985 68.8971 8.27485 69.1671 8.25185C69.5431 8.21485 69.9211 8.18185 70.2891 8.18685C70.9311 8.19685 71.5691 8.23885 72.2091 8.26385C73.3501 8.30685 74.4951 8.33985 75.6331 8.39585C75.8151 8.40485 75.9731 8.52185 76.1531 8.55785C76.2641 8.57985 76.3981 8.51785 76.5101 8.54085C76.6251 8.56385 76.7261 8.64485 76.8531 8.71085C77.1791 8.33985 78.1471 8.29085 78.3861 8.66885C78.4811 8.59085 78.5891 8.44085 78.6661 8.44685C79.0951 8.48485 79.5111 8.58285 79.9391 8.61685C80.1541 8.63485 80.3891 8.54185 80.6081 8.53685C81.0011 8.53085 81.3891 8.55185 81.7791 8.56485C82.1511 8.57785 82.5251 8.58285 82.8941 8.61485C83.3061 8.65085 83.7081 8.72985 84.1211 8.76085C84.3161 8.77685 84.5301 8.69485 84.7251 8.70985C84.9021 8.72285 85.0641 8.80885 85.2331 8.85885C85.2691 8.86985 85.3191 8.87785 85.3521 8.84585C85.7551 8.47385 86.0691 8.68985 86.4101 8.76785C86.8411 8.86685 87.2781 9.10885 87.7221 8.95085C88.6391 8.62385 89.4161 9.01185 90.2851 8.89485C90.3701 8.88485 90.4891 8.91085 90.5181 8.99985C90.6881 9.53085 91.0611 9.24885 91.3741 9.21885C91.6661 9.19085 91.9611 9.15585 92.2521 9.14085C92.5811 9.12585 92.9131 9.10885 93.2351 9.12985C93.4371 9.14285 93.6281 9.22685 93.8861 9.29685C94.1211 8.91985 94.3931 9.03785 94.6791 9.21585C94.8201 9.30585 95.0111 9.26285 95.1721 9.30785C95.3211 9.35285 95.4551 9.46385 95.6081 9.49385C95.7491 9.52285 95.9421 9.69485 95.9761 9.29485C96.3171 9.30285 96.6491 9.31085 96.9801 9.31585C97.0671 9.31885 97.1581 9.30385 97.2421 9.31385C97.5301 9.35385 97.8251 9.37385 98.1021 9.45385C98.2601 9.49985 98.3751 9.70685 98.5341 9.74085C98.7841 9.79785 99.0511 9.78785 99.3181 9.76585C99.3811 9.75885 99.4641 9.58385 99.4511 9.60085C99.6991 9.54685 99.8691 9.46985 100.022 9.48485C100.447 9.52285 100.86 9.61385 101.284 9.65285C101.482 9.67385 101.696 9.61885 101.901 9.60785C101.961 9.60385 102.042 9.58685 102.069 9.63685C102.212 9.89085 102.345 10.0268 102.648 9.77385C102.779 9.66285 102.969 9.96985 103.145 9.93285C103.632 9.82885 104.07 9.82885 104.471 10.1418C104.662 10.2938 104.999 10.0848 105.252 10.1198C105.68 10.1788 106.087 10.3268 106.513 10.3918C106.751 10.4268 107.019 10.3318 107.256 10.3748C107.665 10.4458 108.059 10.5808 108.513 10.6988C108.916 10.2528 109.317 10.5258 109.735 10.5468C109.971 10.5588 110.184 10.7748 110.417 10.6988C110.816 10.5738 111.085 11.0978 111.517 10.7258C111.537 10.7108 111.563 10.7238 111.583 10.7358C112.257 11.1748 113.121 10.6988 113.832 10.9798C114.04 11.0638 114.272 11.0588 114.507 11.0978C114.326 11.6678 114.663 11.4668 114.798 11.5628C114.813 11.5758 114.926 11.3588 114.993 11.2488C114.993 11.1768 114.995 11.1048 114.997 11.0338C115.358 11.1638 115.71 11.3168 116.078 11.4128C116.233 11.4528 116.427 11.3488 116.598 11.3458C117.007 11.3358 117.42 11.3108 117.811 11.3718C117.953 11.3938 118.043 11.6478 118.169 11.8128C118.303 11.5338 118.471 11.5978 118.698 11.5588C119.035 11.5038 119.263 11.8138 119.643 11.6468C119.949 11.5148 120.257 11.8548 120.571 11.9588C120.902 12.0678 121.242 12.1708 121.591 12.2248C121.663 12.2358 121.787 12.0228 121.81 11.9968C122.097 11.9808 122.328 11.9418 122.542 11.9668C122.676 11.9848 122.786 12.1068 122.912 12.1708C123.061 12.2448 123.208 12.3148 123.362 12.3728C123.629 12.4678 123.898 12.5398 124.162 12.6428C124.231 12.6708 124.28 12.7658 124.396 12.8928C124.373 12.6208 124.361 12.4728 124.352 12.3818C124.627 12.5158 124.894 12.6438 125.214 12.7988C125.409 12.5158 125.576 12.7638 125.755 12.9338C125.942 13.1138 126.128 13.2988 126.375 13.4368C126.34 13.2818 126.307 13.1258 126.256 12.8828C126.462 12.9378 126.648 12.9878 126.892 13.0518C126.924 13.3828 127.081 13.6618 127.397 13.6608C127.465 13.6608 127.552 13.5478 127.72 13.4178C127.873 13.5238 128.081 13.7448 128.328 13.8148C128.491 13.8618 128.712 13.6898 128.898 13.6208C128.975 13.6698 129.057 13.7318 129.148 13.7758C129.218 13.8098 129.298 13.8228 129.373 13.8418C129.453 13.8638 129.549 13.9488 129.605 13.8938C129.757 13.7448 129.886 13.4558 129.912 13.9438C129.92 14.0268 130.297 13.9088 130.502 13.8798C130.545 13.8748 130.603 13.8148 130.63 13.8348C131.122 14.1918 131.71 14.2068 132.269 14.3128C132.333 14.3238 132.363 14.4538 132.42 14.5078C132.476 14.5598 132.588 14.6348 132.598 14.6158C132.846 14.1238 133.022 14.4208 133.227 14.4688C133.401 14.5078 133.593 14.4828 133.767 14.5248C133.857 14.5488 133.924 14.6598 134 14.7308C133.909 14.8218 133.816 14.9138 133.721 15.0028C133.692 15.0308 133.66 15.0508 133.626 15.1818C133.8 15.1328 133.977 15.0838 134.151 15.0358C134.135 15.0728 134.12 15.1088 134.105 15.1468C134.297 15.2438 134.481 15.3828 134.687 15.4318C135.025 15.5148 135.384 15.5248 135.729 15.5958C136.087 15.6688 136.479 15.5398 136.811 15.8308C137.023 16.0188 137.409 15.8238 137.71 15.8408C137.888 15.8518 138.064 16.0618 138.223 15.9668C138.492 15.8048 138.593 16.0208 138.769 16.1038C138.955 16.1908 139.224 16.0098 139.43 16.0538C140.034 16.1828 140.623 16.3658 141.222 16.5248C141.763 16.6708 142.307 16.8088 142.847 16.9568C142.916 16.9768 142.977 17.0378 143.118 17.1298C142.539 17.4438 142.118 16.9778 141.64 17.4248C141.632 17.4798 141.622 17.5358 141.615 17.5908C141.828 17.6278 142.039 17.7558 142.258 17.6828C142.62 17.5618 142.564 17.8798 142.514 18.2668C142.675 18.2878 142.832 18.3108 142.988 18.3318C143.053 18.1768 143.108 18.0438 143.183 17.8658C143.207 18.4148 143.112 18.5948 142.796 18.6218C142.787 18.7888 142.775 18.9508 142.765 19.0968C142.216 19.0808 141.673 19.0868 141.14 19.0438C140.888 19.0238 140.657 18.8908 140.407 18.8558C140.323 18.8458 140.206 18.9848 140.103 19.1168C140.636 19.5248 141.296 19.5998 141.614 20.3828C141.593 20.4438 141.569 20.5038 141.546 20.5638C141.419 20.5948 141.291 20.6268 141.079 20.6758C141.29 20.8048 141.437 20.8968 141.587 20.9878C141.368 21.3458 140.903 21.3068 140.585 20.8868C140.684 20.8178 140.764 20.7618 140.843 20.7038C140.851 20.6568 140.859 20.6068 140.867 20.5588C140.576 20.5368 140.266 20.3588 139.996 20.5348C139.748 20.7008 139.543 21.2428 139.316 21.6198C139.24 21.5208 139.159 21.4118 139.078 21.3018C139.053 21.3338 139.03 21.3658 139.005 21.3968C139.03 21.5208 139.053 21.6458 139.1 21.8958C138.875 21.7588 138.716 21.6628 138.517 21.5428C138.476 21.9198 138.441 22.2428 138.406 22.5618C137.589 22.5008 136.799 22.4458 136.012 22.3878C135.994 22.4588 135.977 22.5278 135.962 22.5988C136.4 22.7158 136.839 22.8338 137.272 22.9498C137.32 23.0928 137.349 23.3158 137.44 23.4198C137.757 23.7818 138.139 23.9288 138.563 24.0518C139.021 24.1798 139.506 24.1118 139.954 24.2278C140.074 24.2598 140.175 24.3688 140.286 24.4418C140.27 24.5018 140.252 24.5608 140.234 24.6198C140.069 24.6218 139.903 24.6008 139.733 24.6348C139.651 24.6488 139.558 24.7618 139.471 24.8318C139.532 24.8778 139.588 24.9508 139.656 24.9678C140.316 25.1288 140.969 25.2968 141.633 25.4348C142.233 25.5608 142.839 25.6448 143.439 25.7598C143.536 25.7788 143.617 25.8568 143.709 25.9078C143.692 25.9688 143.674 26.0298 143.654 26.0898C142.645 26.0008 141.633 25.9088 140.555 25.8138C140.582 26.2308 140.611 26.6228 140.64 27.0398C140.47 27.0568 140.225 27.0798 139.956 27.1068C139.972 27.2038 139.985 27.2968 140.022 27.5318C138.902 27.5018 137.83 27.4738 136.756 27.4468C136.746 27.4978 136.735 27.5488 136.723 27.6008C136.939 27.9528 137.155 28.3088 137.37 28.6608C137.362 28.6958 137.356 28.7278 137.347 28.7628C137.142 28.7358 136.929 28.7428 136.737 28.6718C136.439 28.5638 136.341 28.7758 136.332 29.2728C135.786 29.2348 135.251 29.1818 134.71 29.1718C134.552 29.1698 134.371 29.2968 134.199 29.3538C133.817 29.4738 133.443 29.5898 133.164 29.1998C133.083 29.0858 132.877 29.1568 132.728 29.1798C132.575 29.2008 132.373 29.3668 132.269 29.2908C132.061 29.1448 131.883 29.1438 131.629 29.3448C131.462 29.4768 131.267 29.4348 131.083 29.5008C130.973 29.5388 130.86 29.6238 130.758 29.7128C130.716 29.7448 130.69 29.8468 130.657 29.9198C130.706 29.9448 130.77 30.0218 130.805 29.9888C131.172 29.6558 131.409 29.8938 131.676 30.1348C131.363 30.1608 131.073 30.2128 130.799 30.1948C130.702 30.1888 130.65 29.9788 130.553 29.9218C130.449 29.8598 130.314 29.8108 130.193 29.8548C130.009 29.9208 129.817 30.1508 129.643 30.1738C129.337 30.2208 129.039 30.1668 128.717 30.1538C128.696 30.3408 128.684 30.4448 128.673 30.5558C128.747 30.4788 128.814 30.4098 128.838 30.3868C128.875 30.5708 128.907 30.7228 128.952 30.9448C128.927 30.9878 128.859 31.1018 128.791 31.2188C128.795 31.2688 128.797 31.3198 128.801 31.3688C129.066 31.2778 129.331 31.1848 129.622 31.0838C129.643 31.1358 129.687 31.2588 129.734 31.3818C129.79 31.3088 129.846 31.2358 129.963 31.0878C130.153 31.2668 130.373 31.5178 130.626 31.6928C130.732 31.7658 130.924 31.7598 131.043 31.6538C131.506 31.2418 131.729 31.3378 131.826 32.0108C131.849 32.1568 131.985 32.2398 132.086 32.2978C132.113 32.3128 132.217 32.1058 132.347 31.9058C132.446 32.0188 132.579 32.2278 132.751 32.3528C132.948 32.4958 133.179 32.5638 133.394 32.6648C133.658 32.7868 133.921 32.9108 134.238 33.0608C134.029 33.3698 133.913 33.5388 133.74 33.7958C134.013 33.8018 134.222 33.8058 134.46 33.8128C134.457 33.4168 134.523 33.0208 134.881 32.9908C135.131 32.9698 135.384 33.3348 135.343 33.5518C135.225 33.5618 135.111 33.5698 134.992 33.5798C134.976 33.6518 134.961 33.7248 134.945 33.7968C135.226 33.9648 135.505 34.1328 135.784 34.3008C135.761 34.3688 135.738 34.4358 135.714 34.5038C135.658 34.4998 135.598 34.5068 135.546 34.4878C135.469 34.4548 135.399 34.4028 135.323 34.3598C135.269 34.5538 135.168 34.7698 135.172 34.9368C135.18 35.1458 135.66 35.0948 135.778 34.9038C135.844 34.8018 135.922 34.7248 135.994 34.6338C135.986 34.8098 135.978 34.9818 135.97 35.1138C136.945 35.3748 137.949 35.6448 138.959 35.9148C138.934 36.0058 138.912 36.0978 138.891 36.1888C138.328 36.0808 137.77 35.9598 137.202 35.8678C136.642 35.7758 136.077 35.7138 135.515 35.6398C135.494 35.7178 135.47 35.7968 135.447 35.8718C135.655 35.9758 135.853 36.1498 136.08 36.1658C136.391 36.1888 136.506 36.4468 136.557 36.8618C136.571 36.9708 136.636 37.0868 136.702 37.1088C137.099 37.2348 137.504 37.3338 137.907 37.4418C137.891 37.5058 137.874 37.5718 137.859 37.6378C136.984 37.4788 136.108 37.3188 135.233 37.1598C135.212 37.2108 135.191 37.2618 135.168 37.3108C135.346 37.5028 135.522 37.6978 135.7 37.8908C135.683 37.9478 135.666 38.0028 135.646 38.0598C135.424 38.0668 135.195 38.1058 134.98 38.0738C134.468 37.9978 133.969 37.8748 133.456 37.8018C133.348 37.7868 133.207 37.9058 133.081 37.9638C133.077 38.0238 133.076 38.0858 133.074 38.1448C133.191 38.1678 133.311 38.1918 133.451 38.2168C133.426 38.2968 133.393 38.4098 133.389 38.4098C132.945 38.3368 132.501 38.2558 132.083 38.0468C132.18 38.0068 132.276 37.9658 132.375 37.9238C132.384 37.8778 132.394 37.8308 132.404 37.7828C132.101 37.7028 131.801 37.6208 131.478 37.5348C131.592 37.7088 131.692 37.8608 131.79 38.0138C131.779 38.0498 131.768 38.0848 131.754 38.1198C131.56 38.0838 131.368 38.0488 131.172 38.0128C131.18 37.9688 131.184 37.9248 131.19 37.8808C131.037 38.0678 130.884 38.2548 130.706 38.4728C130.993 38.5478 131.243 38.6158 131.504 38.6858C131.476 38.7728 131.448 38.8538 131.465 38.8028C131.277 38.8458 131.15 38.8638 131.023 38.9098C130.889 38.9568 130.755 39.0288 130.578 39.1098C130.584 39.1328 130.615 39.2748 130.663 39.4838C130.459 39.4288 130.283 39.3808 130.136 39.3428C130.194 39.2608 130.289 39.1358 130.382 39.0098C130.363 38.9528 130.345 38.8958 130.328 38.8408C130.169 38.9838 130.011 39.1368 129.849 39.2688C129.764 39.3388 129.661 39.4258 129.584 39.4178C128.999 39.3558 128.411 39.3128 127.843 39.1788C127.577 39.1178 127.374 38.8578 127.029 39.1498C126.912 39.2478 126.744 39.0748 126.597 39.0478C126.117 38.9578 125.633 38.8798 125.15 38.7888C124.689 38.6998 124.235 38.5808 123.769 38.5048C123.095 38.3908 122.413 38.2968 121.731 38.2138C121.462 38.1808 121.183 38.1998 120.91 38.1958C120.897 38.2408 120.887 38.2858 120.876 38.3318C120.946 38.3598 121.011 38.4038 121.083 38.4198C121.61 38.5278 122.14 38.6218 122.664 38.7418C122.765 38.7658 122.999 38.6168 122.885 39.0338C123.005 39.0268 123.125 39.0128 123.243 39.0138C123.33 39.0148 123.421 39.0158 123.501 39.0498C123.58 39.0838 123.646 39.1648 123.726 39.2098C123.93 39.3288 124.141 39.4358 124.433 39.5928C124.248 39.7328 124.18 39.7838 124.075 39.8618C124.154 39.9218 124.217 39.9678 124.279 40.0148C124.275 40.0538 124.271 40.0948 124.267 40.1348C124.096 40.1608 123.916 40.2239 123.753 40.2048C123.133 40.1329 122.512 40.0538 121.901 39.9278C121.715 39.8908 121.568 39.6958 121.377 39.5498C121.282 39.7328 121.164 39.8098 120.954 39.7018C120.669 39.5558 120.308 39.6488 119.991 39.5798C119.637 39.5048 119.302 39.3468 118.951 39.2578C118.859 39.2338 118.73 39.3678 118.631 39.3568C117.787 39.2548 116.946 39.1478 116.108 39.0218C115.498 38.9288 114.9 38.7968 114.291 38.7068C113.588 38.6018 112.879 38.5328 112.174 38.4398C111.724 38.3798 111.281 38.2968 110.828 38.2438C109.985 38.1418 109.118 38.1388 108.302 37.9318C107.672 37.7738 107.018 37.8008 106.372 37.7538C105.424 37.6848 104.498 37.5138 103.557 37.4148C102.913 37.3478 102.259 37.3398 101.612 37.2908C101.442 37.2758 101.284 37.1998 101.117 37.1738C101.076 37.1668 101.015 37.2558 100.856 37.3958C101.273 37.4588 101.599 37.5118 101.924 37.5608C102.271 37.6108 102.618 37.6708 102.966 37.7068C103.51 37.7648 104.065 37.7788 104.602 37.8678C104.968 37.9268 105.307 38.1018 105.664 38.1968C105.784 38.2258 105.928 38.1718 106.061 38.1448C106.741 38.0018 107.353 38.1548 107.929 38.4608C107.975 38.4868 108.054 38.4138 108.113 38.4088C108.199 38.4068 108.282 38.4238 108.368 38.4328C108.355 38.5148 108.343 38.5978 108.331 38.6808C108 38.7158 107.668 38.7618 107.339 38.7858C106.985 38.8098 106.631 38.8308 106.283 38.8198C106.153 38.8158 106.05 38.6648 105.92 38.6598C105.3 38.6338 104.675 38.6408 104.056 38.6158C103.955 38.6118 103.837 38.5448 103.79 38.4308C103.656 38.1168 103.515 38.1578 103.404 38.4058ZM96.2651 36.7678C96.3341 36.8288 96.3941 36.9098 96.4691 36.9488C96.7311 37.0828 96.9981 37.2058 97.2651 37.3288C97.3031 37.3458 97.3481 37.3398 97.3901 37.3288C97.7031 37.2388 98.0171 37.1458 98.4051 37.0308C98.2531 36.9318 98.1531 36.8058 98.0291 36.7958C97.5851 36.7618 97.1311 36.7668 96.6811 36.7608C96.5461 36.7578 96.4081 36.7708 96.2691 36.7748C95.8291 36.5938 95.3561 36.5908 94.8831 36.5888C94.8671 36.6718 94.8541 36.7528 94.8401 36.8338C95.3161 36.8108 95.7911 36.7898 96.2651 36.7678ZM139.743 17.1348C139.78 17.2078 139.806 17.3338 139.857 17.3428C140.277 17.4178 140.702 17.4748 141.126 17.5208C141.254 17.5338 141.393 17.4848 141.527 17.4648C141.536 17.4078 141.544 17.3508 141.555 17.2958C141.08 16.7468 140.38 17.1438 139.743 17.1348ZM113.566 37.1248C113.556 37.1818 113.546 37.2358 113.539 37.2888C114.068 37.4298 114.599 37.5748 115.11 37.7108C115.104 37.1078 115.487 37.8128 115.58 37.3428C115.336 37.2788 115.092 37.2128 114.784 37.1288C114.427 37.1308 113.996 37.1278 113.566 37.1248ZM98.6141 36.9068C98.6031 36.9768 98.5911 37.0508 98.5811 37.1218C98.6061 37.1408 98.6311 37.1688 98.6601 37.1748C99.2561 37.2788 99.8491 37.3968 100.452 37.4658C100.569 37.4828 100.726 37.3138 100.867 37.2318C100.861 37.1958 100.856 37.1648 100.85 37.1288C100.104 37.0548 99.3591 36.9808 98.6141 36.9068ZM88.7181 36.1928C88.9041 36.3258 88.9701 36.8378 89.3361 36.4068C89.3731 36.3628 89.4421 36.4028 89.4971 36.4048C89.8131 36.4168 90.1291 36.4318 90.4451 36.4448C90.4581 36.3738 90.4711 36.3048 90.4831 36.2338C89.9221 36.0898 89.3311 36.0968 88.7181 36.1928ZM119.043 38.6008C119.053 38.5728 119.061 38.5428 119.069 38.5168C118.976 38.3198 118.887 38.1238 118.754 37.8388C118.522 37.8058 118.201 37.7588 117.884 37.7168C117.866 37.7838 117.851 37.8538 117.836 37.9218C117.978 37.9478 118.125 37.9568 118.258 38.0048C118.374 38.0448 118.481 38.1168 118.583 38.1958C118.741 38.3208 118.891 38.4638 119.043 38.6008ZM92.5421 36.3268C92.8621 36.7408 93.5181 36.7958 93.9401 36.4638C93.4331 36.4138 92.9871 36.3698 92.5421 36.3268ZM131.108 37.5058C130.378 37.1388 130.329 37.1338 130.088 37.4108C130.629 37.8218 130.9 37.8488 131.108 37.5058ZM138.305 18.7268C138.304 18.7848 138.3 18.8408 138.298 18.8988C138.489 18.9498 138.677 18.9998 138.865 19.0508C138.894 18.9748 138.921 18.8988 138.948 18.8218C138.845 18.7388 138.752 18.6108 138.636 18.5878C138.542 18.5678 138.416 18.6768 138.305 18.7268ZM119.822 37.9898C119.547 37.9558 119.272 37.9208 118.998 37.8838C118.983 37.9498 118.969 38.0148 118.956 38.0798C119.243 38.0578 119.431 38.5268 119.822 37.9898ZM85.9671 35.9288C85.9561 35.9908 85.9451 36.0508 85.9321 36.1148C86.2621 36.1198 86.5911 36.1238 86.9201 36.1308C86.9361 36.0418 86.9491 35.9548 86.9641 35.8678C86.6321 35.8878 86.3001 35.9078 85.9671 35.9288ZM127.692 30.5998C127.869 30.7698 128.035 30.9318 128.238 31.1298C128.22 30.6058 127.919 30.3278 127.692 30.5998ZM135.193 36.4388C135.524 36.8528 135.576 36.8218 135.675 36.2368C135.504 36.3098 135.348 36.3738 135.193 36.4388ZM120.669 38.2948C120.684 38.2268 120.702 38.1578 120.717 38.0878C120.498 38.0768 120.279 38.0668 120.06 38.0568C120.044 38.1338 120.03 38.2128 120.014 38.2908C120.233 38.2928 120.45 38.2948 120.669 38.2948ZM84.0601 35.8218C84.0491 35.9038 84.0391 35.9848 84.0261 36.0638C84.2751 36.0348 84.5241 36.0028 84.7711 35.9708C84.7791 35.9148 84.7861 35.8548 84.7931 35.7978C84.5491 35.8058 84.3051 35.8138 84.0601 35.8218ZM115.894 37.4008C115.883 37.4498 115.872 37.4988 115.86 37.5498C116.094 37.7118 116.348 37.7598 116.654 37.5158C116.4 37.4788 116.147 37.4398 115.894 37.4008ZM117.614 37.8748C117.629 37.8058 117.647 37.7358 117.662 37.6648C117.42 37.6258 117.177 37.5848 116.935 37.5448C116.927 37.5918 116.918 37.6418 116.91 37.6888C117.146 37.7498 117.38 37.8128 117.614 37.8748ZM141.98 18.3418C141.978 18.1898 142.009 17.9238 141.968 17.9118C141.854 17.8768 141.707 17.9418 141.574 17.9708C141.571 18.0148 141.567 18.0598 141.563 18.1048C141.678 18.1698 141.796 18.2358 141.98 18.3418ZM138.602 20.6778C138.573 21.3258 138.648 21.4488 139.003 21.2438C138.862 21.0438 138.745 20.8778 138.602 20.6778Z" fill="white"/>
<path fill-rule="evenodd" clip-rule="evenodd" d="M113.473 39.283C113.928 38.998 114.286 39.147 114.647 39.266C114.688 39.281 114.74 39.378 114.728 39.418C114.705 39.503 114.625 39.648 114.597 39.645C114.231 39.59 113.868 39.518 113.506 39.439C113.486 39.434 113.486 39.355 113.473 39.283Z" fill="white"/>
<path fill-rule="evenodd" clip-rule="evenodd" d="M110.391 39.036C110.476 38.912 110.558 38.73 110.604 38.734C110.881 38.748 111.15 38.791 111.412 38.864C111.46 38.877 111.464 39.061 111.49 39.166C111.407 39.197 111.316 39.269 111.244 39.255C110.978 39.203 110.718 39.123 110.391 39.036Z" fill="white"/>
<path fill-rule="evenodd" clip-rule="evenodd" d="M139.601 36.2017C140.213 36.3657 140.825 36.5287 141.437 36.6947C141.435 36.7087 141.433 36.7237 141.43 36.7377C140.806 36.6257 140.182 36.5117 139.56 36.3997C139.574 36.3347 139.59 36.2677 139.601 36.2017Z" fill="white"/>
<path fill-rule="evenodd" clip-rule="evenodd" d="M132.179 39.2399C132.072 39.3179 132.018 39.3579 131.925 39.4259C131.979 39.4639 132.016 39.4819 132.045 39.5149C132.076 39.5439 132.099 39.5889 132.144 39.6579C132.078 39.7179 132.024 39.7929 132.006 39.7789C131.89 39.6959 131.782 39.5929 131.733 39.3919C131.586 39.4449 131.441 39.4959 131.276 39.5549C131.626 38.9609 131.626 38.9609 132.179 39.2399Z" fill="white"/>
<path fill-rule="evenodd" clip-rule="evenodd" d="M109.554 38.8729C109.306 38.8859 109.116 38.8939 108.876 38.9089C109.237 38.3099 109.237 38.3099 109.554 38.8729Z" fill="white"/>
<path fill-rule="evenodd" clip-rule="evenodd" d="M140.153 20.748C140.279 20.913 140.386 21.054 140.488 21.188C139.987 21.373 139.954 21.333 140.153 20.748Z" fill="white"/>
<path d="M27.0625 13.3867C26.9583 13.4518 26.8477 13.4909 26.7305 13.5039C26.6133 13.5169 26.4896 13.5365 26.3594 13.5625C26.2422 13.5755 26.1315 13.6016 26.0273 13.6406C25.9232 13.6797 25.8451 13.7513 25.793 13.8555C25.6628 13.7253 25.5195 13.6146 25.3633 13.5234C25.207 13.4323 25.0508 13.3346 24.8945 13.2305C24.7643 13.2695 24.6341 13.3216 24.5039 13.3867C24.3737 13.4518 24.2435 13.4844 24.1133 13.4844C24.0221 13.4844 23.931 13.4518 23.8398 13.3867C23.7357 13.4648 23.612 13.5299 23.4688 13.582C23.3385 13.6211 23.1953 13.6602 23.0391 13.6992C22.8958 13.7383 22.7591 13.7904 22.6289 13.8555C22.5117 13.9206 22.4271 14.0182 22.375 14.1484C22.349 14.0833 22.2839 14.0638 22.1797 14.0898C22.0885 14.1159 22.0365 14.0833 22.0234 13.9922C21.6068 14.1354 21.1836 14.2591 20.7539 14.3633C20.3242 14.4674 19.8945 14.5781 19.4648 14.6953C19.0352 14.8125 18.612 14.9427 18.1953 15.0859C17.7786 15.2292 17.375 15.4049 16.9844 15.6133C16.9714 15.6263 16.9648 15.6458 16.9648 15.6719C16.9648 15.8021 16.9844 15.9258 17.0234 16.043C17.0625 16.1602 17.0951 16.2708 17.1211 16.375C16.8867 17.1693 16.7305 17.9766 16.6523 18.7969C16.5742 19.6172 16.4701 20.4245 16.3398 21.2188V21.2969C16.3398 21.362 16.3659 21.4141 16.418 21.4531C16.4701 21.4792 16.4961 21.5312 16.4961 21.6094L16.4766 21.6484C16.4115 21.6875 16.3659 21.7461 16.3398 21.8242C16.3138 21.8893 16.3008 21.9609 16.3008 22.0391C16.3008 22.0911 16.3138 22.1693 16.3398 22.2734C16.1185 23.0156 15.9688 23.7708 15.8906 24.5391C15.8255 25.3073 15.7409 26.0755 15.6367 26.8438L15.4609 28.1328C15.4349 28.2109 15.4089 28.2891 15.3828 28.3672C15.3698 28.4323 15.3633 28.5039 15.3633 28.582C15.3633 28.9987 15.3893 29.4089 15.4414 29.8125C15.5065 30.2031 15.526 30.6068 15.5 31.0234C15.6172 31.2057 15.6758 31.3815 15.6758 31.5508C15.6758 31.6159 15.6693 31.681 15.6562 31.7461C15.6562 31.8112 15.6497 31.8763 15.6367 31.9414C15.806 32.1107 16.0013 32.2279 16.2227 32.293C16.457 32.3711 16.6654 32.4883 16.8477 32.6445V32.7227C16.8477 32.8529 16.8281 32.9766 16.7891 33.0938C16.75 33.224 16.7174 33.3542 16.6914 33.4844C16.6654 33.5885 16.6328 33.7383 16.5938 33.9336C16.5677 34.1289 16.5286 34.2591 16.4766 34.3242C16.4115 34.4154 16.3138 34.4935 16.1836 34.5586C16.0664 34.6367 15.9492 34.6758 15.832 34.6758C15.793 34.6758 15.7344 34.6562 15.6562 34.6172C15.5911 34.5781 15.5391 34.5456 15.5 34.5195C15.4349 34.5195 15.3503 34.5521 15.2461 34.6172C15.1419 34.6823 15.0378 34.7148 14.9336 34.7148C14.8815 34.7148 14.8359 34.7083 14.7969 34.6953C14.7578 34.6953 14.7122 34.6823 14.6602 34.6562C14.6081 34.526 14.5299 34.4089 14.4258 34.3047C14.3346 34.2135 14.224 34.1224 14.0938 34.0312C14.1068 33.849 14.0742 33.7122 13.9961 33.6211C13.918 33.5299 13.8398 33.4128 13.7617 33.2695C13.7357 33.0872 13.7096 32.8789 13.6836 32.6445C13.6706 32.4102 13.5729 32.2409 13.3906 32.1367C13.4557 32.0456 13.4883 31.9219 13.4883 31.7656C13.4883 31.7005 13.4753 31.6289 13.4492 31.5508C13.4362 31.4727 13.3971 31.4141 13.332 31.375V31.3359C13.319 31.2708 13.3385 31.2253 13.3906 31.1992C13.4557 31.1602 13.4883 31.1081 13.4883 31.043V30.9648C13.3971 30.5482 13.3516 30.112 13.3516 29.6562C13.3516 29.2266 13.3646 28.8034 13.3906 28.3867C13.4167 27.957 13.4167 27.5273 13.3906 27.0977C13.4688 27.0326 13.5273 26.9284 13.5664 26.7852C13.6185 26.6419 13.6576 26.4857 13.6836 26.3164C13.7096 26.1471 13.7227 25.9844 13.7227 25.8281C13.7357 25.6589 13.7487 25.5221 13.7617 25.418C13.8268 24.6758 13.931 23.9466 14.0742 23.2305C14.2174 22.5013 14.3021 21.7591 14.3281 21.0039C14.3932 20.8997 14.4323 20.763 14.4453 20.5938C14.4583 20.4245 14.4648 20.2487 14.4648 20.0664C14.4648 19.8711 14.4779 19.6823 14.5039 19.5C14.5299 19.3177 14.582 19.1615 14.6602 19.0312C14.6602 18.6667 14.6927 18.3021 14.7578 17.9375C14.8229 17.5599 14.8555 17.1823 14.8555 16.8047C14.8555 16.6224 14.8359 16.4336 14.7969 16.2383C14.6667 16.1862 14.5495 16.1602 14.4453 16.1602C14.3021 16.1602 14.1523 16.1927 13.9961 16.2578C13.8529 16.3099 13.7487 16.3945 13.6836 16.5117C13.3971 16.5247 13.1172 16.5703 12.8438 16.6484C12.5703 16.7266 12.2969 16.7656 12.0234 16.7656H11.8281C11.776 16.7656 11.7174 16.7591 11.6523 16.7461C11.5612 16.7852 11.4635 16.8177 11.3594 16.8438C11.2682 16.8698 11.2292 16.9479 11.2422 17.0781C10.8385 17.1172 10.4414 17.2018 10.0508 17.332C9.67318 17.4622 9.29557 17.6055 8.91797 17.7617C8.54036 17.9049 8.16276 18.0417 7.78516 18.1719C7.39453 18.3021 6.9974 18.3867 6.59375 18.4258C6.45052 18.4909 6.35938 18.6276 6.32031 18.8359C6.03385 18.8099 5.79297 18.7383 5.59766 18.6211C5.40234 18.5039 5.17448 18.3932 4.91406 18.2891C4.83594 18.0156 4.79688 17.7552 4.79688 17.5078C4.79688 17.1823 4.86198 16.8698 4.99219 16.5703C5.1224 16.2708 5.33073 16.0495 5.61719 15.9062C5.68229 15.9193 5.74089 15.9323 5.79297 15.9453C5.84505 15.9453 5.90365 15.9453 5.96875 15.9453C6.17708 15.9453 6.38542 15.9062 6.59375 15.8281C6.80208 15.75 7.01693 15.7109 7.23828 15.7109C7.30339 15.7109 7.375 15.7305 7.45312 15.7695C7.54427 15.7174 7.66146 15.6784 7.80469 15.6523C7.9349 15.6133 8.05859 15.5807 8.17578 15.5547C8.30599 15.5156 8.42318 15.4635 8.52734 15.3984C8.63151 15.3333 8.69661 15.2422 8.72266 15.125C8.78776 15.1771 8.85938 15.2096 8.9375 15.2227C9.01562 15.2357 9.09375 15.2422 9.17188 15.2422C9.34115 15.2422 9.51693 15.2096 9.69922 15.1445C9.88151 15.0794 10.0247 14.9753 10.1289 14.832C10.2201 14.9362 10.3503 14.9883 10.5195 14.9883C10.7018 14.9883 10.8776 14.9427 11.0469 14.8516C11.2292 14.7474 11.4049 14.6953 11.5742 14.6953C11.7044 14.6953 11.8021 14.7409 11.8672 14.832C12.0104 14.7148 12.1797 14.6237 12.375 14.5586C12.5703 14.4935 12.7656 14.4349 12.9609 14.3828C13.1693 14.3307 13.3581 14.2721 13.5273 14.207C13.7096 14.1419 13.8529 14.0508 13.957 13.9336C14.0221 13.9466 14.1263 13.9531 14.2695 13.9531C14.4909 13.9531 14.6992 13.9271 14.8945 13.875C15.1029 13.8099 15.3112 13.7513 15.5195 13.6992L15.9297 13.6602C16.0339 13.6471 16.125 13.6146 16.2031 13.5625C16.2943 13.5104 16.3854 13.4648 16.4766 13.4258C16.5677 13.3867 16.6589 13.3542 16.75 13.3281C16.8542 13.3021 16.9779 13.2956 17.1211 13.3086C17.4336 13.1393 17.7656 13.0091 18.1172 12.918C18.4688 12.8268 18.8268 12.7487 19.1914 12.6836C19.556 12.6055 19.9141 12.5208 20.2656 12.4297C20.6172 12.3255 20.9492 12.1758 21.2617 11.9805H21.3203C21.5807 11.9805 21.8346 11.9349 22.082 11.8438C22.3424 11.7526 22.5833 11.6289 22.8047 11.4727C22.8438 11.4857 22.8828 11.4922 22.9219 11.4922H23.0586C23.4232 11.4922 23.7747 11.4401 24.1133 11.3359C24.4648 11.2318 24.8294 11.1797 25.207 11.1797C25.4284 11.1797 25.6042 11.2122 25.7344 11.2773C25.8646 11.3294 25.9818 11.401 26.0859 11.4922C26.1901 11.5703 26.3008 11.6484 26.418 11.7266C26.5352 11.8047 26.6849 11.8633 26.8672 11.9023C26.9844 12.1237 27.043 12.3646 27.043 12.625C27.043 12.8724 27.0495 13.1263 27.0625 13.3867ZM46.0859 28.6016C46.0599 28.7969 45.9883 28.9466 45.8711 29.0508C45.7669 29.1549 45.6432 29.2526 45.5 29.3438C45.4349 29.3307 45.3698 29.3242 45.3047 29.3242C45.2526 29.3112 45.194 29.3047 45.1289 29.3047C44.7253 29.2917 44.3411 29.3438 43.9766 29.4609C43.625 29.5781 43.2604 29.6628 42.8828 29.7148C42.7526 29.7409 42.6289 29.7539 42.5117 29.7539C42.4076 29.7409 42.2969 29.7474 42.1797 29.7734C41.763 29.8385 41.3203 29.8906 40.8516 29.9297C40.3828 29.9688 39.9141 30.0208 39.4453 30.0859C38.9766 30.138 38.5143 30.2096 38.0586 30.3008C37.6159 30.3789 37.1992 30.4961 36.8086 30.6523C36.7695 30.6263 36.7305 30.6003 36.6914 30.5742C36.6523 30.5352 36.6068 30.5156 36.5547 30.5156C36.4245 30.5156 36.3008 30.5352 36.1836 30.5742C36.0664 30.6133 35.9492 30.6263 35.832 30.6133C35.7018 30.6914 35.5586 30.75 35.4023 30.7891C35.2591 30.8151 35.1094 30.8411 34.9531 30.8672C34.8099 30.8802 34.6667 30.9062 34.5234 30.9453C34.3802 30.9844 34.2435 31.056 34.1133 31.1602C34.0091 31.1081 33.8789 31.082 33.7227 31.082C33.5794 31.069 33.4818 31.0169 33.4297 30.9258C33.1302 31.069 32.8112 31.1602 32.4727 31.1992C32.1471 31.2383 31.8151 31.2513 31.4766 31.2383C31.2552 31.2253 31.0013 31.1927 30.7148 31.1406C30.4284 31.0885 30.1419 31.0169 29.8555 30.9258C29.569 30.8216 29.3021 30.7044 29.0547 30.5742C28.8073 30.431 28.6185 30.2617 28.4883 30.0664C28.3971 29.9362 28.332 29.793 28.293 29.6367C28.2539 29.4805 28.1628 29.3633 28.0195 29.2852C28.0586 28.9857 28.1042 28.6927 28.1562 28.4062C28.2083 28.1198 28.2604 27.8268 28.3125 27.5273C28.5729 27.306 28.8203 27.0716 29.0547 26.8242C29.2891 26.5768 29.5104 26.3164 29.7188 26.043C29.9661 25.9258 30.194 25.7826 30.4023 25.6133C30.6237 25.444 30.8385 25.2747 31.0469 25.1055C31.2682 24.9232 31.4831 24.7474 31.6914 24.5781C31.9128 24.4089 32.1471 24.2591 32.3945 24.1289C32.4336 24.0378 32.4857 23.9661 32.5508 23.9141C32.6289 23.849 32.707 23.7904 32.7852 23.7383C32.8633 23.6732 32.9349 23.6081 33 23.543C33.0651 23.4648 33.1107 23.3737 33.1367 23.2695C33.5924 22.9961 33.9896 22.651 34.3281 22.2344C34.6667 21.8177 34.888 21.349 34.9922 20.8281C34.7708 20.6458 34.5169 20.5286 34.2305 20.4766C33.957 20.4115 33.6706 20.3659 33.3711 20.3398C33.1107 20.3268 32.8372 20.3268 32.5508 20.3398C32.2773 20.3529 31.9974 20.3464 31.7109 20.3203C31.4245 20.4115 31.125 20.4701 30.8125 20.4961C30.513 20.5221 30.2135 20.5482 29.9141 20.5742C29.6146 20.5872 29.3151 20.6263 29.0156 20.6914C28.7292 20.7435 28.4492 20.8477 28.1758 21.0039C28.1237 21.0039 28.0716 20.9974 28.0195 20.9844C27.9805 20.9714 27.9349 20.9648 27.8828 20.9648C27.4661 20.9518 27.0755 21.0365 26.7109 21.2188C26.3464 21.388 25.9883 21.5573 25.6367 21.7266C25.6107 21.7786 25.5977 21.8177 25.5977 21.8438C25.5977 21.9219 25.6107 22 25.6367 22.0781C25.6758 22.1432 25.6953 22.2148 25.6953 22.293C25.6823 22.306 25.6758 22.319 25.6758 22.332C25.6758 22.3451 25.6693 22.3581 25.6562 22.3711C25.6432 22.4362 25.6237 22.4948 25.5977 22.5469C25.5846 22.599 25.5651 22.6576 25.5391 22.7227C25.3958 23.1393 25.3177 23.5495 25.3047 23.9531C25.2917 24.2917 25.2917 24.6237 25.3047 24.9492C25.3177 25.2747 25.3177 25.6068 25.3047 25.9453C25.2786 26.362 25.2135 26.7526 25.1094 27.1172C25.1745 27.4297 25.2331 27.7617 25.2852 28.1133C25.3372 28.4518 25.4023 28.7904 25.4805 29.1289C25.5586 29.4674 25.6497 29.7995 25.7539 30.125C25.8711 30.4375 26.0208 30.737 26.2031 31.0234C26.1901 31.0495 26.1966 31.069 26.2227 31.082C26.2487 31.0951 26.2747 31.1016 26.3008 31.1016H26.457C26.5221 31.1016 26.5482 31.1276 26.5352 31.1797C26.5612 31.2188 26.5807 31.2578 26.5938 31.2969C26.6068 31.3229 26.6328 31.349 26.6719 31.375C26.6979 31.4141 26.6979 31.4661 26.6719 31.5312C26.6589 31.7917 26.5938 32.0326 26.4766 32.2539C26.3594 32.4753 26.2878 32.7161 26.2617 32.9766C26.1055 33.0156 25.9622 33.0352 25.832 33.0352C25.6107 33.0221 25.4154 32.957 25.2461 32.8398C25.0768 32.7357 24.9206 32.6055 24.7773 32.4492C24.6341 32.293 24.4974 32.1367 24.3672 31.9805C24.237 31.8112 24.0938 31.668 23.9375 31.5508C23.8464 31.1862 23.7552 30.7826 23.6641 30.3398C23.5859 29.8971 23.4492 29.5195 23.2539 29.207C23.306 29.0898 23.332 28.9466 23.332 28.7773C23.3451 28.5169 23.319 28.263 23.2539 28.0156C23.2018 27.7552 23.1888 27.4948 23.2148 27.2344C23.2148 27.0911 23.2279 26.9479 23.2539 26.8047C23.293 26.6615 23.319 26.5182 23.332 26.375C23.3451 26.1536 23.319 25.9388 23.2539 25.7305C23.2018 25.5221 23.1823 25.3073 23.1953 25.0859C23.2083 24.9818 23.2279 24.8841 23.2539 24.793C23.293 24.6888 23.3451 24.5977 23.4102 24.5195C23.3451 24.3633 23.3255 24.2135 23.3516 24.0703C23.3646 23.849 23.3906 23.6406 23.4297 23.4453C23.4688 23.25 23.4948 23.0547 23.5078 22.8594C23.5078 22.7552 23.5013 22.6576 23.4883 22.5664C23.4753 22.4622 23.4557 22.3646 23.4297 22.2734L23.2539 22.2148C23.1758 22.2148 23.0977 22.2344 23.0195 22.2734C22.9544 22.3125 22.8958 22.3581 22.8438 22.4102C22.7917 22.4622 22.7461 22.5078 22.707 22.5469C22.668 22.5729 22.6289 22.5859 22.5898 22.5859C22.5638 22.5859 22.5312 22.5859 22.4922 22.5859C22.4661 22.5729 22.4401 22.5664 22.4141 22.5664C22.388 22.5664 22.3359 22.5924 22.2578 22.6445C22.1927 22.6966 22.1081 22.7552 22.0039 22.8203C21.9128 22.8724 21.8216 22.931 21.7305 22.9961C21.6393 23.0482 21.5677 23.0807 21.5156 23.0938C21.3724 23.0677 21.2552 23.0221 21.1641 22.957C21.0859 22.8789 21.0078 22.8073 20.9297 22.7422C20.8646 22.6641 20.793 22.599 20.7148 22.5469C20.6367 22.4818 20.5391 22.4557 20.4219 22.4688C20.3828 22.3906 20.3633 22.306 20.3633 22.2148C20.3503 22.1237 20.3503 22.0326 20.3633 21.9414V21.6289C20.4544 21.4596 20.5781 21.3229 20.7344 21.2188C20.8776 21.1016 21.0339 21.0039 21.2031 20.9258L21.7109 20.6914C21.8802 20.6133 22.0365 20.5156 22.1797 20.3984H22.3555C22.5898 20.4115 22.7917 20.3659 22.9609 20.2617C23.1432 20.1576 23.3125 20.0404 23.4688 19.9102C23.625 19.7669 23.7812 19.6237 23.9375 19.4805C24.1068 19.3372 24.2891 19.2266 24.4844 19.1484C24.6276 19.2135 24.7773 19.2721 24.9336 19.3242C25.0898 19.3633 25.2526 19.3893 25.4219 19.4023C25.5911 19.4023 25.7669 19.3763 25.9492 19.3242C26.1315 19.2721 26.2747 19.1745 26.3789 19.0312C26.444 19.0573 26.4961 19.0768 26.5352 19.0898C26.5872 19.0898 26.6458 19.0898 26.7109 19.0898C26.9062 19.1029 27.1016 19.0768 27.2969 19.0117C27.4922 18.9336 27.681 18.8424 27.8633 18.7383C28.1237 18.7513 28.3776 18.7383 28.625 18.6992C28.8854 18.6471 29.1393 18.5951 29.3867 18.543C29.6471 18.4909 29.901 18.4453 30.1484 18.4062C30.4089 18.3542 30.6693 18.3346 30.9297 18.3477C31.3594 18.3607 31.7826 18.3216 32.1992 18.2305C32.6159 18.1393 33.0391 18.1068 33.4688 18.1328C33.7682 18.1458 34.0612 18.1719 34.3477 18.2109C34.6471 18.237 34.9466 18.2435 35.2461 18.2305C35.4154 18.3086 35.5651 18.3802 35.6953 18.4453C35.8385 18.4974 36.0143 18.5104 36.2227 18.4844C36.6393 18.8359 37.0169 19.2461 37.3555 19.7148V20.0469C37.3424 20.3464 37.2904 20.6393 37.1992 20.9258C37.1081 21.2122 36.9974 21.4987 36.8672 21.7852C36.75 22.0586 36.6198 22.332 36.4766 22.6055C36.3333 22.8659 36.1966 23.1263 36.0664 23.3867C35.2201 24.1549 34.3737 24.9167 33.5273 25.6719C32.681 26.4271 31.8086 27.1562 30.9102 27.8594C30.8841 27.9896 30.8451 28.1068 30.793 28.2109C30.7539 28.3151 30.7279 28.4258 30.7148 28.543C30.7148 28.6081 30.7214 28.6602 30.7344 28.6992C30.8255 28.7253 30.9036 28.7773 30.9688 28.8555C31.0469 28.9206 31.0729 29.0117 31.0469 29.1289H31.2227C31.2878 29.1289 31.3203 29.1549 31.3203 29.207L31.6328 29.2266C32.1276 29.2526 32.6224 29.2396 33.1172 29.1875C33.612 29.1354 34.1068 29.0768 34.6016 29.0117C35.1094 28.9466 35.6107 28.888 36.1055 28.8359C36.6003 28.7708 37.0951 28.7318 37.5898 28.7188C37.707 28.6797 37.8307 28.6471 37.9609 28.6211C38.0911 28.5951 38.2083 28.543 38.3125 28.4648H38.3711C38.4622 28.4648 38.5273 28.4909 38.5664 28.543C38.6185 28.5951 38.6901 28.6276 38.7812 28.6406C38.8464 28.6406 38.9115 28.6276 38.9766 28.6016C39.0547 28.5755 39.1328 28.556 39.2109 28.543C39.3932 28.4909 39.582 28.4583 39.7773 28.4453C39.9857 28.4323 40.1875 28.4128 40.3828 28.3867C41.138 28.3216 41.8867 28.2826 42.6289 28.2695C43.3711 28.2435 44.1133 28.1458 44.8555 27.9766C44.9206 28.0677 45.0117 28.1328 45.1289 28.1719C45.2461 28.1979 45.3698 28.2305 45.5 28.2695C45.6302 28.2956 45.7474 28.3281 45.8516 28.3672C45.9688 28.4062 46.0469 28.4844 46.0859 28.6016ZM55.0703 30.5742C55.0312 30.7565 54.9466 30.9062 54.8164 31.0234C54.6992 31.1276 54.556 31.2122 54.3867 31.2773C54.2174 31.3424 54.0417 31.388 53.8594 31.4141C53.6901 31.4271 53.5339 31.4336 53.3906 31.4336C53.3255 31.4336 53.2604 31.4336 53.1953 31.4336C53.1432 31.4206 53.0846 31.4141 53.0195 31.4141C52.9544 31.4141 52.9219 31.4466 52.9219 31.5117C52.9219 31.5768 52.8893 31.6224 52.8242 31.6484C52.7591 31.6224 52.694 31.6029 52.6289 31.5898C52.5638 31.5768 52.4987 31.5703 52.4336 31.5703C52.3424 31.5703 52.2513 31.5768 52.1602 31.5898C52.082 31.6029 52.0039 31.6094 51.9258 31.6094C51.8216 31.6094 51.7435 31.5964 51.6914 31.5703C51.6523 31.5443 51.6133 31.5182 51.5742 31.4922C51.5482 31.4531 51.5156 31.4141 51.4766 31.375C51.4505 31.3359 51.4049 31.3034 51.3398 31.2773C51.2487 31.2383 51.1706 31.2318 51.1055 31.2578C51.0534 31.2839 50.9688 31.2448 50.8516 31.1406C50.6953 31.0104 50.5586 30.8542 50.4414 30.6719C50.3372 30.4766 50.2331 30.2747 50.1289 30.0664C50.0247 29.8581 49.9141 29.6497 49.7969 29.4414C49.6797 29.2331 49.543 29.0508 49.3867 28.8945H49.2305C48.9961 28.8945 48.8333 28.9922 48.7422 29.1875C48.6771 29.1484 48.612 29.1029 48.5469 29.0508C48.4818 28.9857 48.4102 28.9336 48.332 28.8945C48.0326 28.9857 47.7201 29.0638 47.3945 29.1289C47.069 29.194 46.7435 29.2266 46.418 29.2266H46.1445C46.0664 29.2266 45.9818 29.2135 45.8906 29.1875C45.7604 29.2396 45.6432 29.3047 45.5391 29.3828C45.4349 29.4479 45.3177 29.4805 45.1875 29.4805C45.1094 29.4805 45.0182 29.4544 44.9141 29.4023C44.8359 29.4023 44.7969 29.4349 44.7969 29.5C44.8099 29.5651 44.7708 29.5977 44.6797 29.5977H44.5039C44.3216 29.5977 44.1393 29.6042 43.957 29.6172C43.7878 29.6302 43.612 29.6367 43.4297 29.6367C43.1823 29.6367 42.9284 29.6042 42.668 29.5391C42.6029 29.5781 42.5312 29.5977 42.4531 29.5977C42.401 29.6237 42.362 29.6693 42.3359 29.7344C42.3099 29.7865 42.2839 29.8385 42.2578 29.8906C42.2318 29.9297 42.1927 29.9688 42.1406 30.0078C42.1016 30.0339 42.043 30.0404 41.9648 30.0273C41.9388 30.1836 41.8737 30.3073 41.7695 30.3984C41.6654 30.4896 41.6133 30.6263 41.6133 30.8086C41.4701 30.8867 41.3529 30.9844 41.2617 31.1016C41.1706 31.2188 41.0794 31.3424 40.9883 31.4727C40.8971 31.6029 40.7995 31.7266 40.6953 31.8438C40.6042 31.9609 40.487 32.0521 40.3438 32.1172C40.2786 32.1953 40.2591 32.319 40.2852 32.4883C40.1419 32.6055 39.9661 32.7096 39.7578 32.8008C39.5495 32.8919 39.3542 32.9375 39.1719 32.9375C38.7943 32.9375 38.5339 32.7357 38.3906 32.332C38.3906 32.2018 38.4036 32.0651 38.4297 31.9219C38.4427 31.7656 38.4688 31.6224 38.5078 31.4922C38.5469 31.349 38.6055 31.2253 38.6836 31.1211C38.7617 31.0039 38.8724 30.9193 39.0156 30.8672C39.0156 30.75 38.9766 30.6719 38.8984 30.6328C38.8203 30.5807 38.7878 30.4961 38.8008 30.3789C39.1523 30.2096 39.4583 29.9883 39.7188 29.7148C39.9792 29.4414 40.2135 29.1549 40.4219 28.8555C40.6432 28.543 40.8646 28.2305 41.0859 27.918C41.3073 27.6055 41.5547 27.3255 41.8281 27.0781V26.668C42.2188 26.2513 42.4727 25.7826 42.5898 25.2617C42.7331 25.2357 42.8242 25.1706 42.8633 25.0664C42.9154 24.9622 42.9414 24.8385 42.9414 24.6953C43.0065 24.6953 43.0456 24.6693 43.0586 24.6172C43.0846 24.5521 43.1432 24.5326 43.2344 24.5586C43.3516 24.2461 43.4818 23.9596 43.625 23.6992C43.7682 23.4388 43.9115 23.1784 44.0547 22.918C44.1979 22.6445 44.3216 22.3646 44.4258 22.0781C44.543 21.7917 44.6276 21.4727 44.6797 21.1211C44.862 21.1081 44.9596 21.0234 44.9727 20.8672C44.9987 20.6979 45.0247 20.5482 45.0508 20.418C45.2461 20.2357 45.3893 20.0208 45.4805 19.7734C45.5846 19.526 45.6758 19.2721 45.7539 19.0117C45.832 18.7383 45.9167 18.4714 46.0078 18.2109C46.112 17.9375 46.2552 17.6966 46.4375 17.4883V17.4297C46.4375 17.3646 46.4115 17.3255 46.3594 17.3125C46.3073 17.2865 46.2812 17.2409 46.2812 17.1758C46.2943 17.1628 46.3008 17.1497 46.3008 17.1367C46.457 17.0716 46.5742 16.9674 46.6523 16.8242C46.7305 16.668 46.8477 16.5573 47.0039 16.4922C47.2773 16.7135 47.5182 16.8503 47.7266 16.9023C47.9349 16.9414 48.2083 16.974 48.5469 17C48.7161 17.1823 48.8073 17.4036 48.8203 17.6641C48.8464 17.9115 48.8919 18.1589 48.957 18.4062C49.0612 18.8229 49.1719 19.2331 49.2891 19.6367C49.4193 20.0273 49.5169 20.431 49.582 20.8477C49.6211 21.0951 49.6927 21.3294 49.7969 21.5508C49.901 21.7721 49.9727 22 50.0117 22.2344C50.0378 22.4167 50.0378 22.625 50.0117 22.8594C49.9857 23.0807 50.0117 23.276 50.0898 23.4453L50.2266 23.7578C50.2917 23.901 50.3438 24.0508 50.3828 24.207C50.4349 24.3633 50.4805 24.5195 50.5195 24.6758C50.6237 25.0664 50.7148 25.4896 50.793 25.9453C50.8841 26.388 51.0208 26.7917 51.2031 27.1562C51.2682 27.2865 51.3659 27.3776 51.4961 27.4297C51.6393 27.4818 51.7956 27.5208 51.9648 27.5469C52.1341 27.5599 52.2969 27.5664 52.4531 27.5664C52.6224 27.5534 52.7656 27.5469 52.8828 27.5469H53.0781C53.1562 27.5469 53.2344 27.5599 53.3125 27.5859C53.3646 27.6901 53.3906 27.7812 53.3906 27.8594C53.3906 28.0156 53.3385 28.1393 53.2344 28.2305C53.1302 28.3216 53.0781 28.4258 53.0781 28.543C53.0781 28.6081 53.1042 28.6797 53.1562 28.7578C53.1042 28.7448 53.026 28.7383 52.9219 28.7383C52.6224 28.7383 52.3294 28.7904 52.043 28.8945C52.1471 29.1159 52.2839 29.3047 52.4531 29.4609C52.6354 29.6042 52.8242 29.7409 53.0195 29.8711C53.1497 29.7669 53.2865 29.7148 53.4297 29.7148C53.5859 29.7148 53.7292 29.7539 53.8594 29.832C54.0026 29.8971 54.1523 29.9297 54.3086 29.9297C54.4258 29.9297 54.5104 29.9102 54.5625 29.8711C54.6667 29.9883 54.7513 30.112 54.8164 30.2422C54.8815 30.3594 54.9661 30.4701 55.0703 30.5742ZM48.957 27.4492C48.931 27.2279 48.8854 27.0716 48.8203 26.9805C48.7682 26.8763 48.7227 26.7526 48.6836 26.6094C48.6315 26.4271 48.5924 26.2318 48.5664 26.0234C48.5534 25.8151 48.5273 25.6133 48.4883 25.418C48.3971 24.9753 48.293 24.5326 48.1758 24.0898C48.0716 23.6471 47.9349 23.2174 47.7656 22.8008C47.8177 22.7227 47.8438 22.651 47.8438 22.5859V22.5273C47.7266 22.3971 47.6419 22.2409 47.5898 22.0586C47.5378 21.8633 47.4857 21.6745 47.4336 21.4922C47.3945 21.2969 47.3359 21.1211 47.2578 20.9648C47.1927 20.7956 47.082 20.6589 46.9258 20.5547C46.8867 20.6328 46.8672 20.724 46.8672 20.8281C46.8672 20.9193 46.8737 21.0039 46.8867 21.082C46.9128 21.1602 46.9258 21.2448 46.9258 21.3359C46.7956 21.401 46.6979 21.5052 46.6328 21.6484C46.5807 21.7786 46.4896 21.8828 46.3594 21.9609C46.2552 22.3776 46.1055 22.7747 45.9102 23.1523C45.7148 23.5169 45.5065 23.8815 45.2852 24.2461C45.0768 24.6107 44.875 24.9818 44.6797 25.3594C44.4844 25.724 44.3281 26.1081 44.2109 26.5117C44.0417 26.6289 43.9245 26.7786 43.8594 26.9609C43.8073 27.1432 43.7812 27.3255 43.7812 27.5078C43.8984 27.5729 44.0286 27.612 44.1719 27.625C44.3281 27.625 44.4779 27.625 44.6211 27.625C44.7643 27.625 44.901 27.638 45.0312 27.6641C45.1615 27.6901 45.2786 27.7552 45.3828 27.8594C45.5521 27.8073 45.7344 27.7747 45.9297 27.7617C46.138 27.7357 46.3073 27.6771 46.4375 27.5859C46.6979 27.6771 46.9779 27.7227 47.2773 27.7227C47.4336 27.7227 47.5833 27.7096 47.7266 27.6836C47.8828 27.6576 48.0326 27.625 48.1758 27.5859C48.293 27.612 48.3841 27.6576 48.4492 27.7227C48.5143 27.7747 48.612 27.7943 48.7422 27.7812C48.8073 27.7292 48.8464 27.6771 48.8594 27.625C48.8724 27.5599 48.9049 27.5013 48.957 27.4492ZM65.0312 18.0938C65.0312 18.3151 65.0182 18.5299 64.9922 18.7383C64.9792 18.9336 64.9401 19.1419 64.875 19.3633C64.7578 19.4544 64.6536 19.5651 64.5625 19.6953L64.2891 20.0664C64.1979 20.1836 64.1003 20.3008 63.9961 20.418C63.8919 20.5221 63.7617 20.6068 63.6055 20.6719C63.4753 21.2448 63.3125 21.7982 63.1172 22.332C62.9349 22.8529 62.7982 23.3997 62.707 23.9727C62.5508 24.2591 62.4271 24.5716 62.3359 24.9102C62.2448 25.2487 62.1471 25.5938 62.043 25.9453C61.9518 26.2839 61.8477 26.6094 61.7305 26.9219C61.6133 27.2344 61.4505 27.5143 61.2422 27.7617C61.138 28.0742 61.0339 28.4128 60.9297 28.7773C60.8255 29.1289 60.6497 29.4219 60.4023 29.6562C60.4154 29.6823 60.4219 29.7214 60.4219 29.7734C60.4219 29.9297 60.3828 30.0794 60.3047 30.2227C60.2266 30.3529 60.1875 30.4896 60.1875 30.6328C59.9792 30.7891 59.7773 30.9714 59.582 31.1797C59.3997 31.388 59.2109 31.5964 59.0156 31.8047C58.8203 32.013 58.612 32.1953 58.3906 32.3516C58.1693 32.5078 57.9284 32.612 57.668 32.6641C57.4857 32.5339 57.3164 32.3841 57.1602 32.2148C57.0039 32.0586 56.8216 31.9284 56.6133 31.8242C56.5091 31.2383 56.444 30.6654 56.418 30.1055C56.4049 29.5326 56.3594 28.9661 56.2812 28.4062C56.2292 28.0807 56.1445 27.7682 56.0273 27.4688C55.9232 27.1693 55.8711 26.8633 55.8711 26.5508C55.8711 26.4857 55.8711 26.4206 55.8711 26.3555C55.8841 26.2773 55.8971 26.2057 55.9102 26.1406C55.7799 25.9974 55.6953 25.8216 55.6562 25.6133C55.6172 25.3919 55.5846 25.1706 55.5586 24.9492C55.5326 24.7148 55.4935 24.487 55.4414 24.2656C55.4023 24.0443 55.3242 23.8555 55.207 23.6992C55.2591 23.6471 55.2852 23.5755 55.2852 23.4844C55.2852 23.4193 55.2721 23.3542 55.2461 23.2891C55.2331 23.224 55.2266 23.1589 55.2266 23.0938C55.2266 23.0417 55.2461 22.9831 55.2852 22.918C55.181 22.7878 55.1094 22.6706 55.0703 22.5664C55.0443 22.4492 55.0247 22.3385 55.0117 22.2344C54.9987 22.1172 54.9857 22 54.9727 21.8828C54.9727 21.7656 54.9596 21.6419 54.9336 21.5117C54.9076 21.4206 54.862 21.3555 54.7969 21.3164C54.7448 21.2643 54.7188 21.2253 54.7188 21.1992C54.7188 21.1341 54.7448 21.082 54.7969 21.043C54.6146 20.7826 54.4648 20.5091 54.3477 20.2227C54.2305 19.9362 54.1003 19.6497 53.957 19.3633C53.9701 19.2201 54.0221 19.1094 54.1133 19.0312C54.2044 18.9531 54.2695 18.849 54.3086 18.7188H54.9336C55.5065 19.8385 55.9427 21.0039 56.2422 22.2148C56.5547 23.4128 56.8281 24.6237 57.0625 25.8477C57.1276 26.1992 57.1862 26.5508 57.2383 26.9023C57.3034 27.2539 57.375 27.612 57.4531 27.9766C57.4792 28.0547 57.5182 28.1393 57.5703 28.2305C57.6224 28.3216 57.6484 28.4128 57.6484 28.5039C57.6484 28.582 57.6289 28.6602 57.5898 28.7383C57.668 28.7904 57.7266 28.862 57.7656 28.9531C57.8177 29.0443 57.8568 29.1419 57.8828 29.2461C57.9219 29.3372 57.9544 29.4349 57.9805 29.5391C58.0065 29.6302 58.0456 29.7148 58.0977 29.793C58.2539 29.7799 58.3906 29.7083 58.5078 29.5781C58.625 29.4479 58.7292 29.2982 58.8203 29.1289C58.9245 28.9466 59.0156 28.7708 59.0938 28.6016C59.1849 28.4193 59.2891 28.276 59.4062 28.1719C59.4193 28.0286 59.4453 27.8919 59.4844 27.7617C59.5365 27.6185 59.5625 27.4753 59.5625 27.332C59.6927 27.1107 59.8099 26.9023 59.9141 26.707C60.0182 26.5117 60.0833 26.2773 60.1094 26.0039C60.1745 25.9518 60.2135 25.9128 60.2266 25.8867C60.2396 25.8477 60.2982 25.8411 60.4023 25.8672C60.4023 25.5156 60.4544 25.1771 60.5586 24.8516C60.6758 24.513 60.832 24.194 61.0273 23.8945C61.0534 23.5951 61.112 23.2956 61.2031 22.9961C61.3073 22.6836 61.4245 22.3776 61.5547 22.0781C61.5938 21.987 61.6458 21.8828 61.7109 21.7656C61.776 21.6354 61.8086 21.5182 61.8086 21.4141C61.8086 21.362 61.7956 21.3164 61.7695 21.2773C61.7565 21.2253 61.75 21.1732 61.75 21.1211C61.75 21.0169 61.7891 20.9258 61.8672 20.8477C61.9453 20.7695 62.0169 20.6914 62.082 20.6133C62.082 20.3138 62.1146 20.0143 62.1797 19.7148C62.2448 19.4154 62.375 19.1549 62.5703 18.9336C62.6354 18.4909 62.7201 18.0612 62.8242 17.6445C62.9284 17.2148 63.0781 16.8047 63.2734 16.4141H63.9766C63.9766 16.1667 64.0872 16.043 64.3086 16.043C64.4388 16.043 64.582 16.0755 64.7383 16.1406C64.8424 16.4271 64.9141 16.7526 64.9531 17.1172C65.0052 17.4688 65.0312 17.7943 65.0312 18.0938ZM77.3555 19.5781V19.6562C77.2643 19.6823 77.2188 19.7474 77.2188 19.8516C77.0755 19.9167 76.9258 19.9688 76.7695 20.0078C76.6133 20.0339 76.4635 20.0794 76.3203 20.1445C76.1771 20.1315 76.0273 20.125 75.8711 20.125C75.7279 20.112 75.5846 20.1055 75.4414 20.1055C75.0508 20.1055 74.6602 20.1185 74.2695 20.1445C73.8789 20.1706 73.4883 20.1706 73.0977 20.1445C72.9154 20.2487 72.7135 20.3333 72.4922 20.3984C72.2839 20.4505 72.082 20.4766 71.8867 20.4766C71.7305 20.4766 71.5938 20.457 71.4766 20.418C71.1641 20.5742 70.819 20.7044 70.4414 20.8086C70.0768 20.9128 69.7057 21.0169 69.3281 21.1211C68.9505 21.2122 68.5859 21.3229 68.2344 21.4531C67.8958 21.5703 67.5964 21.7396 67.3359 21.9609C67.3099 22.1432 67.2904 22.3255 67.2773 22.5078C67.2643 22.6771 67.2578 22.8464 67.2578 23.0156C67.2578 23.1979 67.2643 23.3672 67.2773 23.5234C67.3034 23.6797 67.349 23.8359 67.4141 23.9922C67.4792 24.0182 67.5508 24.0378 67.6289 24.0508C67.7201 24.0638 67.7982 24.0703 67.8633 24.0703C67.9284 24.0703 67.9935 24.0638 68.0586 24.0508C68.1237 24.0247 68.1693 23.9792 68.1953 23.9141C68.3906 23.888 68.5859 23.8815 68.7812 23.8945C68.9766 23.8945 69.1719 23.8945 69.3672 23.8945C69.5625 23.8945 69.7513 23.888 69.9336 23.875C70.1289 23.862 70.3177 23.8294 70.5 23.7773C70.7083 23.7253 70.9102 23.6927 71.1055 23.6797C71.3138 23.6667 71.5156 23.6536 71.7109 23.6406C71.9062 23.6276 72.1081 23.6081 72.3164 23.582C72.5247 23.543 72.7396 23.4714 72.9609 23.3672C73.1302 23.4323 73.2995 23.4648 73.4688 23.4648C73.651 23.4648 73.8268 23.4779 73.9961 23.5039C74.0872 23.569 74.1589 23.6406 74.2109 23.7188C74.276 23.7969 74.3086 23.888 74.3086 23.9922C74.3086 24.1745 74.2435 24.3568 74.1133 24.5391C73.9831 24.7214 73.8789 24.8906 73.8008 25.0469H73.5859C73.2734 25.0469 72.9674 25.0924 72.668 25.1836C72.3815 25.2617 72.0885 25.3594 71.7891 25.4766C71.5026 25.5807 71.2096 25.6784 70.9102 25.7695C70.6237 25.8477 70.3242 25.8867 70.0117 25.8867C69.9596 25.8867 69.9271 25.9193 69.9141 25.9844C69.9141 26.0365 69.901 26.0755 69.875 26.1016C69.8099 26.0885 69.7122 26.082 69.582 26.082C69.2826 26.082 68.9961 26.1146 68.7227 26.1797C68.4492 26.2448 68.1693 26.2773 67.8828 26.2773C67.8047 26.2773 67.7266 26.2773 67.6484 26.2773C67.5703 26.2643 67.4922 26.2513 67.4141 26.2383C67.349 26.3424 67.2643 26.4141 67.1602 26.4531C67.056 26.4792 66.9583 26.5312 66.8672 26.6094C66.8281 26.7266 66.8021 26.8698 66.7891 27.0391C66.7891 27.2083 66.7826 27.3841 66.7695 27.5664C66.7695 27.7357 66.7565 27.8984 66.7305 28.0547C66.7044 28.2109 66.6523 28.3346 66.5742 28.4258C66.5872 28.4909 66.6393 28.5169 66.7305 28.5039C66.8216 28.4779 66.8672 28.5169 66.8672 28.6211C66.8672 28.7383 66.8542 28.862 66.8281 28.9922C66.8021 29.1224 66.7891 29.2526 66.7891 29.3828C66.7891 29.6302 66.8151 29.9036 66.8672 30.2031C66.9323 30.4896 67.0234 30.7565 67.1406 31.0039C67.2708 31.2513 67.4401 31.4596 67.6484 31.6289C67.8568 31.7852 68.1172 31.8633 68.4297 31.8633C68.638 31.8633 68.8333 31.8242 69.0156 31.7461C69.1979 31.668 69.3477 31.5378 69.4648 31.3555L69.5625 31.3359C69.6146 31.3359 69.6602 31.3424 69.6992 31.3555C69.7513 31.3685 69.8034 31.375 69.8555 31.375C69.9336 31.375 70.0312 31.3294 70.1484 31.2383C70.2786 31.1341 70.4154 31.0169 70.5586 30.8867C70.7148 30.7565 70.8711 30.6328 71.0273 30.5156C71.1836 30.3854 71.3333 30.2943 71.4766 30.2422C71.5677 30.0599 71.6523 29.8776 71.7305 29.6953C71.8216 29.513 71.9518 29.3698 72.1211 29.2656V28.6992C72.2513 28.556 72.388 28.4258 72.5312 28.3086C72.6875 28.1914 72.8047 28.0417 72.8828 27.8594C72.9479 27.8854 73.0065 27.9049 73.0586 27.918C73.1237 27.931 73.1888 27.9375 73.2539 27.9375C73.319 27.9375 73.3841 27.931 73.4492 27.918C73.5273 27.9049 73.599 27.8854 73.6641 27.8594C73.7682 28.0026 73.8464 28.1654 73.8984 28.3477C73.9635 28.5169 74.0417 28.6797 74.1328 28.8359C74.0156 29.0703 73.8789 29.3503 73.7227 29.6758C73.5664 30.0013 73.3971 30.3268 73.2148 30.6523C73.0326 30.9779 72.8372 31.2904 72.6289 31.5898C72.4336 31.8763 72.2383 32.0977 72.043 32.2539C72.0039 32.293 71.9193 32.3385 71.7891 32.3906C71.6458 32.4948 71.5156 32.5924 71.3984 32.6836C71.2812 32.7878 71.1706 32.9049 71.0664 33.0352C70.6888 33.1523 70.3242 33.3086 69.9727 33.5039C69.6341 33.6992 69.2956 33.888 68.957 34.0703C68.8008 34.0312 68.6315 34.0117 68.4492 34.0117C68.293 34.0117 68.1367 34.0182 67.9805 34.0312C67.8242 34.0573 67.6549 34.0703 67.4727 34.0703C67.4206 34.0052 67.3424 33.9596 67.2383 33.9336C67.1471 33.9206 67.1146 33.8555 67.1406 33.7383C66.6979 33.7122 66.3398 33.5885 66.0664 33.3672C65.793 33.1589 65.5586 32.8984 65.3633 32.5859C65.181 32.2734 65.0312 31.9349 64.9141 31.5703C64.7969 31.2057 64.6732 30.8542 64.543 30.5156V30.457C64.543 30.3919 64.569 30.3529 64.6211 30.3398C64.6732 30.3268 64.6992 30.2878 64.6992 30.2227C64.6992 30.1966 64.6927 30.1771 64.6797 30.1641C64.6406 30.0208 64.6081 29.8971 64.582 29.793C64.556 29.6888 64.543 29.5651 64.543 29.4219C64.543 29.2135 64.556 29.0117 64.582 28.8164C64.6081 28.6081 64.6211 28.3997 64.6211 28.1914C64.6211 27.9831 64.5951 27.8008 64.543 27.6445C64.5951 27.5794 64.6406 27.4948 64.6797 27.3906C64.7057 27.2734 64.7253 27.1562 64.7383 27.0391C64.7513 26.9219 64.7578 26.8047 64.7578 26.6875C64.7708 26.5703 64.7904 26.4661 64.8164 26.375C64.7643 26.2318 64.7188 26.1081 64.6797 26.0039C64.6406 25.8867 64.6211 25.75 64.6211 25.5938V25.457C64.7513 25.2357 64.862 25.0078 64.9531 24.7734C65.0443 24.5391 65.1419 24.2982 65.2461 24.0508V23.9922C65.2461 23.6146 65.2331 23.237 65.207 22.8594C65.181 22.4818 65.168 22.1042 65.168 21.7266V21.3555C65.168 21.2253 65.1745 21.1016 65.1875 20.9844C65.2917 20.9323 65.3698 20.8607 65.4219 20.7695C65.474 20.6784 65.5521 20.6068 65.6562 20.5547H66.3008L66.418 20.3594C66.457 20.2943 66.4831 20.2227 66.4961 20.1445C66.6393 20.1055 66.776 20.0534 66.9062 19.9883C67.0495 19.9102 67.1797 19.832 67.2969 19.7539C67.4792 19.6497 67.6419 19.5586 67.7852 19.4805C67.9414 19.3893 68.0911 19.3177 68.2344 19.2656C68.3906 19.2005 68.5534 19.1484 68.7227 19.1094C68.8919 19.0703 69.0872 19.0378 69.3086 19.0117C69.4128 19.0117 69.4779 18.9922 69.5039 18.9531C69.543 18.9141 69.5951 18.8685 69.6602 18.8164C69.8164 18.8424 69.9727 18.8685 70.1289 18.8945C70.2852 18.9076 70.4414 18.9141 70.5977 18.9141C70.9102 18.9141 71.2031 18.8555 71.4766 18.7383C71.8672 18.7383 72.2513 18.7318 72.6289 18.7188C73.0195 18.7057 73.4102 18.6992 73.8008 18.6992C74.1393 18.6992 74.4779 18.7122 74.8164 18.7383C75.1549 18.7643 75.487 18.8099 75.8125 18.875C75.9297 18.8359 76.0599 18.8164 76.2031 18.8164C76.3594 18.8164 76.5156 18.8359 76.6719 18.875C76.8411 18.901 77.0039 18.901 77.1602 18.875C77.1732 19.0182 77.2057 19.1419 77.2578 19.2461C77.3229 19.3372 77.3555 19.4479 77.3555 19.5781ZM87.0625 26.9805C87.0625 27.1237 87.0104 27.2344 86.9062 27.3125C86.8021 27.3776 86.75 27.4688 86.75 27.5859C86.75 27.638 86.776 27.7031 86.8281 27.7812C86.6458 27.7812 86.5221 27.8398 86.457 27.957C86.3919 28.0742 86.3268 28.2044 86.2617 28.3477H86.0078C85.9427 28.3477 85.8906 28.3607 85.8516 28.3867C85.8125 28.4128 85.7734 28.4518 85.7344 28.5039C85.7083 28.543 85.6693 28.6081 85.6172 28.6992C85.3698 28.7513 85.1289 28.8359 84.8945 28.9531C84.6732 29.0573 84.4518 29.1745 84.2305 29.3047C84.0221 29.4219 83.8073 29.5456 83.5859 29.6758C83.3646 29.793 83.1367 29.8906 82.9023 29.9688C82.7852 30.1641 82.6159 30.3203 82.3945 30.4375H82.3359C82.2708 30.4505 82.2122 30.444 82.1602 30.418C82.1211 30.3789 82.069 30.3594 82.0039 30.3594C81.9648 30.3594 81.9388 30.3659 81.9258 30.3789C81.5352 30.6393 81.099 30.7695 80.6172 30.7695C80.487 30.7695 80.3633 30.763 80.2461 30.75C80.1289 30.724 80.0052 30.7109 79.875 30.7109C79.8359 30.7109 79.8099 30.724 79.7969 30.75L79.7578 30.8281C79.7448 30.8542 79.7253 30.8802 79.6992 30.9062C79.6862 30.9323 79.6406 30.9453 79.5625 30.9453C79.4193 30.9453 79.276 30.9258 79.1328 30.8867C78.9896 30.8477 78.8398 30.8411 78.6836 30.8672C78.3841 30.6979 78.1497 30.5352 77.9805 30.3789C77.8112 30.2227 77.6549 29.9883 77.5117 29.6758C77.4466 29.5326 77.3555 29.3958 77.2383 29.2656C77.1341 29.1354 77.056 28.9922 77.0039 28.8359C76.9909 28.7839 76.9714 28.6927 76.9453 28.5625C76.9193 28.4193 76.8932 28.2695 76.8672 28.1133C76.8411 27.957 76.8151 27.8073 76.7891 27.6641C76.776 27.5208 76.7695 27.4232 76.7695 27.3711C76.7695 27.2148 76.776 27.0651 76.7891 26.9219C76.8151 26.7656 76.8411 26.6094 76.8672 26.4531C76.9453 25.9583 76.9974 25.4635 77.0234 24.9688C77.0625 24.4609 77.1732 23.9727 77.3555 23.5039C77.3294 23.3607 77.3164 23.224 77.3164 23.0938V22.6641C77.3164 22.4167 77.2839 22.2083 77.2188 22.0391C77.3229 21.8698 77.375 21.681 77.375 21.4727C77.375 21.2383 77.2773 21.1016 77.082 21.0625V21.0039C77.082 20.7305 76.9909 20.5156 76.8086 20.3594C76.8086 19.9036 76.9193 19.5651 77.1406 19.3438C77.375 19.1094 77.681 18.9076 78.0586 18.7383C78.1107 18.6602 78.1302 18.5951 78.1172 18.543C78.2083 18.569 78.293 18.5951 78.3711 18.6211C78.4492 18.6471 78.5273 18.6602 78.6055 18.6602C78.7357 18.6602 78.8529 18.6406 78.957 18.6016C78.9961 18.7578 79.0938 18.8555 79.25 18.8945C79.4193 18.9206 79.556 18.9596 79.6602 19.0117V19.2656C79.6602 19.6693 79.7578 20.0534 79.9531 20.418C79.901 20.5221 79.8685 20.6328 79.8555 20.75C79.8424 20.8672 79.8359 20.9779 79.8359 21.082C79.8359 21.2383 79.8424 21.3945 79.8555 21.5508C79.8685 21.707 79.875 21.8568 79.875 22C79.875 22.1562 79.8555 22.3125 79.8164 22.4688C79.7904 22.625 79.7188 22.7617 79.6016 22.8789C79.5885 23.0482 79.5755 23.2435 79.5625 23.4648C79.5625 23.6732 79.5495 23.888 79.5234 24.1094C79.5104 24.3307 79.4779 24.5456 79.4258 24.7539C79.3737 24.9622 79.2956 25.1315 79.1914 25.2617C79.1784 25.457 79.1654 25.6589 79.1523 25.8672C79.1523 26.0625 79.1523 26.2513 79.1523 26.4336C79.1523 26.7201 79.1654 27.0586 79.1914 27.4492C79.2305 27.8398 79.3216 28.1654 79.4648 28.4258C79.5299 28.5299 79.6536 28.6081 79.8359 28.6602C80.0312 28.7122 80.1875 28.7383 80.3047 28.7383C80.4479 28.7383 80.5911 28.7188 80.7344 28.6797C80.8906 28.6276 81.0013 28.543 81.0664 28.4258C81.1445 28.4388 81.1966 28.4779 81.2227 28.543C81.2487 28.6081 81.2943 28.6602 81.3594 28.6992C82.1016 28.3867 82.8438 28.0872 83.5859 27.8008C84.3281 27.5143 85.0573 27.1823 85.7734 26.8047C85.8776 26.8568 85.9883 26.8828 86.1055 26.8828C86.2357 26.8828 86.3659 26.8698 86.4961 26.8438C86.6263 26.8177 86.7565 26.8047 86.8867 26.8047H87.0234C87.0495 26.8828 87.0625 26.9414 87.0625 26.9805ZM99.2891 20.6914C99.2109 20.8086 99.1654 20.9388 99.1523 21.082C99.1393 21.2253 99.1328 21.3555 99.1328 21.4727C99.1328 21.6289 99.1328 21.7852 99.1328 21.9414C99.1458 22.0846 99.1523 22.2279 99.1523 22.3711V22.6641C99.1263 22.7552 99.0872 22.8464 99.0352 22.9375C98.9831 23.0286 98.944 23.1198 98.918 23.2109C98.7357 23.6927 98.6445 24.1745 98.6445 24.6562V24.6953C98.5794 24.8516 98.5143 24.9948 98.4492 25.125C98.3971 25.2552 98.3451 25.3854 98.293 25.5156C98.2409 25.6328 98.2018 25.763 98.1758 25.9062C98.1497 26.0365 98.1432 26.1927 98.1562 26.375C97.974 26.8307 97.7331 27.2474 97.4336 27.625C97.1341 27.9896 96.8411 28.3672 96.5547 28.7578C96.2812 28.862 96.0273 28.9987 95.793 29.168C95.5716 29.3372 95.3568 29.526 95.1484 29.7344C94.7448 29.8646 94.3477 30.0143 93.957 30.1836C93.5664 30.3529 93.2148 30.5807 92.9023 30.8672C92.6549 30.8932 92.4076 30.9323 92.1602 30.9844C91.9128 31.0365 91.6719 31.1146 91.4375 31.2188H91.2031C91.0859 31.2188 91.0013 31.1927 90.9492 31.1406C90.7799 31.2318 90.6042 31.2969 90.4219 31.3359C90.2396 31.362 90.0573 31.375 89.875 31.375C89.6406 31.375 89.4062 31.362 89.1719 31.3359C88.9505 31.2969 88.7227 31.2578 88.4883 31.2188C88.3581 31.0365 88.1758 30.8997 87.9414 30.8086C87.707 30.7044 87.4987 30.6068 87.3164 30.5156C86.9388 29.9948 86.6654 29.4935 86.4961 29.0117C86.3268 28.5169 86.151 27.9635 85.9688 27.3516C85.9948 27.1693 86.0404 26.9935 86.1055 26.8242C86.1706 26.6419 86.1966 26.4466 86.1836 26.2383C86.418 25.5612 86.724 24.9492 87.1016 24.4023C87.4922 23.8424 87.9349 23.3086 88.4297 22.8008C88.4297 22.7227 88.4427 22.6576 88.4688 22.6055C88.5078 22.5534 88.5143 22.4753 88.4883 22.3711C88.5013 22.3841 88.5273 22.3906 88.5664 22.3906C88.6706 22.3906 88.7357 22.3646 88.7617 22.3125C88.7878 22.2474 88.7943 22.1758 88.7812 22.0977C89.25 21.7982 89.6732 21.4531 90.0508 21.0625C90.4414 20.6719 90.8841 20.3464 91.3789 20.0859C91.418 19.9688 91.4831 19.8711 91.5742 19.793C91.6654 19.7148 91.737 19.6237 91.7891 19.5195C92.2057 19.4023 92.5833 19.2266 92.9219 18.9922C93.2604 18.7578 93.6185 18.5495 93.9961 18.3672C94.2044 18.25 94.3997 18.1719 94.582 18.1328C94.7773 18.0807 94.9857 18.0286 95.207 17.9766C95.2852 17.9505 95.3568 17.931 95.4219 17.918C95.487 17.9049 95.5586 17.8984 95.6367 17.8984C95.8711 17.8984 96.099 17.944 96.3203 18.0352C96.5417 18.1133 96.7695 18.1523 97.0039 18.1523C97.069 18.1523 97.1211 18.1523 97.1602 18.1523C97.2122 18.1393 97.2643 18.1263 97.3164 18.1133C97.5378 18.3867 97.8177 18.5951 98.1562 18.7383C98.2344 18.9336 98.3255 19.1029 98.4297 19.2461C98.5469 19.3893 98.6641 19.5326 98.7812 19.6758C98.8984 19.806 99.0026 19.9557 99.0938 20.125C99.1979 20.2812 99.263 20.4701 99.2891 20.6914ZM97.3359 21.707C97.3359 21.6419 97.3294 21.5833 97.3164 21.5312C97.1862 21.4922 97.0625 21.4401 96.9453 21.375C96.8281 21.3099 96.6979 21.2773 96.5547 21.2773C96.4635 21.2773 96.3724 21.2969 96.2812 21.3359C96.2682 21.2448 96.2292 21.1797 96.1641 21.1406C96.112 21.1016 96.0469 21.069 95.9688 21.043C95.9036 21.0039 95.832 20.9779 95.7539 20.9648C95.6888 20.9388 95.6302 20.8997 95.5781 20.8477C95.5391 20.7435 95.4935 20.6393 95.4414 20.5352C95.4023 20.418 95.3242 20.3333 95.207 20.2812C95.0898 20.3984 94.9531 20.4961 94.7969 20.5742C94.6406 20.6393 94.4779 20.7044 94.3086 20.7695C94.1523 20.8346 93.9961 20.9128 93.8398 21.0039C93.6966 21.0951 93.5729 21.2057 93.4688 21.3359H93.1172C93.0391 21.4792 92.9284 21.5898 92.7852 21.668C92.6419 21.7331 92.5182 21.8307 92.4141 21.9609C92.2057 22.0651 92.0104 22.1953 91.8281 22.3516C91.6589 22.4948 91.4896 22.651 91.3203 22.8203C91.151 22.9766 90.9818 23.1393 90.8125 23.3086C90.6562 23.4779 90.487 23.6341 90.3047 23.7773C90.1354 24.1419 89.9466 24.4609 89.7383 24.7344C89.543 24.9948 89.3542 25.2617 89.1719 25.5352C89.0026 25.8086 88.8529 26.1081 88.7227 26.4336C88.6055 26.7461 88.5469 27.1367 88.5469 27.6055V27.8008C88.5469 27.8659 88.5534 27.931 88.5664 27.9961C88.7357 28.1784 88.8724 28.3737 88.9766 28.582C89.0938 28.7904 89.2826 28.9401 89.543 29.0312C89.8034 29.1354 90.0768 29.181 90.3633 29.168C90.6628 29.1549 90.9492 29.1875 91.2227 29.2656C91.8477 29.1484 92.4466 28.9596 93.0195 28.6992C93.6055 28.4258 94.1589 28.1003 94.6797 27.7227C94.7578 27.6576 94.849 27.5924 94.9531 27.5273C95.0573 27.4492 95.1419 27.3711 95.207 27.293C95.2721 27.2279 95.3242 27.1562 95.3633 27.0781C95.4154 27 95.4674 26.9284 95.5195 26.8633C95.6237 26.694 95.7409 26.5247 95.8711 26.3555C96.0013 26.1862 96.138 26.0299 96.2812 25.8867C96.3464 25.6003 96.431 25.3268 96.5352 25.0664C96.6393 24.793 96.7435 24.526 96.8477 24.2656C96.9518 24.0052 97.0365 23.7383 97.1016 23.4648C97.1797 23.1914 97.2188 22.9049 97.2188 22.6055C97.2188 22.5404 97.2122 22.4688 97.1992 22.3906C97.1992 22.3125 97.1927 22.2409 97.1797 22.1758C97.2839 22.0326 97.3359 21.8763 97.3359 21.707ZM120.988 21.1992C120.949 21.3164 120.871 21.401 120.754 21.4531C120.65 21.4922 120.539 21.5247 120.422 21.5508C120.305 21.5768 120.194 21.6224 120.09 21.6875C119.999 21.7396 119.94 21.8307 119.914 21.9609L119.875 21.9805C119.823 21.9805 119.784 21.9674 119.758 21.9414C119.745 21.9023 119.732 21.8698 119.719 21.8438C119.706 21.8047 119.686 21.7721 119.66 21.7461C119.647 21.707 119.621 21.6875 119.582 21.6875C119.439 21.6875 119.296 21.7005 119.152 21.7266C119.022 21.7526 118.892 21.7656 118.762 21.7656C118.566 21.7656 118.391 21.7396 118.234 21.6875C118.143 21.7135 118.091 21.7721 118.078 21.8633C118.078 21.9544 118.039 22.013 117.961 22.0391C117.896 22.0651 117.818 22.0781 117.727 22.0781C117.635 22.0651 117.544 22.0716 117.453 22.0977L116.828 22.2539C116.62 22.306 116.411 22.332 116.203 22.332C116.086 22.332 116.001 22.3255 115.949 22.3125C115.754 22.4688 115.533 22.5859 115.285 22.6641C115.038 22.7292 114.777 22.7943 114.504 22.8594C114.243 22.9115 113.983 22.9831 113.723 23.0742C113.475 23.1654 113.254 23.3086 113.059 23.5039C112.954 23.4779 112.863 23.4648 112.785 23.4648C112.616 23.4648 112.466 23.5039 112.336 23.582C112.206 23.6471 112.069 23.7122 111.926 23.7773C111.861 23.8034 111.796 23.8164 111.73 23.8164C111.665 23.8164 111.594 23.8294 111.516 23.8555C111.438 23.8815 111.385 23.9271 111.359 23.9922C111.346 24.0443 111.307 24.0964 111.242 24.1484C111.242 24.6172 111.288 25.0859 111.379 25.5547C111.47 26.0104 111.516 26.4727 111.516 26.9414V27.0195C111.542 27.2409 111.613 27.4492 111.73 27.6445C111.848 27.8268 111.906 28.0156 111.906 28.2109C111.906 28.276 111.893 28.3477 111.867 28.4258C112.206 28.5039 112.427 28.6797 112.531 28.9531C112.648 29.2135 112.74 29.5 112.805 29.8125C112.883 30.112 112.98 30.3919 113.098 30.6523C113.228 30.9128 113.475 31.0755 113.84 31.1406C113.866 31.2708 113.885 31.4076 113.898 31.5508C113.911 31.681 113.918 31.8112 113.918 31.9414C113.918 32.1237 113.898 32.2995 113.859 32.4688C113.82 32.651 113.742 32.8138 113.625 32.957C113.43 32.9701 113.286 32.9766 113.195 32.9766C113.104 32.9766 112.967 33.0156 112.785 33.0938C112.525 32.9375 112.29 32.7552 112.082 32.5469C111.887 32.3516 111.698 32.1432 111.516 31.9219C111.346 31.6875 111.177 31.4531 111.008 31.2188C110.839 30.9714 110.656 30.737 110.461 30.5156C109.784 30.6849 109.087 30.8021 108.371 30.8672C107.668 30.9193 106.965 30.9453 106.262 30.9453C106.236 30.9714 106.197 30.9844 106.145 30.9844C106.092 30.9844 106.04 30.9909 105.988 31.0039C105.949 31.0039 105.91 31.0169 105.871 31.043C105.845 31.056 105.839 31.0885 105.852 31.1406C105.76 31.0885 105.656 31.056 105.539 31.043C105.435 31.0169 105.337 31.0039 105.246 31.0039C105.181 31.0039 105.116 31.0104 105.051 31.0234C104.986 31.0234 104.921 31.043 104.855 31.082C104.361 30.9909 103.879 30.8672 103.41 30.7109C102.954 30.5417 102.486 30.4049 102.004 30.3008C102.004 30.1966 101.978 30.125 101.926 30.0859C101.874 30.0339 101.828 29.9622 101.789 29.8711C101.242 29.5326 100.78 29.1224 100.402 28.6406C100.038 28.1589 99.888 27.5729 99.9531 26.8828L99.8164 26.6094C99.8164 26.401 99.862 26.2513 99.9531 26.1602C99.901 26.069 99.8099 25.9779 99.6797 25.8867C99.7969 25.7044 99.901 25.5156 99.9922 25.3203C100.083 25.125 100.148 24.9167 100.188 24.6953C100.201 24.6302 100.207 24.5716 100.207 24.5195C100.207 24.4674 100.22 24.4089 100.246 24.3438C100.272 24.2656 100.311 24.181 100.363 24.0898C100.402 23.9857 100.441 23.8945 100.48 23.8164C100.689 23.3737 100.917 22.9505 101.164 22.5469C101.424 22.1302 101.75 21.7721 102.141 21.4727C102.167 21.2513 102.232 21.069 102.336 20.9258C102.44 20.7695 102.551 20.6328 102.668 20.5156C102.798 20.3854 102.922 20.2552 103.039 20.125C103.169 19.9948 103.267 19.8385 103.332 19.6562C103.592 19.4349 103.853 19.2201 104.113 19.0117C104.387 18.8034 104.615 18.556 104.797 18.2695C105.031 18.1914 105.253 18.0938 105.461 17.9766C105.669 17.8464 105.845 17.6836 105.988 17.4883C106.301 17.4622 106.607 17.4036 106.906 17.3125C107.219 17.2214 107.544 17.1758 107.883 17.1758C108.026 17.1758 108.195 17.2083 108.391 17.2734C108.599 17.3255 108.755 17.4232 108.859 17.5664C108.872 17.5924 108.879 17.625 108.879 17.6641L108.898 17.7617C108.911 17.7878 108.924 17.8138 108.938 17.8398C108.964 17.8529 109.003 17.8529 109.055 17.8398C109.055 18.1263 109.022 18.4193 108.957 18.7188C108.892 19.0052 108.723 19.2266 108.449 19.3828C108.28 19.3307 108.098 19.3047 107.902 19.3047C107.642 19.3047 107.401 19.3568 107.18 19.4609C106.971 19.5521 106.763 19.6628 106.555 19.793C106.359 19.9102 106.158 20.0339 105.949 20.1641C105.741 20.2812 105.52 20.3659 105.285 20.418C105.259 20.5221 105.233 20.6198 105.207 20.7109C105.194 20.7891 105.201 20.8802 105.227 20.9844C105.161 20.9844 105.109 20.9779 105.07 20.9648C105.044 20.9388 104.999 20.9258 104.934 20.9258C104.842 20.9258 104.777 20.9779 104.738 21.082C104.712 21.1862 104.686 21.2708 104.66 21.3359C104.413 21.4401 104.204 21.5898 104.035 21.7852C103.879 21.9674 103.729 22.1693 103.586 22.3906C103.456 22.599 103.312 22.8008 103.156 22.9961C103 23.1914 102.805 23.3411 102.57 23.4453C102.466 23.862 102.362 24.2721 102.258 24.6758C102.167 25.0794 102.056 25.4831 101.926 25.8867C101.965 26.043 101.984 26.2057 101.984 26.375C101.984 26.5833 101.965 26.7721 101.926 26.9414C101.991 27.0456 102.056 27.1693 102.121 27.3125L102.355 27.7617C102.434 27.918 102.512 28.0612 102.59 28.1914C102.681 28.3216 102.766 28.4193 102.844 28.4844C102.987 28.5885 103.208 28.6862 103.508 28.7773C103.807 28.8555 104.074 28.9922 104.309 29.1875C104.335 29.1875 104.367 29.1875 104.406 29.1875C104.445 29.1745 104.478 29.168 104.504 29.168C104.66 29.168 104.829 29.207 105.012 29.2852C105.194 29.3633 105.311 29.4023 105.363 29.4023C106.092 29.4023 106.887 29.3568 107.746 29.2656C108.605 29.1615 109.4 29.0378 110.129 28.8945C110.155 28.7643 110.168 28.6536 110.168 28.5625C110.168 28.3932 110.142 28.2305 110.09 28.0742C110.038 27.9049 109.953 27.7617 109.836 27.6445C109.836 27.4492 109.836 27.2539 109.836 27.0586C109.849 26.8633 109.855 26.668 109.855 26.4727C109.855 26.1471 109.842 25.8021 109.816 25.4375C109.79 25.0729 109.725 24.7344 109.621 24.4219H109.582C109.413 24.4219 109.257 24.4674 109.113 24.5586C108.983 24.6367 108.846 24.6758 108.703 24.6758C108.625 24.6758 108.56 24.6562 108.508 24.6172C108.352 24.7995 108.163 24.9362 107.941 25.0273C107.72 25.1185 107.486 25.2031 107.238 25.2812C106.991 25.3464 106.743 25.418 106.496 25.4961C106.262 25.5742 106.047 25.6849 105.852 25.8281C105.747 25.7891 105.65 25.7695 105.559 25.7695C105.467 25.7695 105.376 25.776 105.285 25.7891C105.207 25.8021 105.116 25.8151 105.012 25.8281C104.738 25.5938 104.602 25.3008 104.602 24.9492C104.602 24.7669 104.628 24.5911 104.68 24.4219C104.745 24.2396 104.829 24.0703 104.934 23.9141C104.999 23.875 105.077 23.8555 105.168 23.8555C105.259 23.8424 105.35 23.8294 105.441 23.8164C105.533 23.7904 105.604 23.7578 105.656 23.7188C105.721 23.6797 105.76 23.6081 105.773 23.5039C105.812 23.543 105.845 23.5625 105.871 23.5625C105.897 23.5625 105.923 23.556 105.949 23.543C105.975 23.5299 106.001 23.5234 106.027 23.5234C106.053 23.5234 106.073 23.5365 106.086 23.5625C106.112 23.5885 106.125 23.6146 106.125 23.6406C106.685 23.3411 107.258 23.0872 107.844 22.8789C108.43 22.6706 109.022 22.4818 109.621 22.3125C110.233 22.1432 110.845 21.987 111.457 21.8438C112.069 21.6875 112.674 21.5182 113.273 21.3359C113.365 21.2578 113.462 21.1992 113.566 21.1602C113.671 21.1211 113.762 21.0625 113.84 20.9844C113.931 21.0365 114.042 21.0625 114.172 21.0625C114.354 21.0625 114.549 21.0299 114.758 20.9648C114.979 20.8867 115.161 20.7956 115.305 20.6914C115.357 20.7044 115.402 20.7109 115.441 20.7109H115.578C115.839 20.7109 116.079 20.6719 116.301 20.5938C116.535 20.5156 116.763 20.4115 116.984 20.2812H117.082C117.486 20.2812 117.883 20.2357 118.273 20.1445C118.677 20.0534 119.087 20.0078 119.504 20.0078C120.038 20.0078 120.507 20.1445 120.91 20.418V20.6523C120.91 20.7565 120.91 20.8542 120.91 20.9453C120.923 21.0234 120.949 21.1081 120.988 21.1992ZM127.512 28.8359C127.46 29.0312 127.375 29.194 127.258 29.3242C127.141 29.4544 127.004 29.5716 126.848 29.6758C126.704 29.7799 126.548 29.8776 126.379 29.9688C126.21 30.0469 126.047 30.138 125.891 30.2422H125.637C125.09 30.2422 124.667 30.112 124.367 29.8516C124.081 29.5781 123.859 29.2461 123.703 28.8555C123.547 28.4518 123.43 28.0221 123.352 27.5664C123.286 27.1107 123.202 26.694 123.098 26.3164C122.941 26.4466 122.811 26.6029 122.707 26.7852C122.603 26.9544 122.492 27.1237 122.375 27.293C122.271 27.4622 122.147 27.6185 122.004 27.7617C121.874 27.9049 121.698 28.0026 121.477 28.0547C121.438 28.1458 121.392 28.237 121.34 28.3281C121.301 28.4193 121.275 28.5169 121.262 28.6211C120.975 28.7773 120.715 28.9596 120.48 29.168C120.246 29.3763 120.012 29.5911 119.777 29.8125C119.543 30.0339 119.302 30.2487 119.055 30.457C118.82 30.6523 118.553 30.8151 118.254 30.9453C118.241 30.9323 118.215 30.9258 118.176 30.9258C118.02 30.9258 117.876 30.9648 117.746 31.043C117.616 31.1081 117.473 31.1406 117.316 31.1406C117.212 31.1406 117.115 31.1211 117.023 31.082C116.945 31.043 116.861 30.9974 116.77 30.9453C116.691 30.8932 116.607 30.8542 116.516 30.8281C116.424 30.8021 116.327 30.7956 116.223 30.8086C116.092 30.5742 115.917 30.3594 115.695 30.1641C115.487 29.9557 115.357 29.7214 115.305 29.4609C115.279 29.3438 115.259 29.2266 115.246 29.1094C115.246 28.9792 115.233 28.849 115.207 28.7188C115.168 28.5234 115.116 28.3281 115.051 28.1328C114.986 27.9245 114.934 27.7161 114.895 27.5078C114.96 27.1562 115.025 26.7721 115.09 26.3555C115.142 25.9258 115.207 25.5026 115.285 25.0859C115.376 24.6562 115.493 24.2526 115.637 23.875C115.793 23.4844 115.988 23.1523 116.223 22.8789L116.203 22.7422C116.203 22.5339 116.242 22.3385 116.32 22.1562C116.398 21.974 116.483 21.7982 116.574 21.6289C116.665 21.4596 116.743 21.2904 116.809 21.1211C116.874 20.9518 116.887 20.763 116.848 20.5547C117.004 20.4766 117.167 20.4115 117.336 20.3594C117.505 20.3073 117.681 20.2812 117.863 20.2812C118.033 20.2812 118.189 20.3073 118.332 20.3594C118.306 20.4635 118.352 20.5286 118.469 20.5547V20.6133C118.469 20.8867 118.436 21.1536 118.371 21.4141C118.306 21.6745 118.228 21.9349 118.137 22.1953C118.046 22.4427 117.954 22.6966 117.863 22.957C117.785 23.2044 117.727 23.4583 117.688 23.7188C117.635 23.7318 117.596 23.7578 117.57 23.7969C117.557 23.8359 117.544 23.875 117.531 23.9141C117.518 23.9531 117.499 23.9857 117.473 24.0117C117.447 24.0378 117.408 24.0508 117.355 24.0508C117.277 24.5065 117.193 24.9622 117.102 25.418C117.023 25.8607 116.984 26.3099 116.984 26.7656C116.984 27.0391 117.01 27.319 117.062 27.6055C117.115 27.8919 117.212 28.1654 117.355 28.4258L117.434 28.4062C117.577 28.4062 117.688 28.4388 117.766 28.5039C117.857 28.569 117.974 28.6341 118.117 28.6992C118.221 28.6732 118.319 28.6406 118.41 28.6016C118.501 28.5495 118.54 28.4648 118.527 28.3477C118.697 28.3346 118.84 28.2956 118.957 28.2305C119.074 28.1523 119.178 28.0677 119.27 27.9766L119.562 27.7031C119.667 27.612 119.79 27.5469 119.934 27.5078C119.934 27.4297 119.953 27.3711 119.992 27.332L120.109 27.2148C120.148 27.1758 120.174 27.1367 120.188 27.0977C120.214 27.0456 120.22 26.974 120.207 26.8828C120.363 26.8698 120.48 26.8307 120.559 26.7656C120.65 26.7005 120.728 26.6289 120.793 26.5508C120.871 26.4596 120.943 26.3685 121.008 26.2773C121.073 26.1862 121.158 26.1081 121.262 26.043C121.353 25.8477 121.477 25.5872 121.633 25.2617C121.802 24.9362 121.965 24.5977 122.121 24.2461C122.29 23.8945 122.434 23.5625 122.551 23.25C122.681 22.9245 122.746 22.6771 122.746 22.5078C122.746 22.4427 122.727 22.3841 122.688 22.332C122.661 22.2799 122.655 22.2214 122.668 22.1562V22.0977C122.772 21.9674 122.863 21.8242 122.941 21.668C123.033 21.5117 123.124 21.362 123.215 21.2188C123.319 21.0755 123.43 20.9453 123.547 20.8281C123.664 20.7109 123.814 20.6198 123.996 20.5547C124.204 20.6198 124.413 20.6654 124.621 20.6914C124.842 20.7174 125.051 20.7695 125.246 20.8477C125.259 21.1732 125.292 21.5508 125.344 21.9805C125.396 22.4102 125.487 22.7747 125.617 23.0742C125.617 23.2435 125.611 23.4062 125.598 23.5625C125.598 23.7188 125.598 23.875 125.598 24.0312C125.598 24.2917 125.604 24.5586 125.617 24.832C125.643 25.1055 125.689 25.3594 125.754 25.5938C125.663 25.7891 125.617 25.9974 125.617 26.2188C125.617 26.5182 125.663 26.8047 125.754 27.0781C125.845 27.3385 125.91 27.6185 125.949 27.918C126.118 28.1523 126.34 28.2695 126.613 28.2695C126.678 28.2695 126.73 28.263 126.77 28.25C126.822 28.237 126.874 28.2174 126.926 28.1914C127.03 28.3086 127.121 28.4258 127.199 28.543C127.29 28.6471 127.395 28.7448 127.512 28.8359ZM140.52 19.5781V19.6562C140.428 19.6823 140.383 19.7474 140.383 19.8516C140.24 19.9167 140.09 19.9688 139.934 20.0078C139.777 20.0339 139.628 20.0794 139.484 20.1445C139.341 20.1315 139.191 20.125 139.035 20.125C138.892 20.112 138.749 20.1055 138.605 20.1055C138.215 20.1055 137.824 20.1185 137.434 20.1445C137.043 20.1706 136.652 20.1706 136.262 20.1445C136.079 20.2487 135.878 20.3333 135.656 20.3984C135.448 20.4505 135.246 20.4766 135.051 20.4766C134.895 20.4766 134.758 20.457 134.641 20.418C134.328 20.5742 133.983 20.7044 133.605 20.8086C133.241 20.9128 132.87 21.0169 132.492 21.1211C132.115 21.2122 131.75 21.3229 131.398 21.4531C131.06 21.5703 130.76 21.7396 130.5 21.9609C130.474 22.1432 130.454 22.3255 130.441 22.5078C130.428 22.6771 130.422 22.8464 130.422 23.0156C130.422 23.1979 130.428 23.3672 130.441 23.5234C130.467 23.6797 130.513 23.8359 130.578 23.9922C130.643 24.0182 130.715 24.0378 130.793 24.0508C130.884 24.0638 130.962 24.0703 131.027 24.0703C131.092 24.0703 131.158 24.0638 131.223 24.0508C131.288 24.0247 131.333 23.9792 131.359 23.9141C131.555 23.888 131.75 23.8815 131.945 23.8945C132.141 23.8945 132.336 23.8945 132.531 23.8945C132.727 23.8945 132.915 23.888 133.098 23.875C133.293 23.862 133.482 23.8294 133.664 23.7773C133.872 23.7253 134.074 23.6927 134.27 23.6797C134.478 23.6667 134.68 23.6536 134.875 23.6406C135.07 23.6276 135.272 23.6081 135.48 23.582C135.689 23.543 135.904 23.4714 136.125 23.3672C136.294 23.4323 136.464 23.4648 136.633 23.4648C136.815 23.4648 136.991 23.4779 137.16 23.5039C137.251 23.569 137.323 23.6406 137.375 23.7188C137.44 23.7969 137.473 23.888 137.473 23.9922C137.473 24.1745 137.408 24.3568 137.277 24.5391C137.147 24.7214 137.043 24.8906 136.965 25.0469H136.75C136.438 25.0469 136.132 25.0924 135.832 25.1836C135.546 25.2617 135.253 25.3594 134.953 25.4766C134.667 25.5807 134.374 25.6784 134.074 25.7695C133.788 25.8477 133.488 25.8867 133.176 25.8867C133.124 25.8867 133.091 25.9193 133.078 25.9844C133.078 26.0365 133.065 26.0755 133.039 26.1016C132.974 26.0885 132.876 26.082 132.746 26.082C132.447 26.082 132.16 26.1146 131.887 26.1797C131.613 26.2448 131.333 26.2773 131.047 26.2773C130.969 26.2773 130.891 26.2773 130.812 26.2773C130.734 26.2643 130.656 26.2513 130.578 26.2383C130.513 26.3424 130.428 26.4141 130.324 26.4531C130.22 26.4792 130.122 26.5312 130.031 26.6094C129.992 26.7266 129.966 26.8698 129.953 27.0391C129.953 27.2083 129.947 27.3841 129.934 27.5664C129.934 27.7357 129.921 27.8984 129.895 28.0547C129.868 28.2109 129.816 28.3346 129.738 28.4258C129.751 28.4909 129.803 28.5169 129.895 28.5039C129.986 28.4779 130.031 28.5169 130.031 28.6211C130.031 28.7383 130.018 28.862 129.992 28.9922C129.966 29.1224 129.953 29.2526 129.953 29.3828C129.953 29.6302 129.979 29.9036 130.031 30.2031C130.096 30.4896 130.188 30.7565 130.305 31.0039C130.435 31.2513 130.604 31.4596 130.812 31.6289C131.021 31.7852 131.281 31.8633 131.594 31.8633C131.802 31.8633 131.997 31.8242 132.18 31.7461C132.362 31.668 132.512 31.5378 132.629 31.3555L132.727 31.3359C132.779 31.3359 132.824 31.3424 132.863 31.3555C132.915 31.3685 132.967 31.375 133.02 31.375C133.098 31.375 133.195 31.3294 133.312 31.2383C133.443 31.1341 133.579 31.0169 133.723 30.8867C133.879 30.7565 134.035 30.6328 134.191 30.5156C134.348 30.3854 134.497 30.2943 134.641 30.2422C134.732 30.0599 134.816 29.8776 134.895 29.6953C134.986 29.513 135.116 29.3698 135.285 29.2656V28.6992C135.415 28.556 135.552 28.4258 135.695 28.3086C135.852 28.1914 135.969 28.0417 136.047 27.8594C136.112 27.8854 136.171 27.9049 136.223 27.918C136.288 27.931 136.353 27.9375 136.418 27.9375C136.483 27.9375 136.548 27.931 136.613 27.918C136.691 27.9049 136.763 27.8854 136.828 27.8594C136.932 28.0026 137.01 28.1654 137.062 28.3477C137.128 28.5169 137.206 28.6797 137.297 28.8359C137.18 29.0703 137.043 29.3503 136.887 29.6758C136.73 30.0013 136.561 30.3268 136.379 30.6523C136.197 30.9779 136.001 31.2904 135.793 31.5898C135.598 31.8763 135.402 32.0977 135.207 32.2539C135.168 32.293 135.083 32.3385 134.953 32.3906C134.81 32.4948 134.68 32.5924 134.562 32.6836C134.445 32.7878 134.335 32.9049 134.23 33.0352C133.853 33.1523 133.488 33.3086 133.137 33.5039C132.798 33.6992 132.46 33.888 132.121 34.0703C131.965 34.0312 131.796 34.0117 131.613 34.0117C131.457 34.0117 131.301 34.0182 131.145 34.0312C130.988 34.0573 130.819 34.0703 130.637 34.0703C130.585 34.0052 130.507 33.9596 130.402 33.9336C130.311 33.9206 130.279 33.8555 130.305 33.7383C129.862 33.7122 129.504 33.5885 129.23 33.3672C128.957 33.1589 128.723 32.8984 128.527 32.5859C128.345 32.2734 128.195 31.9349 128.078 31.5703C127.961 31.2057 127.837 30.8542 127.707 30.5156V30.457C127.707 30.3919 127.733 30.3529 127.785 30.3398C127.837 30.3268 127.863 30.2878 127.863 30.2227C127.863 30.1966 127.857 30.1771 127.844 30.1641C127.805 30.0208 127.772 29.8971 127.746 29.793C127.72 29.6888 127.707 29.5651 127.707 29.4219C127.707 29.2135 127.72 29.0117 127.746 28.8164C127.772 28.6081 127.785 28.3997 127.785 28.1914C127.785 27.9831 127.759 27.8008 127.707 27.6445C127.759 27.5794 127.805 27.4948 127.844 27.3906C127.87 27.2734 127.889 27.1562 127.902 27.0391C127.915 26.9219 127.922 26.8047 127.922 26.6875C127.935 26.5703 127.954 26.4661 127.98 26.375C127.928 26.2318 127.883 26.1081 127.844 26.0039C127.805 25.8867 127.785 25.75 127.785 25.5938V25.457C127.915 25.2357 128.026 25.0078 128.117 24.7734C128.208 24.5391 128.306 24.2982 128.41 24.0508V23.9922C128.41 23.6146 128.397 23.237 128.371 22.8594C128.345 22.4818 128.332 22.1042 128.332 21.7266V21.3555C128.332 21.2253 128.339 21.1016 128.352 20.9844C128.456 20.9323 128.534 20.8607 128.586 20.7695C128.638 20.6784 128.716 20.6068 128.82 20.5547H129.465L129.582 20.3594C129.621 20.2943 129.647 20.2227 129.66 20.1445C129.803 20.1055 129.94 20.0534 130.07 19.9883C130.214 19.9102 130.344 19.832 130.461 19.7539C130.643 19.6497 130.806 19.5586 130.949 19.4805C131.105 19.3893 131.255 19.3177 131.398 19.2656C131.555 19.2005 131.717 19.1484 131.887 19.1094C132.056 19.0703 132.251 19.0378 132.473 19.0117C132.577 19.0117 132.642 18.9922 132.668 18.9531C132.707 18.9141 132.759 18.8685 132.824 18.8164C132.98 18.8424 133.137 18.8685 133.293 18.8945C133.449 18.9076 133.605 18.9141 133.762 18.9141C134.074 18.9141 134.367 18.8555 134.641 18.7383C135.031 18.7383 135.415 18.7318 135.793 18.7188C136.184 18.7057 136.574 18.6992 136.965 18.6992C137.303 18.6992 137.642 18.7122 137.98 18.7383C138.319 18.7643 138.651 18.8099 138.977 18.875C139.094 18.8359 139.224 18.8164 139.367 18.8164C139.523 18.8164 139.68 18.8359 139.836 18.875C140.005 18.901 140.168 18.901 140.324 18.875C140.337 19.0182 140.37 19.1419 140.422 19.2461C140.487 19.3372 140.52 19.4479 140.52 19.5781Z" fill="black"/>
</svg>
