<svg width="500" height="500" viewBox="0 0 500 500" fill="none" xmlns="http://www.w3.org/2000/svg">
<path d="M65 135C62.3478 135 59.8043 136.054 57.9289 137.929C56.0536 139.804 55 142.348 55 145C55 147.652 56.0536 150.196 57.9289 152.071C59.8043 153.946 62.3478 155 65 155C67.6522 155 70.1957 153.946 72.0711 152.071C73.9464 150.196 75 147.652 75 145C75 142.348 73.9464 139.804 72.0711 137.929C70.1957 136.054 67.6522 135 65 135Z" fill="#9D9FCE"/>
<path d="M385 60C383.674 60 382.402 60.5268 381.464 61.4645C380.527 62.4021 380 63.6739 380 65C380 66.3261 380.527 67.5979 381.464 68.5355C382.402 69.4732 383.674 70 385 70C386.326 70 387.598 69.4732 388.536 68.5355C389.473 67.5979 390 66.3261 390 65C390 63.6739 389.473 62.4021 388.536 61.4645C387.598 60.5268 386.326 60 385 60Z" fill="#F1BC19"/>
<path d="M250 65C200.935 65 153.879 84.491 119.185 119.185C84.491 153.879 65 200.935 65 250C65 299.065 84.491 346.121 119.185 380.815C153.879 415.509 200.935 435 250 435C299.065 435 346.121 415.509 380.815 380.815C415.509 346.121 435 299.065 435 250C435 200.935 415.509 153.879 380.815 119.185C346.121 84.491 299.065 65 250 65V65Z" fill="#F7775E" fill-opacity="0.36"/>
<path d="M415 55C409.696 55 404.609 57.1071 400.858 60.8579C397.107 64.6086 395 69.6957 395 75C395 80.3043 397.107 85.3914 400.858 89.1421C404.609 92.8929 409.696 95 415 95C420.304 95 425.391 92.8929 429.142 89.1421C432.893 85.3914 435 80.3043 435 75C435 69.6957 432.893 64.6086 429.142 60.8579C425.391 57.1071 420.304 55 415 55V55Z" fill="#F1BC19"/>
<path d="M435 110C432.348 110 429.804 111.054 427.929 112.929C426.054 114.804 425 117.348 425 120C425 122.652 426.054 125.196 427.929 127.071C429.804 128.946 432.348 130 435 130C437.652 130 440.196 128.946 442.071 127.071C443.946 125.196 445 122.652 445 120C445 117.348 443.946 114.804 442.071 112.929C440.196 111.054 437.652 110 435 110Z" fill="#9D9FCE"/>
<path d="M405 370C402.348 370 399.804 371.054 397.929 372.929C396.054 374.804 395 377.348 395 380C395 382.652 396.054 385.196 397.929 387.071C399.804 388.946 402.348 390 405 390C407.652 390 410.196 388.946 412.071 387.071C413.946 385.196 415 382.652 415 380C415 377.348 413.946 374.804 412.071 372.929C410.196 371.054 407.652 370 405 370ZM75 295C69.6957 295 64.6086 297.107 60.8579 300.858C57.1071 304.609 55 309.696 55 315C55 320.304 57.1071 325.391 60.8579 329.142C64.6086 332.893 69.6957 335 75 335C80.3043 335 85.3914 332.893 89.1421 329.142C92.8929 325.391 95 320.304 95 315C95 309.696 92.8929 304.609 89.1421 300.858C85.3914 297.107 80.3043 295 75 295Z" fill="#FBCD59"/>
<path d="M125 425C122.348 425 119.804 426.054 117.929 427.929C116.054 429.804 115 432.348 115 435C115 437.652 116.054 440.196 117.929 442.071C119.804 443.946 122.348 445 125 445C127.652 445 130.196 443.946 132.071 442.071C133.946 440.196 135 437.652 135 435C135 432.348 133.946 429.804 132.071 427.929C130.196 426.054 127.652 425 125 425Z" fill="#9D9FCE"/>
<path d="M92.5 255C89.1848 255 86.0054 256.317 83.6612 258.661C81.317 261.005 80 264.185 80 267.5C80 270.815 81.317 273.995 83.6612 276.339C86.0054 278.683 89.1848 280 92.5 280C95.8152 280 98.9946 278.683 101.339 276.339C103.683 273.995 105 270.815 105 267.5C105 264.185 103.683 261.005 101.339 258.661C98.9946 256.317 95.8152 255 92.5 255V255Z" fill="white"/>
<path d="M105 330C103.674 330 102.402 330.527 101.464 331.464C100.527 332.402 100 333.674 100 335C100 336.326 100.527 337.598 101.464 338.536C102.402 339.473 103.674 340 105 340C106.326 340 107.598 339.473 108.536 338.536C109.473 337.598 110 336.326 110 335C110 333.674 109.473 332.402 108.536 331.464C107.598 330.527 106.326 330 105 330Z" fill="#F1BC19"/>
<path d="M400 165C398.674 165 397.402 165.527 396.464 166.464C395.527 167.402 395 168.674 395 170C395 171.326 395.527 172.598 396.464 173.536C397.402 174.473 398.674 175 400 175C401.326 175 402.598 174.473 403.536 173.536C404.473 172.598 405 171.326 405 170C405 168.674 404.473 167.402 403.536 166.464C402.598 165.527 401.326 165 400 165Z" fill="white"/>
<path d="M325 140C344.3 140 360 155.7 360 175V325C360 344.3 344.3 360 325 360H175C155.7 360 140 344.3 140 325V175C140 155.7 155.7 140 175 140H325Z" fill="#F7775E"/>
<path d="M325 142C343.195 142 358 156.805 358 175V325C358 343.195 343.195 358 325 358H175C156.805 358 142 343.195 142 325V175C142 156.805 156.805 142 175 142H325ZM325 135H175C152.91 135 135 152.91 135 175V325C135 347.09 152.91 365 175 365H325C347.09 365 365 347.09 365 325V175C365 152.91 347.09 135 325 135Z" fill="#472B29"/>
<path d="M315 345H185C168.455 345 155 331.545 155 315V185C155 168.455 168.455 155 185 155H315C331.545 155 345 168.455 345 185V315C345 331.545 331.545 345 315 345Z" fill="#FDFCEE"/>
<path d="M315 345H185C168.455 345 155 331.545 155 315V185C155 168.455 168.455 155 185 155H308.125C309.16 155 310 155.84 310 156.875C310 157.91 309.16 158.75 308.125 158.75H185C170.525 158.75 158.75 170.525 158.75 185V315C158.75 329.475 170.525 341.25 185 341.25H315C329.475 341.25 341.25 329.475 341.25 315V241.875C341.25 240.84 342.09 240 343.125 240C344.16 240 345 240.84 345 241.875V315C345 331.545 331.545 345 315 345ZM343.125 210C342.09 210 341.25 209.16 341.25 208.125V201.735C341.25 200.7 342.09 199.86 343.125 199.86C344.16 199.86 345 200.7 345 201.735V208.125C345 209.16 344.16 210 343.125 210Z" fill="#472B29"/>
<path d="M343.125 235C342.09 235 341.25 234.16 341.25 233.125V216.875C341.25 215.84 342.09 215 343.125 215C344.16 215 345 215.84 345 216.875V233.125C345 234.16 344.16 235 343.125 235Z" fill="#472B29"/>
<path d="M270 186.875C258.563 186.875 247.594 191.419 239.506 199.506C231.419 207.594 226.875 218.563 226.875 230C226.875 241.437 231.419 252.406 239.506 260.494C247.594 268.581 258.563 273.125 270 273.125C281.437 273.125 292.406 268.581 300.494 260.494C308.581 252.406 313.125 241.437 313.125 230C313.125 218.563 308.581 207.594 300.494 199.506C292.406 191.419 281.437 186.875 270 186.875V186.875Z" fill="#E1E0D8"/>
<path d="M270 196.25C265.568 196.25 261.179 197.123 257.084 198.819C252.99 200.515 249.269 203.001 246.135 206.135C243.001 209.269 240.515 212.99 238.819 217.084C237.123 221.179 236.25 225.568 236.25 230C236.25 234.432 237.123 238.821 238.819 242.916C240.515 247.01 243.001 250.731 246.135 253.865C249.269 256.999 252.99 259.485 257.084 261.181C261.179 262.877 265.568 263.75 270 263.75C274.432 263.75 278.821 262.877 282.916 261.181C287.01 259.485 290.731 256.999 293.865 253.865C296.999 250.731 299.485 247.01 301.181 242.916C302.877 238.821 303.75 234.432 303.75 230C303.75 225.568 302.877 221.179 301.181 217.084C299.485 212.99 296.999 209.269 293.865 206.135C290.731 203.001 287.01 200.515 282.916 198.819C278.821 197.123 274.432 196.25 270 196.25V196.25Z" fill="#A8DBDB"/>
<path d="M230.195 269.805C226.29 265.9 219.96 265.9 216.055 269.805C213.24 272.62 192.625 293.235 189.805 296.055C185.9 299.96 185.9 306.29 189.805 310.195C193.71 314.1 200.04 314.1 203.945 310.195C206.765 307.375 227.38 286.76 230.195 283.945C234.1 280.04 234.1 273.71 230.195 269.805Z" fill="#F7775E"/>
<path d="M230.195 283.945C234.1 280.04 234.1 273.71 230.195 269.805C226.29 265.9 219.96 265.9 216.055 269.805L230.195 283.945Z" fill="#D1DC82"/>
<path d="M270 275C245.19 275 225 254.81 225 230C225 205.19 245.19 185 270 185C294.81 185 315 205.19 315 230C315 254.81 294.81 275 270 275ZM270 188.75C247.255 188.75 228.75 207.255 228.75 230C228.75 252.745 247.255 271.25 270 271.25C292.745 271.25 311.25 252.745 311.25 230C311.25 207.255 292.745 188.75 270 188.75Z" fill="#472B29"/>
<path d="M270 265C250.7 265 235 249.3 235 230C235 210.7 250.7 195 270 195C289.3 195 305 210.7 305 230C305 249.3 289.3 265 270 265ZM270 197.5C252.08 197.5 237.5 212.08 237.5 230C237.5 247.92 252.08 262.5 270 262.5C287.92 262.5 302.5 247.92 302.5 230C302.5 212.08 287.92 197.5 270 197.5Z" fill="#472B29"/>
<path d="M229.012 267.446L237.603 258.854L241.139 262.39L232.547 270.981L229.012 267.446Z" fill="#472B29"/>
<path d="M196.875 315C193.705 315 190.72 313.765 188.48 311.52C186.235 309.28 185 306.295 185 303.125C185 299.955 186.235 296.97 188.48 294.73L214.73 268.48C219.21 263.995 227.035 263.995 231.52 268.48C233.765 270.725 235 273.705 235 276.875C235 280.045 233.765 283.03 231.52 285.27L205.27 311.52C203.03 313.765 200.045 315 196.875 315ZM223.125 268.75C220.955 268.75 218.915 269.595 217.38 271.13L191.13 297.38C189.595 298.915 188.75 300.955 188.75 303.125C188.75 305.295 189.595 307.335 191.13 308.87C194.2 311.94 199.55 311.94 202.62 308.87L228.87 282.62C230.405 281.085 231.25 279.045 231.25 276.875C231.25 274.705 230.405 272.665 228.87 271.13C227.335 269.595 225.295 268.75 223.125 268.75Z" fill="#472B29"/>
<path d="M215.233 271.637L217.884 268.986L231.518 282.618L228.866 285.27L215.233 271.637Z" fill="#472B29"/>
<path d="M202.5 300C202.235 300 201.985 299.83 201.905 299.565L198.155 287.69C198.05 287.36 198.235 287.01 198.565 286.905C198.905 286.81 199.245 286.985 199.35 287.315L203.1 299.19C203.205 299.52 203.02 299.87 202.69 299.975C202.625 299.99 202.56 300 202.5 300ZM200 305C199.735 305 199.485 304.83 199.405 304.565L194.69 289.635C194.585 289.305 194.77 288.955 195.1 288.85C195.44 288.75 195.785 288.93 195.885 289.26L200.6 304.19C200.705 304.52 200.52 304.87 200.19 304.975C200.125 304.99 200.06 305 200 305ZM198.48 313.11C198.215 313.11 197.965 312.94 197.885 312.675L191.595 292.75C191.49 292.42 191.675 292.07 192.005 291.965C192.35 291.86 192.685 292.05 192.79 292.375L199.08 312.3C199.185 312.63 199 312.98 198.67 313.085C198.605 313.1 198.54 313.11 198.48 313.11ZM194.605 313.75C194.34 313.75 194.09 313.58 194.01 313.315L188.435 295.66C188.33 295.33 188.515 294.98 188.845 294.875C189.195 294.78 189.53 294.96 189.63 295.285L195.205 312.94C195.31 313.27 195.125 313.62 194.795 313.725C194.73 313.74 194.665 313.75 194.605 313.75Z" fill="#472B29"/>
</svg>
